<?xml version="1.0" encoding="UTF-8" standalone="no"?>
<!DOCTYPE svg PUBLIC "-//W3C//DTD SVG 1.1//EN"
 "http://www.w3.org/Graphics/SVG/1.1/DTD/svg11.dtd">
<!-- Generated by graphviz version 2.43.0 (0)
 -->
<!-- Title: G Pages: 1 -->
<svg width="829pt" height="1556pt"
 viewBox="0.00 0.00 828.75 1555.94" xmlns="http://www.w3.org/2000/svg" xmlns:xlink="http://www.w3.org/1999/xlink">
<g id="graph0" class="graph" transform="scale(1 1) rotate(0) translate(4 1551.94)">
<title>G</title>
<polygon fill="white" stroke="transparent" points="-4,4 -4,-1551.94 824.75,-1551.94 824.75,4 -4,4"/>
<!-- node0 -->
<g id="node1" class="node">
<title>node0</title>
<g id="a_node1"><a xlink:href="actor_management/scenario.html" xlink:title="&lt;TABLE&gt;">
<ellipse fill="none" stroke="black" cx="111.02" cy="-1333.6" rx="111.03" ry="54.39"/>
<image xlink:href="actor_management/volumetric_thumb.svg" width="46px" height="46px" preserveAspectRatio="xMinYMin meet" x="88.5158" y="-1365.6"/>
<text text-anchor="start" x="43.02" y="-1304.4" font-family="Times,serif" font-size="14.00">Actor Management</text>
</a>
</g>
</g>
<!-- node4 -->
<g id="node5" class="node">
<title>node4</title>
<g id="a_node5"><a xlink:href="evolving_plan/scenario.html" xlink:title="&lt;TABLE&gt;">
<ellipse fill="none" stroke="black" cx="145.02" cy="-1173.71" rx="84.29" ry="54.39"/>
<image xlink:href="evolving_plan/volumetric_thumb.svg" width="46px" height="46px" preserveAspectRatio="xMinYMin meet" x="122.516" y="-1205.71"/>
<text text-anchor="start" x="96.02" y="-1144.51" font-family="Times,serif" font-size="14.00">Evolving Plan</text>
</a>
</g>
</g>
<!-- node0&#45;&gt;node4 -->
<g id="edge1" class="edge">
<title>node0&#45;&gt;node4</title>
<path fill="none" stroke="black" d="M122.53,-1279.15C125.39,-1265.83 128.5,-1251.43 131.45,-1237.7"/>
<polygon fill="black" stroke="black" points="134.89,-1238.35 133.57,-1227.84 128.05,-1236.88 134.89,-1238.35"/>
<text text-anchor="middle" x="152.52" y="-1249.96" font-family="Times,serif" font-size="14.00">actors</text>
</g>
<!-- node1 -->
<g id="node2" class="node">
<title>node1</title>
<g id="a_node2"><a xlink:href="cost_tracking/scenario.html" xlink:title="&lt;TABLE&gt;">
<ellipse fill="none" stroke="black" cx="311.02" cy="-1493.5" rx="84.71" ry="54.39"/>
<image xlink:href="cost_tracking/volumetric_thumb.svg" width="46px" height="46px" preserveAspectRatio="xMinYMin meet" x="288.016" y="-1525.5"/>
<text text-anchor="start" x="261.02" y="-1464.3" font-family="Times,serif" font-size="14.00">Cost Tracking</text>
</a>
</g>
</g>
<!-- node13 -->
<g id="node14" class="node">
<title>node13</title>
<g id="a_node14"><a xlink:href="scheduling/scenario.html" xlink:title="&lt;TABLE&gt;">
<ellipse fill="none" stroke="black" cx="311.02" cy="-1333.6" rx="70.92" ry="54.39"/>
<image xlink:href="scheduling/volumetric_thumb.svg" width="46px" height="46px" preserveAspectRatio="xMinYMin meet" x="288.016" y="-1365.6"/>
<text text-anchor="start" x="271.02" y="-1304.4" font-family="Times,serif" font-size="14.00">Scheduling</text>
</a>
</g>
</g>
<!-- node1&#45;&gt;node13 -->
<g id="edge2" class="edge">
<title>node1&#45;&gt;node13</title>
<path fill="none" stroke="black" d="M311.02,-1439.04C311.02,-1425.99 311.02,-1411.91 311.02,-1398.43"/>
<polygon fill="black" stroke="black" points="314.52,-1398.27 311.02,-1388.27 307.52,-1398.27 314.52,-1398.27"/>
<text text-anchor="middle" x="393.02" y="-1409.85" font-family="Times,serif" font-size="14.00">inspect over&#45;cost tasks</text>
</g>
<!-- node2 -->
<g id="node3" class="node">
<title>node2</title>
<g id="a_node3"><a xlink:href="crane_guidance/scenario.html" xlink:title="&lt;TABLE&gt;">
<ellipse fill="none" stroke="black" cx="542.02" cy="-1173.71" rx="93.18" ry="54.39"/>
<image xlink:href="crane_guidance/volumetric_thumb.svg" width="46px" height="46px" preserveAspectRatio="xMinYMin meet" x="519.016" y="-1205.71"/>
<text text-anchor="start" x="486.02" y="-1144.51" font-family="Times,serif" font-size="14.00">Crane guidance</text>
</a>
</g>
</g>
<!-- node7 -->
<g id="node8" class="node">
<title>node7</title>
<g id="a_node8"><a xlink:href="logistics/scenario.html" xlink:title="&lt;TABLE&gt;">
<ellipse fill="none" stroke="black" cx="339.02" cy="-1013.81" rx="59.29" ry="54.39"/>
<image xlink:href="logistics/volumetric_thumb.svg" width="46px" height="46px" preserveAspectRatio="xMinYMin meet" x="316.016" y="-1045.81"/>
<text text-anchor="start" x="307.02" y="-984.61" font-family="Times,serif" font-size="14.00">Logistics</text>
</a>
</g>
</g>
<!-- node2&#45;&gt;node7 -->
<g id="edge3" class="edge">
<title>node2&#45;&gt;node7</title>
<path fill="none" stroke="black" d="M486.81,-1129.77C457.3,-1106.82 421.14,-1078.69 391.98,-1056.01"/>
<polygon fill="black" stroke="black" points="393.99,-1053.14 383.95,-1049.76 389.69,-1058.67 393.99,-1053.14"/>
<text text-anchor="middle" x="473.02" y="-1090.06" font-family="Times,serif" font-size="14.00">specific</text>
</g>
<!-- node3 -->
<g id="node4" class="node">
<title>node3</title>
<g id="a_node4"><a xlink:href="digital_reconstruction/scenario.html" xlink:title="&lt;TABLE&gt;">
<ellipse fill="none" stroke="black" cx="270.02" cy="-534.13" rx="127.97" ry="54.39"/>
<image xlink:href="digital_reconstruction/volumetric_thumb.svg" width="46px" height="46px" preserveAspectRatio="xMinYMin meet" x="247.516" y="-566.131"/>
<text text-anchor="start" x="190.02" y="-504.93" font-family="Times,serif" font-size="14.00">Digital Reconstruction</text>
</a>
</g>
</g>
<!-- node14 -->
<g id="node15" class="node">
<title>node14</title>
<g id="a_node15"><a xlink:href="thermal_inspection/scenario.html" xlink:title="&lt;TABLE&gt;">
<ellipse fill="none" stroke="black" cx="229.02" cy="-374.24" rx="112.36" ry="54.39"/>
<image xlink:href="thermal_inspection/volumetric_thumb.svg" width="46px" height="46px" preserveAspectRatio="xMinYMin meet" x="206.516" y="-406.236"/>
<text text-anchor="start" x="160.02" y="-345.04" font-family="Times,serif" font-size="14.00">Thermal Inspection</text>
</a>
</g>
</g>
<!-- node3&#45;&gt;node14 -->
<g id="edge5" class="edge">
<title>node3&#45;&gt;node14</title>
<path fill="none" stroke="black" d="M256.14,-479.67C252.68,-466.36 248.94,-451.95 245.37,-438.22"/>
<polygon fill="black" stroke="black" points="248.71,-437.17 242.81,-428.37 241.94,-438.93 248.71,-437.17"/>
<text text-anchor="middle" x="296.02" y="-450.48" font-family="Times,serif" font-size="14.00">observations</text>
</g>
<!-- node19 -->
<g id="node20" class="node">
<title>node19</title>
<g id="a_node20"><a xlink:href="virtual_inspection/scenario.html" xlink:title="&lt;TABLE&gt;">
<ellipse fill="none" stroke="black" cx="154.02" cy="-1013.81" rx="104.8" ry="54.39"/>
<image xlink:href="virtual_inspection/volumetric_thumb.svg" width="46px" height="46px" preserveAspectRatio="xMinYMin meet" x="131.016" y="-1045.81"/>
<text text-anchor="start" x="90.02" y="-984.61" font-family="Times,serif" font-size="14.00">Virtual Inspection</text>
</a>
</g>
</g>
<!-- node3&#45;&gt;node19 -->
<g id="edge4" class="edge">
<title>node3&#45;&gt;node19</title>
<path fill="none" stroke="black" d="M212.5,-582.98C196.89,-599.22 181.87,-618.6 173.02,-639.58 130.07,-741.25 135.81,-872.61 144.49,-949.3"/>
<polygon fill="black" stroke="black" points="141.03,-949.78 145.68,-959.29 147.98,-948.95 141.03,-949.78"/>
<text text-anchor="middle" x="189.02" y="-770.27" font-family="Times,serif" font-size="14.00">observations</text>
</g>
<!-- node4&#45;&gt;node19 -->
<g id="edge6" class="edge">
<title>node4&#45;&gt;node19</title>
<path fill="none" stroke="black" d="M148.06,-1119.25C148.81,-1106.21 149.61,-1092.12 150.38,-1078.64"/>
<polygon fill="black" stroke="black" points="153.88,-1078.67 150.96,-1068.48 146.89,-1078.27 153.88,-1078.67"/>
<text text-anchor="middle" x="165.52" y="-1090.06" font-family="Times,serif" font-size="14.00">BIM</text>
</g>
<!-- node5 -->
<g id="node6" class="node">
<title>node5</title>
<g id="a_node6"><a xlink:href="fall_risk/scenario.html" xlink:title="&lt;TABLE&gt;">
<ellipse fill="none" stroke="black" cx="355.02" cy="-214.34" rx="57.97" ry="54.39"/>
<image xlink:href="fall_risk/volumetric_thumb.svg" width="46px" height="46px" preserveAspectRatio="xMinYMin meet" x="332.016" y="-246.342"/>
<text text-anchor="start" x="324.02" y="-185.14" font-family="Times,serif" font-size="14.00">Fall Risk</text>
</a>
</g>
</g>
<!-- node9 -->
<g id="node10" class="node">
<title>node9</title>
<g id="a_node10"><a xlink:href="risk_management/scenario.html" xlink:title="&lt;TABLE&gt;">
<ellipse fill="none" stroke="black" cx="435.02" cy="-54.45" rx="106.13" ry="54.39"/>
<image xlink:href="risk_management/volumetric_thumb.svg" width="46px" height="46px" preserveAspectRatio="xMinYMin meet" x="412.016" y="-86.4472"/>
<text text-anchor="start" x="370.02" y="-25.25" font-family="Times,serif" font-size="14.00">Risk Management</text>
</a>
</g>
</g>
<!-- node5&#45;&gt;node9 -->
<g id="edge7" class="edge">
<title>node5&#45;&gt;node9</title>
<path fill="none" stroke="black" d="M379.67,-164.68C387.39,-149.45 396,-132.46 404.09,-116.49"/>
<polygon fill="black" stroke="black" points="407.38,-117.74 408.78,-107.23 401.14,-114.57 407.38,-117.74"/>
<text text-anchor="middle" x="424.02" y="-130.69" font-family="Times,serif" font-size="14.00">specific</text>
</g>
<!-- node6 -->
<g id="node7" class="node">
<title>node6</title>
<g id="a_node7"><a xlink:href="fire_risk/scenario.html" xlink:title="&lt;TABLE&gt;">
<ellipse fill="none" stroke="black" cx="219.02" cy="-214.34" rx="60.21" ry="54.39"/>
<image xlink:href="fire_risk/volumetric_thumb.svg" width="46px" height="46px" preserveAspectRatio="xMinYMin meet" x="196.516" y="-246.342"/>
<text text-anchor="start" x="187.02" y="-185.14" font-family="Times,serif" font-size="14.00">Fire Risk</text>
</a>
</g>
</g>
<!-- node6&#45;&gt;node9 -->
<g id="edge8" class="edge">
<title>node6&#45;&gt;node9</title>
<path fill="none" stroke="black" d="M264.12,-178.03C272.04,-171.93 280.24,-165.69 288.02,-159.89 312.6,-141.56 339.89,-121.97 364.22,-104.76"/>
<polygon fill="black" stroke="black" points="366.54,-107.41 372.69,-98.78 362.5,-101.69 366.54,-107.41"/>
<text text-anchor="middle" x="359.02" y="-130.69" font-family="Times,serif" font-size="14.00">specific</text>
</g>
<!-- node15 -->
<g id="node16" class="node">
<title>node15</title>
<g id="a_node16"><a xlink:href="topic_management/scenario.html" xlink:title="&lt;TABLE&gt;">
<ellipse fill="none" stroke="black" cx="315.02" cy="-853.92" rx="110.12" ry="54.39"/>
<image xlink:href="topic_management/volumetric_thumb.svg" width="46px" height="46px" preserveAspectRatio="xMinYMin meet" x="292.016" y="-885.919"/>
<text text-anchor="start" x="247.02" y="-824.72" font-family="Times,serif" font-size="14.00">Topic Management</text>
</a>
</g>
</g>
<!-- node7&#45;&gt;node15 -->
<g id="edge9" class="edge">
<title>node7&#45;&gt;node15</title>
<path fill="none" stroke="black" d="M330.96,-959.8C328.93,-946.46 326.73,-932.01 324.64,-918.23"/>
<polygon fill="black" stroke="black" points="328.1,-917.69 323.13,-908.33 321.18,-918.75 328.1,-917.69"/>
<text text-anchor="middle" x="362.02" y="-930.17" font-family="Times,serif" font-size="14.00">deliveries</text>
</g>
<!-- node8 -->
<g id="node9" class="node">
<title>node8</title>
<g id="a_node9"><a xlink:href="manual_snapshots/scenario.html" xlink:title="&lt;TABLE&gt;">
<ellipse fill="none" stroke="black" cx="490.02" cy="-694.02" rx="108.38" ry="54.39"/>
<image xlink:href="manual_snapshots/volumetric_thumb.svg" width="46px" height="46px" preserveAspectRatio="xMinYMin meet" x="467.516" y="-726.025"/>
<text text-anchor="start" x="424.02" y="-664.82" font-family="Times,serif" font-size="14.00">Manual Snapshots</text>
</a>
</g>
</g>
<!-- node8&#45;&gt;node3 -->
<g id="edge10" class="edge">
<title>node8&#45;&gt;node3</title>
<path fill="none" stroke="black" d="M428.73,-649.04C402,-629.86 370.46,-607.22 342.57,-587.2"/>
<polygon fill="black" stroke="black" points="344.59,-584.34 334.42,-581.36 340.51,-590.03 344.59,-584.34"/>
<text text-anchor="middle" x="412.02" y="-610.38" font-family="Times,serif" font-size="14.00">images</text>
</g>
<!-- node10 -->
<g id="node11" class="node">
<title>node10</title>
<g id="a_node11"><a xlink:href="risk_planning/scenario.html" xlink:title="&lt;TABLE&gt;">
<ellipse fill="none" stroke="black" cx="515.02" cy="-214.34" rx="84.29" ry="54.39"/>
<image xlink:href="risk_planning/volumetric_thumb.svg" width="46px" height="46px" preserveAspectRatio="xMinYMin meet" x="492.516" y="-246.342"/>
<text text-anchor="start" x="466.02" y="-185.14" font-family="Times,serif" font-size="14.00">Risk Planning</text>
</a>
</g>
</g>
<!-- node10&#45;&gt;node9 -->
<g id="edge11" class="edge">
<title>node10&#45;&gt;node9</title>
<path fill="none" stroke="black" d="M489.04,-162.08C481.67,-147.54 473.58,-131.56 465.95,-116.5"/>
<polygon fill="black" stroke="black" points="468.91,-114.6 461.27,-107.26 462.67,-117.77 468.91,-114.6"/>
<text text-anchor="middle" x="517.52" y="-130.69" font-family="Times,serif" font-size="14.00">in planning</text>
</g>
<!-- node11 -->
<g id="node12" class="node">
<title>node11</title>
<g id="a_node12"><a xlink:href="risk_tracking/scenario.html" xlink:title="&lt;TABLE&gt;">
<ellipse fill="none" stroke="black" cx="627.02" cy="-1013.81" rx="83.38" ry="54.39"/>
<image xlink:href="risk_tracking/volumetric_thumb.svg" width="46px" height="46px" preserveAspectRatio="xMinYMin meet" x="604.016" y="-1045.81"/>
<text text-anchor="start" x="578.02" y="-984.61" font-family="Times,serif" font-size="14.00">Risk Tracking</text>
</a>
</g>
</g>
<!-- node11&#45;&gt;node9 -->
<g id="edge12" class="edge">
<title>node11&#45;&gt;node9</title>
<path fill="none" stroke="black" d="M627.02,-959.1C627.02,-928.56 627.02,-889.6 627.02,-854.92 627.02,-854.92 627.02,-854.92 627.02,-213.34 627.02,-157.27 577.57,-117.45 528.86,-91.82"/>
<polygon fill="black" stroke="black" points="530.29,-88.62 519.79,-87.2 527.11,-94.86 530.29,-88.62"/>
<text text-anchor="middle" x="681.02" y="-530.43" font-family="Times,serif" font-size="14.00">in construction</text>
</g>
<!-- node12 -->
<g id="node13" class="node">
<title>node12</title>
<g id="a_node13"><a xlink:href="safety_status/scenario.html" xlink:title="&lt;TABLE&gt;">
<ellipse fill="none" stroke="black" cx="738.02" cy="-853.92" rx="82.96" ry="54.39"/>
<image xlink:href="safety_status/volumetric_thumb.svg" width="46px" height="46px" preserveAspectRatio="xMinYMin meet" x="715.516" y="-885.919"/>
<text text-anchor="start" x="690.02" y="-824.72" font-family="Times,serif" font-size="14.00">Safety Status</text>
</a>
</g>
</g>
<!-- node11&#45;&gt;node12 -->
<g id="edge14" class="edge">
<title>node11&#45;&gt;node12</title>
<path fill="none" stroke="black" d="M661.23,-964.15C672.83,-947.64 685.9,-929.05 697.92,-911.95"/>
<polygon fill="black" stroke="black" points="700.84,-913.89 703.73,-903.69 695.11,-909.86 700.84,-913.89"/>
<text text-anchor="middle" x="723.02" y="-930.17" font-family="Times,serif" font-size="14.00">risk status</text>
</g>
<!-- node11&#45;&gt;node15 -->
<g id="edge13" class="edge">
<title>node11&#45;&gt;node15</title>
<path fill="none" stroke="black" d="M561.61,-979.71C514.66,-955.96 450.97,-923.72 400.07,-897.96"/>
<polygon fill="black" stroke="black" points="401.55,-894.79 391.05,-893.4 398.39,-901.04 401.55,-894.79"/>
<text text-anchor="middle" x="502.52" y="-930.17" font-family="Times,serif" font-size="14.00">issues</text>
</g>
<!-- node13&#45;&gt;node4 -->
<g id="edge15" class="edge">
<title>node13&#45;&gt;node4</title>
<path fill="none" stroke="black" d="M266.97,-1290.7C246.17,-1270.92 221.15,-1247.13 199.2,-1226.25"/>
<polygon fill="black" stroke="black" points="201.55,-1223.65 191.89,-1219.29 196.72,-1228.72 201.55,-1223.65"/>
<text text-anchor="middle" x="280.52" y="-1249.96" font-family="Times,serif" font-size="14.00">task shadows</text>
</g>
<!-- node14&#45;&gt;node6 -->
<g id="edge16" class="edge">
<title>node14&#45;&gt;node6</title>
<path fill="none" stroke="black" d="M225.63,-319.78C224.8,-306.66 223.9,-292.49 223.04,-278.95"/>
<polygon fill="black" stroke="black" points="226.52,-278.5 222.4,-268.74 219.54,-278.94 226.52,-278.5"/>
<text text-anchor="middle" x="269.52" y="-290.59" font-family="Times,serif" font-size="14.00">visualization</text>
</g>
<!-- node18 -->
<g id="node19" class="node">
<title>node18</title>
<g id="a_node19"><a xlink:href="uxv_recording/scenario.html" xlink:title="&lt;TABLE&gt;">
<ellipse fill="none" stroke="black" cx="273.02" cy="-694.02" rx="91.43" ry="54.39"/>
<image xlink:href="uxv_recording/volumetric_thumb.svg" width="46px" height="46px" preserveAspectRatio="xMinYMin meet" x="250.516" y="-726.025"/>
<text text-anchor="start" x="219.02" y="-664.82" font-family="Times,serif" font-size="14.00">UXV Recording</text>
</a>
</g>
</g>
<!-- node15&#45;&gt;node18 -->
<g id="edge17" class="edge">
<title>node15&#45;&gt;node18</title>
<path fill="none" stroke="black" d="M300.91,-799.9C297.33,-786.42 293.44,-771.81 289.74,-757.89"/>
<polygon fill="black" stroke="black" points="293.03,-756.67 287.08,-747.9 286.27,-758.46 293.03,-756.67"/>
<text text-anchor="middle" x="335.52" y="-770.27" font-family="Times,serif" font-size="14.00">focus spots</text>
</g>
<!-- node16 -->
<g id="node17" class="node">
<title>node16</title>
<g id="a_node17"><a xlink:href="truck_guidance/scenario.html" xlink:title="&lt;TABLE&gt;">
<ellipse fill="none" stroke="black" cx="339.02" cy="-1173.71" rx="91.85" ry="54.39"/>
<image xlink:href="truck_guidance/volumetric_thumb.svg" width="46px" height="46px" preserveAspectRatio="xMinYMin meet" x="316.016" y="-1205.71"/>
<text text-anchor="start" x="284.02" y="-1144.51" font-family="Times,serif" font-size="14.00">Truck guidance</text>
</a>
</g>
</g>
<!-- node16&#45;&gt;node7 -->
<g id="edge18" class="edge">
<title>node16&#45;&gt;node7</title>
<path fill="none" stroke="black" d="M339.02,-1119.25C339.02,-1106.21 339.02,-1092.12 339.02,-1078.64"/>
<polygon fill="black" stroke="black" points="342.52,-1078.48 339.02,-1068.48 335.52,-1078.48 342.52,-1078.48"/>
<text text-anchor="middle" x="366.02" y="-1090.06" font-family="Times,serif" font-size="14.00">specific</text>
</g>
<!-- node17 -->
<g id="node18" class="node">
<title>node17</title>
<g id="a_node18"><a xlink:href="unique_resource_identification/scenario.html" xlink:title="&lt;TABLE&gt;">
<ellipse fill="none" stroke="black" cx="585.02" cy="-1493.5" rx="171.24" ry="54.39"/>
<image xlink:href="unique_resource_identification/volumetric_thumb.svg" width="46px" height="46px" preserveAspectRatio="xMinYMin meet" x="562.016" y="-1525.5"/>
<text text-anchor="start" x="474.02" y="-1464.3" font-family="Times,serif" font-size="14.00">Unique Resource Identification</text>
</a>
</g>
</g>
<!-- node18&#45;&gt;node3 -->
<g id="edge19" class="edge">
<title>node18&#45;&gt;node3</title>
<path fill="none" stroke="black" d="M272,-639.57C271.75,-626.52 271.48,-612.44 271.23,-598.96"/>
<polygon fill="black" stroke="black" points="274.72,-598.73 271.04,-588.8 267.73,-598.86 274.72,-598.73"/>
<text text-anchor="middle" x="317.02" y="-610.38" font-family="Times,serif" font-size="14.00">observations</text>
</g>
<!-- node19&#45;&gt;node15 -->
<g id="edge20" class="edge">
<title>node19&#45;&gt;node15</title>
<path fill="none" stroke="black" d="M202.32,-965.44C220.15,-947.96 240.49,-928 258.95,-909.9"/>
<polygon fill="black" stroke="black" points="261.5,-912.31 266.19,-902.81 256.6,-907.31 261.5,-912.31"/>
<text text-anchor="middle" x="261.52" y="-930.17" font-family="Times,serif" font-size="14.00">issues</text>
</g>
</g>
</svg>
