<?xml version="1.0" encoding="UTF-8" standalone="no"?>
<!DOCTYPE svg PUBLIC "-//W3C//DTD SVG 1.1//EN"
 "http://www.w3.org/Graphics/SVG/1.1/DTD/svg11.dtd">
<!-- Generated by graphviz version 2.40.1 (20161225.0304)
 -->
<!-- Title: G Pages: 1 -->
<svg width="701pt" height="827pt"
 viewBox="0.00 0.00 701.09 827.00" xmlns="http://www.w3.org/2000/svg" xmlns:xlink="http://www.w3.org/1999/xlink">
<g id="graph0" class="graph" transform="scale(1 1) rotate(0) translate(4 823)">
<title>G</title>
<polygon fill="#ffffff" stroke="transparent" points="-4,4 -4,-823 697.0865,-823 697.0865,4 -4,4"/>
<!-- node0 -->
<g id="node1" class="node">
<title>node0</title>
<g id="a_node1"><a xlink:href="actor_management/scenario.html" xlink:title="Actor Management">
<ellipse fill="none" stroke="#000000" cx="100.7411" cy="-801" rx="100.9827" ry="18"/>
<text text-anchor="middle" x="100.7411" y="-797.3" font-family="Times,serif" font-size="14.00" fill="#000000">Actor Management</text>
</a>
</g>
</g>
<!-- node2 -->
<g id="node3" class="node">
<title>node2</title>
<g id="a_node3"><a xlink:href="evolving_plan/scenario.html" xlink:title="Evolving Plan">
<ellipse fill="none" stroke="#000000" cx="191.7411" cy="-714" rx="74.9875" ry="18"/>
<text text-anchor="middle" x="191.7411" y="-710.3" font-family="Times,serif" font-size="14.00" fill="#000000">Evolving Plan</text>
</a>
</g>
</g>
<!-- node0&#45;&gt;node2 -->
<g id="edge1" class="edge">
<title>node0&#45;&gt;node2</title>
<path fill="none" stroke="#000000" d="M119.5963,-782.9735C132.9846,-770.1738 151.125,-752.8308 165.8658,-738.7379"/>
<polygon fill="#000000" stroke="#000000" points="168.4118,-741.146 173.2213,-731.7057 163.5745,-736.0863 168.4118,-741.146"/>
<text text-anchor="middle" x="174.7411" y="-753.8" font-family="Times,serif" font-size="14.00" fill="#000000">actors</text>
</g>
<!-- node1 -->
<g id="node2" class="node">
<title>node1</title>
<g id="a_node2"><a xlink:href="digital_reconstruction/scenario.html" xlink:title="Digital Reconstruction">
<ellipse fill="none" stroke="#000000" cx="260.7411" cy="-366" rx="116.1796" ry="18"/>
<text text-anchor="middle" x="260.7411" y="-362.3" font-family="Times,serif" font-size="14.00" fill="#000000">Digital Reconstruction</text>
</a>
</g>
</g>
<!-- node9 -->
<g id="node10" class="node">
<title>node9</title>
<g id="a_node10"><a xlink:href="thermal_inspection/scenario.html" xlink:title="Thermal Inspection">
<ellipse fill="none" stroke="#000000" cx="298.7411" cy="-279" rx="102.0819" ry="18"/>
<text text-anchor="middle" x="298.7411" y="-275.3" font-family="Times,serif" font-size="14.00" fill="#000000">Thermal Inspection</text>
</a>
</g>
</g>
<!-- node1&#45;&gt;node9 -->
<g id="edge3" class="edge">
<title>node1&#45;&gt;node9</title>
<path fill="none" stroke="#000000" d="M268.6147,-347.9735C273.8626,-335.9585 280.8592,-319.9401 286.7887,-306.3646"/>
<polygon fill="#000000" stroke="#000000" points="290.0822,-307.5683 290.8775,-297.0034 283.6674,-304.7664 290.0822,-307.5683"/>
<text text-anchor="middle" x="327.7411" y="-318.8" font-family="Times,serif" font-size="14.00" fill="#000000">observations</text>
</g>
<!-- node14 -->
<g id="node15" class="node">
<title>node14</title>
<g id="a_node15"><a xlink:href="virtual_inspection/scenario.html" xlink:title="Virtual Inspection">
<ellipse fill="none" stroke="#000000" cx="191.7411" cy="-627" rx="94.7833" ry="18"/>
<text text-anchor="middle" x="191.7411" y="-623.3" font-family="Times,serif" font-size="14.00" fill="#000000">Virtual Inspection</text>
</a>
</g>
</g>
<!-- node1&#45;&gt;node14 -->
<g id="edge2" class="edge">
<title>node1&#45;&gt;node14</title>
<path fill="none" stroke="#000000" d="M212.4262,-382.422C188.4186,-393.3138 161.6317,-410.2426 147.7411,-435 117.6104,-488.7021 151.6347,-561.8485 174.4705,-600.5173"/>
<polygon fill="#000000" stroke="#000000" points="171.5199,-602.4014 179.7081,-609.1248 177.4998,-598.7627 171.5199,-602.4014"/>
<text text-anchor="middle" x="183.7411" y="-492.8" font-family="Times,serif" font-size="14.00" fill="#000000">observations</text>
</g>
<!-- node2&#45;&gt;node14 -->
<g id="edge4" class="edge">
<title>node2&#45;&gt;node14</title>
<path fill="none" stroke="#000000" d="M191.7411,-695.9735C191.7411,-684.1918 191.7411,-668.5607 191.7411,-655.1581"/>
<polygon fill="#000000" stroke="#000000" points="195.2412,-655.0033 191.7411,-645.0034 188.2412,-655.0034 195.2412,-655.0033"/>
<text text-anchor="middle" x="207.2411" y="-666.8" font-family="Times,serif" font-size="14.00" fill="#000000">BIM</text>
</g>
<!-- node3 -->
<g id="node4" class="node">
<title>node3</title>
<g id="a_node4"><a xlink:href="fall_risk/scenario.html" xlink:title="Fall Risk">
<ellipse fill="none" stroke="#000000" cx="641.7411" cy="-192" rx="51.1914" ry="18"/>
<text text-anchor="middle" x="641.7411" y="-188.3" font-family="Times,serif" font-size="14.00" fill="#000000">Fall Risk</text>
</a>
</g>
</g>
<!-- node6 -->
<g id="node7" class="node">
<title>node6</title>
<g id="a_node7"><a xlink:href="risk_management/scenario.html" xlink:title="Risk Management">
<ellipse fill="none" stroke="#000000" cx="506.7411" cy="-105" rx="94.7833" ry="18"/>
<text text-anchor="middle" x="506.7411" y="-101.3" font-family="Times,serif" font-size="14.00" fill="#000000">Risk Management</text>
</a>
</g>
</g>
<!-- node3&#45;&gt;node6 -->
<g id="edge5" class="edge">
<title>node3&#45;&gt;node6</title>
<path fill="none" stroke="#000000" d="M622.2664,-175.1246C609.7175,-164.6603 592.8005,-151.297 576.7411,-141 568.8841,-135.9623 560.2372,-131.0503 551.7811,-126.5555"/>
<polygon fill="#000000" stroke="#000000" points="553.2146,-123.3562 542.7265,-121.8556 549.9897,-129.5691 553.2146,-123.3562"/>
<text text-anchor="middle" x="624.7411" y="-144.8" font-family="Times,serif" font-size="14.00" fill="#000000">specific</text>
</g>
<!-- node4 -->
<g id="node5" class="node">
<title>node4</title>
<g id="a_node5"><a xlink:href="fire_risk/scenario.html" xlink:title="Fire Risk">
<ellipse fill="none" stroke="#000000" cx="358.7411" cy="-192" rx="53.0913" ry="18"/>
<text text-anchor="middle" x="358.7411" y="-188.3" font-family="Times,serif" font-size="14.00" fill="#000000">Fire Risk</text>
</a>
</g>
</g>
<!-- node4&#45;&gt;node6 -->
<g id="edge6" class="edge">
<title>node4&#45;&gt;node6</title>
<path fill="none" stroke="#000000" d="M362.8808,-173.603C366.2375,-162.6908 372.0496,-149.3938 381.7411,-141 390.1428,-133.7232 410.5641,-126.72 432.5196,-120.8557"/>
<polygon fill="#000000" stroke="#000000" points="433.5215,-124.212 442.3335,-118.3299 431.7767,-117.4329 433.5215,-124.212"/>
<text text-anchor="middle" x="409.7411" y="-144.8" font-family="Times,serif" font-size="14.00" fill="#000000">specific</text>
</g>
<!-- node5 -->
<g id="node6" class="node">
<title>node5</title>
<g id="a_node6"><a xlink:href="manual_snapshots/scenario.html" xlink:title="Manual Snapshots">
<ellipse fill="none" stroke="#000000" cx="253.7411" cy="-453" rx="96.6831" ry="18"/>
<text text-anchor="middle" x="253.7411" y="-449.3" font-family="Times,serif" font-size="14.00" fill="#000000">Manual Snapshots</text>
</a>
</g>
</g>
<!-- node5&#45;&gt;node1 -->
<g id="edge7" class="edge">
<title>node5&#45;&gt;node1</title>
<path fill="none" stroke="#000000" d="M255.1915,-434.9735C256.1394,-423.1918 257.3971,-407.5607 258.4755,-394.1581"/>
<polygon fill="#000000" stroke="#000000" points="261.9791,-394.2519 259.2925,-384.0034 255.0017,-393.6904 261.9791,-394.2519"/>
<text text-anchor="middle" x="282.7411" y="-405.8" font-family="Times,serif" font-size="14.00" fill="#000000">images</text>
</g>
<!-- node7 -->
<g id="node8" class="node">
<title>node7</title>
<g id="a_node8"><a xlink:href="safety_status/scenario.html" xlink:title="Safety Status">
<ellipse fill="none" stroke="#000000" cx="506.7411" cy="-18" rx="73.387" ry="18"/>
<text text-anchor="middle" x="506.7411" y="-14.3" font-family="Times,serif" font-size="14.00" fill="#000000">Safety Status</text>
</a>
</g>
</g>
<!-- node6&#45;&gt;node7 -->
<g id="edge10" class="edge">
<title>node6&#45;&gt;node7</title>
<path fill="none" stroke="#000000" d="M506.7411,-86.9735C506.7411,-75.1918 506.7411,-59.5607 506.7411,-46.1581"/>
<polygon fill="#000000" stroke="#000000" points="510.2412,-46.0033 506.7411,-36.0034 503.2412,-46.0034 510.2412,-46.0033"/>
<text text-anchor="middle" x="545.2411" y="-57.8" font-family="Times,serif" font-size="14.00" fill="#000000">risk status</text>
</g>
<!-- node10 -->
<g id="node11" class="node">
<title>node10</title>
<g id="a_node11"><a xlink:href="topic_management/scenario.html" xlink:title="Topic Management">
<ellipse fill="none" stroke="#000000" cx="451.7411" cy="-540" rx="100.1823" ry="18"/>
<text text-anchor="middle" x="451.7411" y="-536.3" font-family="Times,serif" font-size="14.00" fill="#000000">Topic Management</text>
</a>
</g>
</g>
<!-- node6&#45;&gt;node10 -->
<g id="edge9" class="edge">
<title>node6&#45;&gt;node10</title>
<path fill="none" stroke="#000000" d="M526.9583,-122.8907C542.9989,-139.1452 562.7411,-164.6967 562.7411,-192 562.7411,-453 562.7411,-453 562.7411,-453 562.7411,-478.2435 556.1125,-486.6875 537.7411,-504 530.8343,-510.5086 522.5801,-515.9243 513.9579,-520.4062"/>
<polygon fill="#000000" stroke="#000000" points="512.3931,-517.2749 504.8805,-524.7456 515.4122,-523.5903 512.3931,-517.2749"/>
<text text-anchor="middle" x="585.2411" y="-318.8" font-family="Times,serif" font-size="14.00" fill="#000000">issues</text>
</g>
<!-- node13 -->
<g id="node14" class="node">
<title>node13</title>
<g id="a_node14"><a xlink:href="uxv_recording/scenario.html" xlink:title="UXV Recording">
<ellipse fill="none" stroke="#000000" cx="451.7411" cy="-453" rx="83.3857" ry="18"/>
<text text-anchor="middle" x="451.7411" y="-449.3" font-family="Times,serif" font-size="14.00" fill="#000000">UXV Recording</text>
</a>
</g>
</g>
<!-- node6&#45;&gt;node13 -->
<g id="edge8" class="edge">
<title>node6&#45;&gt;node13</title>
<path fill="none" stroke="#000000" d="M487.1953,-122.6405C471.3867,-138.924 451.7411,-164.66 451.7411,-192 451.7411,-366 451.7411,-366 451.7411,-366 451.7411,-385.4525 451.7411,-407.3516 451.7411,-424.3123"/>
<polygon fill="#000000" stroke="#000000" points="448.2412,-424.6694 451.7411,-434.6694 455.2412,-424.6695 448.2412,-424.6694"/>
<text text-anchor="middle" x="492.7411" y="-275.3" font-family="Times,serif" font-size="14.00" fill="#000000">focus spots</text>
</g>
<!-- node8 -->
<g id="node9" class="node">
<title>node8</title>
<g id="a_node9"><a xlink:href="scheduling/scenario.html" xlink:title="Scheduling">
<ellipse fill="none" stroke="#000000" cx="282.7411" cy="-801" rx="63.0888" ry="18"/>
<text text-anchor="middle" x="282.7411" y="-797.3" font-family="Times,serif" font-size="14.00" fill="#000000">Scheduling</text>
</a>
</g>
</g>
<!-- node8&#45;&gt;node2 -->
<g id="edge11" class="edge">
<title>node8&#45;&gt;node2</title>
<path fill="none" stroke="#000000" d="M264.3259,-783.3943C250.8813,-770.5407 232.4762,-752.9446 217.5639,-738.6878"/>
<polygon fill="#000000" stroke="#000000" points="219.7757,-735.9602 210.1289,-731.5796 214.9384,-741.0199 219.7757,-735.9602"/>
<text text-anchor="middle" x="290.2411" y="-753.8" font-family="Times,serif" font-size="14.00" fill="#000000">task shadows</text>
</g>
<!-- node9&#45;&gt;node4 -->
<g id="edge12" class="edge">
<title>node9&#45;&gt;node4</title>
<path fill="none" stroke="#000000" d="M311.1731,-260.9735C319.6766,-248.6435 331.0876,-232.0975 340.6017,-218.3021"/>
<polygon fill="#000000" stroke="#000000" points="343.7341,-219.9249 346.5302,-209.7057 337.9716,-215.9508 343.7341,-219.9249"/>
<text text-anchor="middle" x="377.2411" y="-231.8" font-family="Times,serif" font-size="14.00" fill="#000000">visualization</text>
</g>
<!-- node10&#45;&gt;node13 -->
<g id="edge13" class="edge">
<title>node10&#45;&gt;node13</title>
<path fill="none" stroke="#000000" d="M451.7411,-521.9735C451.7411,-510.1918 451.7411,-494.5607 451.7411,-481.1581"/>
<polygon fill="#000000" stroke="#000000" points="455.2412,-481.0033 451.7411,-471.0034 448.2412,-481.0034 455.2412,-481.0033"/>
<text text-anchor="middle" x="492.7411" y="-492.8" font-family="Times,serif" font-size="14.00" fill="#000000">focus spots</text>
</g>
<!-- node11 -->
<g id="node12" class="node">
<title>node11</title>
<g id="a_node12"><a xlink:href="truck_guidance/scenario.html" xlink:title="Truck guidance">
<ellipse fill="none" stroke="#000000" cx="451.7411" cy="-627" rx="83.6854" ry="18"/>
<text text-anchor="middle" x="451.7411" y="-623.3" font-family="Times,serif" font-size="14.00" fill="#000000">Truck guidance</text>
</a>
</g>
</g>
<!-- node11&#45;&gt;node10 -->
<g id="edge14" class="edge">
<title>node11&#45;&gt;node10</title>
<path fill="none" stroke="#000000" d="M451.7411,-608.9735C451.7411,-597.1918 451.7411,-581.5607 451.7411,-568.1581"/>
<polygon fill="#000000" stroke="#000000" points="455.2412,-568.0033 451.7411,-558.0034 448.2412,-568.0034 455.2412,-568.0033"/>
<text text-anchor="middle" x="486.7411" y="-579.8" font-family="Times,serif" font-size="14.00" fill="#000000">deliveries</text>
</g>
<!-- node12 -->
<g id="node13" class="node">
<title>node12</title>
<g id="a_node13"><a xlink:href="unique_resource_identification/scenario.html" xlink:title="Unique Resource Identification">
<ellipse fill="none" stroke="#000000" cx="520.7411" cy="-801" rx="156.7723" ry="18"/>
<text text-anchor="middle" x="520.7411" y="-797.3" font-family="Times,serif" font-size="14.00" fill="#000000">Unique Resource Identification</text>
</a>
</g>
</g>
<!-- node13&#45;&gt;node1 -->
<g id="edge15" class="edge">
<title>node13&#45;&gt;node1</title>
<path fill="none" stroke="#000000" d="M402.0749,-438.5523C384.0084,-432.6697 363.6396,-425.2935 345.7411,-417 328.5113,-409.0164 310.3428,-398.44 295.2458,-388.9892"/>
<polygon fill="#000000" stroke="#000000" points="297.0589,-385.9945 286.7421,-383.5829 293.3032,-391.9017 297.0589,-385.9945"/>
<text text-anchor="middle" x="391.7411" y="-405.8" font-family="Times,serif" font-size="14.00" fill="#000000">observations</text>
</g>
<!-- node14&#45;&gt;node10 -->
<g id="edge16" class="edge">
<title>node14&#45;&gt;node10</title>
<path fill="none" stroke="#000000" d="M238.8251,-611.245C282.5435,-596.6161 347.7338,-574.8024 394.4539,-559.1692"/>
<polygon fill="#000000" stroke="#000000" points="395.7562,-562.4242 404.1287,-555.9318 393.5349,-555.786 395.7562,-562.4242"/>
<text text-anchor="middle" x="359.2411" y="-579.8" font-family="Times,serif" font-size="14.00" fill="#000000">issues</text>
</g>
</g>
</svg>
