<?xml version="1.0" encoding="utf-8" standalone="no"?>
<!DOCTYPE svg PUBLIC "-//W3C//DTD SVG 1.1//EN"
  "http://www.w3.org/Graphics/SVG/1.1/DTD/svg11.dtd">
<!-- Created with matplotlib (https://matplotlib.org/) -->
<svg height="255" version="1.1" viewBox="103 61.554 300.49 263.392" width="300" xmlns="http://www.w3.org/2000/svg" xmlns:xlink="http://www.w3.org/1999/xlink">
 <metadata>
  <rdf:RDF xmlns:cc="http://creativecommons.org/ns#" xmlns:dc="http://purl.org/dc/elements/1.1/" xmlns:rdf="http://www.w3.org/1999/02/22-rdf-syntax-ns#">
   <cc:Work>
    <dc:type rdf:resource="http://purl.org/dc/dcmitype/StillImage"/>
    <dc:date>2021-03-17T16:10:02.383942</dc:date>
    <dc:format>image/svg+xml</dc:format>
    <dc:creator>
     <cc:Agent>
      <dc:title>Matplotlib v3.3.4, https://matplotlib.org/</dc:title>
     </cc:Agent>
    </dc:creator>
   </cc:Work>
  </rdf:RDF>
 </metadata>
 <defs>
  <style type="text/css">*{stroke-linecap:butt;stroke-linejoin:round;}</style>
 </defs>
 <g id="figure_1">
  <g id="patch_1">
   <path d="M 0 345.6 
L 460.8 345.6 
L 460.8 0 
L 0 0 
z
" style="fill:#ffffff;"/>
  </g>
  <g id="patch_2">
   <path d="M 103.104 307.584 
L 369.216 307.584 
L 369.216 41.472 
L 103.104 41.472 
z
" style="fill:#ffffff;"/>
  </g>
  <g id="pane3d_1">
   <g id="patch_3">
    <path d="M 123.197291 241.969309 
L 211.076164 168.307495 
L 209.854564 62.073991 
L 117.770234 129.272941 
" style="fill:#f2f2f2;opacity:0.5;stroke:#f2f2f2;stroke-linejoin:miter;"/>
   </g>
  </g>
  <g id="pane3d_2">
   <g id="patch_4">
    <path d="M 211.076164 168.307495 
L 352.090401 209.294766 
L 357.122702 99.402171 
L 209.854564 62.073991 
" style="fill:#e6e6e6;opacity:0.5;stroke:#e6e6e6;stroke-linejoin:miter;"/>
   </g>
  </g>
  <g id="pane3d_3">
   <g id="patch_5">
    <path d="M 123.197291 241.969309 
L 272.679269 290.790123 
L 352.090401 209.294766 
L 211.076164 168.307495 
" style="fill:#ececec;opacity:0.5;stroke:#ececec;stroke-linejoin:miter;"/>
   </g>
  </g>
  <g id="axis3d_1">
   <g id="line2d_1">
    <path d="M 123.197291 241.969309 
L 272.679269 290.790123 
" style="fill:none;stroke:#000000;stroke-linecap:square;stroke-width:0.8;"/>
   </g>
   <g id="Line3DCollection_1">
    <path d="M 132.250704 244.926154 
L 219.652219 170.800215 
L 218.79322 64.33968 
" style="fill:none;stroke:#b0b0b0;stroke-width:0.8;"/>
    <path d="M 157.390529 253.13682 
L 243.442418 177.715087 
L 243.601294 70.627803 
" style="fill:none;stroke:#b0b0b0;stroke-width:0.8;"/>
    <path d="M 182.990962 261.497922 
L 267.632176 184.746095 
L 268.844138 77.026128 
" style="fill:none;stroke:#b0b0b0;stroke-width:0.8;"/>
    <path d="M 209.06478 270.013631 
L 292.231644 191.896189 
L 294.53328 83.537577 
" style="fill:none;stroke:#b0b0b0;stroke-width:0.8;"/>
    <path d="M 235.625236 278.688276 
L 317.25132 199.168421 
L 320.680664 90.165177 
" style="fill:none;stroke:#b0b0b0;stroke-width:0.8;"/>
    <path d="M 262.686081 287.526347 
L 342.702063 206.565947 
L 347.298659 96.912062 
" style="fill:none;stroke:#b0b0b0;stroke-width:0.8;"/>
   </g>
   <g id="xtick_1">
    <g id="line2d_2">
     <path d="M 133.011792 244.280669 
L 130.725263 246.219892 
" style="fill:none;stroke:#000000;stroke-linecap:square;stroke-width:0.8;"/>
    </g>
   </g>
   <g id="xtick_2">
    <g id="line2d_3">
     <path d="M 158.140416 252.479568 
L 155.887507 254.454171 
" style="fill:none;stroke:#000000;stroke-linecap:square;stroke-width:0.8;"/>
    </g>
   </g>
   <g id="xtick_3">
    <g id="line2d_4">
     <path d="M 183.72911 260.828577 
L 181.511441 262.839538 
" style="fill:none;stroke:#000000;stroke-linecap:square;stroke-width:0.8;"/>
    </g>
   </g>
   <g id="xtick_4">
    <g id="line2d_5">
     <path d="M 209.790625 269.331856 
L 207.609891 271.380188 
" style="fill:none;stroke:#000000;stroke-linecap:square;stroke-width:0.8;"/>
    </g>
   </g>
   <g id="xtick_5">
    <g id="line2d_6">
     <path d="M 236.338187 277.993721 
L 234.196161 280.080476 
" style="fill:none;stroke:#000000;stroke-linecap:square;stroke-width:0.8;"/>
    </g>
   </g>
   <g id="xtick_6">
    <g id="line2d_7">
     <path d="M 263.385522 286.818651 
L 261.284057 288.94492 
" style="fill:none;stroke:#000000;stroke-linecap:square;stroke-width:0.8;"/>
    </g>
   </g>
  </g>
  <g id="axis3d_2">
   <g id="line2d_8">
    <path d="M 352.090401 209.294766 
L 272.679269 290.790123 
" style="fill:none;stroke:#000000;stroke-linecap:square;stroke-width:0.8;"/>
   </g>
   <g id="Line3DCollection_2">
    <path d="M 124.138093 124.625967 
L 129.252888 236.893387 
L 278.173905 285.151275 
" style="fill:none;stroke:#b0b0b0;stroke-width:0.8;"/>
    <path d="M 136.398896 115.678592 
L 140.921401 227.112609 
L 288.752062 274.295483 
" style="fill:none;stroke:#b0b0b0;stroke-width:0.8;"/>
    <path d="M 148.383067 106.933089 
L 152.338041 217.542954 
L 299.089871 263.686348 
" style="fill:none;stroke:#b0b0b0;stroke-width:0.8;"/>
    <path d="M 160.099865 98.382704 
L 163.510876 208.177662 
L 309.195429 253.315559 
" style="fill:none;stroke:#b0b0b0;stroke-width:0.8;"/>
    <path d="M 171.558138 90.020978 
L 174.447634 199.010255 
L 319.076477 243.175173 
" style="fill:none;stroke:#b0b0b0;stroke-width:0.8;"/>
    <path d="M 182.766349 81.841737 
L 185.155719 190.034527 
L 328.740415 233.257596 
" style="fill:none;stroke:#b0b0b0;stroke-width:0.8;"/>
    <path d="M 193.732596 73.839069 
L 195.642227 181.244527 
L 338.194319 223.555564 
" style="fill:none;stroke:#b0b0b0;stroke-width:0.8;"/>
    <path d="M 204.46463 66.007319 
L 205.913967 172.634551 
L 347.444965 214.062126 
" style="fill:none;stroke:#b0b0b0;stroke-width:0.8;"/>
   </g>
   <g id="xtick_7">
    <g id="line2d_9">
     <path d="M 276.918943 284.744604 
L 280.687074 285.965668 
" style="fill:none;stroke:#000000;stroke-linecap:square;stroke-width:0.8;"/>
    </g>
   </g>
   <g id="xtick_8">
    <g id="line2d_10">
     <path d="M 287.507014 273.898102 
L 291.245342 275.091259 
" style="fill:none;stroke:#000000;stroke-linecap:square;stroke-width:0.8;"/>
    </g>
   </g>
   <g id="xtick_9">
    <g id="line2d_11">
     <path d="M 297.854612 263.297944 
L 301.56351 264.464138 
" style="fill:none;stroke:#000000;stroke-linecap:square;stroke-width:0.8;"/>
    </g>
   </g>
   <g id="xtick_10">
    <g id="line2d_12">
     <path d="M 307.969837 252.93583 
L 311.649677 254.075966 
" style="fill:none;stroke:#000000;stroke-linecap:square;stroke-width:0.8;"/>
    </g>
   </g>
   <g id="xtick_11">
    <g id="line2d_13">
     <path d="M 317.860429 242.803832 
L 321.511579 243.918774 
" style="fill:none;stroke:#000000;stroke-linecap:square;stroke-width:0.8;"/>
    </g>
   </g>
   <g id="xtick_12">
    <g id="line2d_14">
     <path d="M 327.533789 232.894367 
L 331.156615 233.984941 
" style="fill:none;stroke:#000000;stroke-linecap:square;stroke-width:0.8;"/>
    </g>
   </g>
   <g id="xtick_13">
    <g id="line2d_15">
     <path d="M 336.996996 223.200185 
L 340.59186 224.267181 
" style="fill:none;stroke:#000000;stroke-linecap:square;stroke-width:0.8;"/>
    </g>
   </g>
   <g id="xtick_14">
    <g id="line2d_16">
     <path d="M 346.256825 213.714346 
L 349.824086 214.758519 
" style="fill:none;stroke:#000000;stroke-linecap:square;stroke-width:0.8;"/>
    </g>
   </g>
  </g>
  <g id="axis3d_3">
   <g id="line2d_17">
    <path d="M 352.090401 209.294766 
L 357.122702 99.402171 
" style="fill:none;stroke:#000000;stroke-linecap:square;stroke-width:0.8;"/>
   </g>
   <g id="Line3DCollection_3">
    <path d="M 352.186814 207.189346 
L 211.052711 166.26796 
L 123.093487 239.813739 
" style="fill:none;stroke:#b0b0b0;stroke-width:0.8;"/>
    <path d="M 352.852418 192.654242 
L 210.890852 152.192211 
L 122.376672 224.928624 
" style="fill:none;stroke:#b0b0b0;stroke-width:0.8;"/>
    <path d="M 353.525951 177.946013 
L 210.727156 137.956815 
L 121.650995 209.85946 
" style="fill:none;stroke:#b0b0b0;stroke-width:0.8;"/>
    <path d="M 354.207554 163.061549 
L 210.561593 123.559038 
L 120.916289 194.602813 
" style="fill:none;stroke:#b0b0b0;stroke-width:0.8;"/>
    <path d="M 354.897373 147.997662 
L 210.394131 108.996088 
L 120.172384 179.15516 
" style="fill:none;stroke:#b0b0b0;stroke-width:0.8;"/>
    <path d="M 355.595558 132.751088 
L 210.224736 94.265106 
L 119.419108 163.512893 
" style="fill:none;stroke:#b0b0b0;stroke-width:0.8;"/>
    <path d="M 356.302262 117.318485 
L 210.053376 79.363166 
L 118.656282 147.672311 
" style="fill:none;stroke:#b0b0b0;stroke-width:0.8;"/>
    <path d="M 357.017641 101.696426 
L 209.880015 64.287274 
L 117.883723 131.629618 
" style="fill:none;stroke:#b0b0b0;stroke-width:0.8;"/>
   </g>
   <g id="xtick_15">
    <g id="line2d_18">
     <path d="M 351.002262 206.845889 
L 354.558736 207.877077 
" style="fill:none;stroke:#000000;stroke-linecap:square;stroke-width:0.8;"/>
    </g>
   </g>
   <g id="xtick_16">
    <g id="line2d_19">
     <path d="M 351.660592 192.314546 
L 355.238926 193.334446 
" style="fill:none;stroke:#000000;stroke-linecap:square;stroke-width:0.8;"/>
    </g>
   </g>
   <g id="xtick_17">
    <g id="line2d_20">
     <path d="M 352.326759 177.610193 
L 355.927223 178.618462 
" style="fill:none;stroke:#000000;stroke-linecap:square;stroke-width:0.8;"/>
    </g>
   </g>
   <g id="xtick_18">
    <g id="line2d_21">
     <path d="M 353.000906 162.729722 
L 356.623774 163.726007 
" style="fill:none;stroke:#000000;stroke-linecap:square;stroke-width:0.8;"/>
    </g>
   </g>
   <g id="xtick_19">
    <g id="line2d_22">
     <path d="M 353.683175 147.669949 
L 357.328729 148.653887 
" style="fill:none;stroke:#000000;stroke-linecap:square;stroke-width:0.8;"/>
    </g>
   </g>
   <g id="xtick_20">
    <g id="line2d_23">
     <path d="M 354.373715 132.427614 
L 358.042239 133.398832 
" style="fill:none;stroke:#000000;stroke-linecap:square;stroke-width:0.8;"/>
    </g>
   </g>
   <g id="xtick_21">
    <g id="line2d_24">
     <path d="M 355.072678 116.999377 
L 358.764463 117.957489 
" style="fill:none;stroke:#000000;stroke-linecap:square;stroke-width:0.8;"/>
    </g>
   </g>
   <g id="xtick_22">
    <g id="line2d_25">
     <path d="M 355.780217 101.381816 
L 359.495561 102.326427 
" style="fill:none;stroke:#000000;stroke-linecap:square;stroke-width:0.8;"/>
    </g>
   </g>
  </g>
  <g id="axes_1">
   <g id="Poly3DCollection_1">
    <path clip-path="url(#pdda3bb589d)" d="M 193.838821 190.580933 
L 193.572224 176.229537 
L 217.933499 183.422361 
L 218.060548 197.854671 
z
" style="fill:#0d324b;stroke:#000000;"/>
    <path clip-path="url(#pdda3bb589d)" d="M 182.84827 185.14655 
L 193.572224 176.229537 
L 193.838821 190.580933 
L 183.180256 199.598149 
z
" style="fill:#1b699f;stroke:#000000;"/>
    <path clip-path="url(#pdda3bb589d)" d="M 193.838821 190.580933 
L 218.060548 197.854671 
L 207.56895 207.027682 
L 183.180256 199.598149 
z
" style="fill:#113f60;stroke:#000000;"/>
   </g>
   <g id="text_1">
    <!-- planning -->
    <g style="fill:#008000;" transform="translate(103.249824 286.283176)rotate(-40.693231)scale(0.08 -0.08)">
     <defs>
      <path d="M 18.109375 8.203125 
L 18.109375 -20.796875 
L 9.078125 -20.796875 
L 9.078125 54.6875 
L 18.109375 54.6875 
L 18.109375 46.390625 
Q 20.953125 51.265625 25.265625 53.625 
Q 29.59375 56 35.59375 56 
Q 45.5625 56 51.78125 48.09375 
Q 58.015625 40.1875 58.015625 27.296875 
Q 58.015625 14.40625 51.78125 6.484375 
Q 45.5625 -1.421875 35.59375 -1.421875 
Q 29.59375 -1.421875 25.265625 0.953125 
Q 20.953125 3.328125 18.109375 8.203125 
z
M 48.6875 27.296875 
Q 48.6875 37.203125 44.609375 42.84375 
Q 40.53125 48.484375 33.40625 48.484375 
Q 26.265625 48.484375 22.1875 42.84375 
Q 18.109375 37.203125 18.109375 27.296875 
Q 18.109375 17.390625 22.1875 11.75 
Q 26.265625 6.109375 33.40625 6.109375 
Q 40.53125 6.109375 44.609375 11.75 
Q 48.6875 17.390625 48.6875 27.296875 
z
" id="DejaVuSans-112"/>
      <path d="M 9.421875 75.984375 
L 18.40625 75.984375 
L 18.40625 0 
L 9.421875 0 
z
" id="DejaVuSans-108"/>
      <path d="M 34.28125 27.484375 
Q 23.390625 27.484375 19.1875 25 
Q 14.984375 22.515625 14.984375 16.5 
Q 14.984375 11.71875 18.140625 8.90625 
Q 21.296875 6.109375 26.703125 6.109375 
Q 34.1875 6.109375 38.703125 11.40625 
Q 43.21875 16.703125 43.21875 25.484375 
L 43.21875 27.484375 
z
M 52.203125 31.203125 
L 52.203125 0 
L 43.21875 0 
L 43.21875 8.296875 
Q 40.140625 3.328125 35.546875 0.953125 
Q 30.953125 -1.421875 24.3125 -1.421875 
Q 15.921875 -1.421875 10.953125 3.296875 
Q 6 8.015625 6 15.921875 
Q 6 25.140625 12.171875 29.828125 
Q 18.359375 34.515625 30.609375 34.515625 
L 43.21875 34.515625 
L 43.21875 35.40625 
Q 43.21875 41.609375 39.140625 45 
Q 35.0625 48.390625 27.6875 48.390625 
Q 23 48.390625 18.546875 47.265625 
Q 14.109375 46.140625 10.015625 43.890625 
L 10.015625 52.203125 
Q 14.9375 54.109375 19.578125 55.046875 
Q 24.21875 56 28.609375 56 
Q 40.484375 56 46.34375 49.84375 
Q 52.203125 43.703125 52.203125 31.203125 
z
" id="DejaVuSans-97"/>
      <path d="M 54.890625 33.015625 
L 54.890625 0 
L 45.90625 0 
L 45.90625 32.71875 
Q 45.90625 40.484375 42.875 44.328125 
Q 39.84375 48.1875 33.796875 48.1875 
Q 26.515625 48.1875 22.3125 43.546875 
Q 18.109375 38.921875 18.109375 30.90625 
L 18.109375 0 
L 9.078125 0 
L 9.078125 54.6875 
L 18.109375 54.6875 
L 18.109375 46.1875 
Q 21.34375 51.125 25.703125 53.5625 
Q 30.078125 56 35.796875 56 
Q 45.21875 56 50.046875 50.171875 
Q 54.890625 44.34375 54.890625 33.015625 
z
" id="DejaVuSans-110"/>
      <path d="M 9.421875 54.6875 
L 18.40625 54.6875 
L 18.40625 0 
L 9.421875 0 
z
M 9.421875 75.984375 
L 18.40625 75.984375 
L 18.40625 64.59375 
L 9.421875 64.59375 
z
" id="DejaVuSans-105"/>
      <path d="M 45.40625 27.984375 
Q 45.40625 37.75 41.375 43.109375 
Q 37.359375 48.484375 30.078125 48.484375 
Q 22.859375 48.484375 18.828125 43.109375 
Q 14.796875 37.75 14.796875 27.984375 
Q 14.796875 18.265625 18.828125 12.890625 
Q 22.859375 7.515625 30.078125 7.515625 
Q 37.359375 7.515625 41.375 12.890625 
Q 45.40625 18.265625 45.40625 27.984375 
z
M 54.390625 6.78125 
Q 54.390625 -7.171875 48.1875 -13.984375 
Q 42 -20.796875 29.203125 -20.796875 
Q 24.46875 -20.796875 20.265625 -20.09375 
Q 16.0625 -19.390625 12.109375 -17.921875 
L 12.109375 -9.1875 
Q 16.0625 -11.328125 19.921875 -12.34375 
Q 23.78125 -13.375 27.78125 -13.375 
Q 36.625 -13.375 41.015625 -8.765625 
Q 45.40625 -4.15625 45.40625 5.171875 
L 45.40625 9.625 
Q 42.625 4.78125 38.28125 2.390625 
Q 33.9375 0 27.875 0 
Q 17.828125 0 11.671875 7.65625 
Q 5.515625 15.328125 5.515625 27.984375 
Q 5.515625 40.671875 11.671875 48.328125 
Q 17.828125 56 27.875 56 
Q 33.9375 56 38.28125 53.609375 
Q 42.625 51.21875 45.40625 46.390625 
L 45.40625 54.6875 
L 54.390625 54.6875 
z
" id="DejaVuSans-103"/>
     </defs>
     <use xlink:href="#DejaVuSans-112"/>
     <use x="63.476562" xlink:href="#DejaVuSans-108"/>
     <use x="91.259766" xlink:href="#DejaVuSans-97"/>
     <use x="152.539062" xlink:href="#DejaVuSans-110"/>
     <use x="215.917969" xlink:href="#DejaVuSans-110"/>
     <use x="279.296875" xlink:href="#DejaVuSans-105"/>
     <use x="307.080078" xlink:href="#DejaVuSans-110"/>
     <use x="370.458984" xlink:href="#DejaVuSans-103"/>
    </g>
   </g>
   <g id="text_2">
    <!-- construction -->
    <g style="fill:#008000;" transform="translate(129.388014 295.305888)rotate(-41.643464)scale(0.08 -0.08)">
     <defs>
      <path d="M 48.78125 52.59375 
L 48.78125 44.1875 
Q 44.96875 46.296875 41.140625 47.34375 
Q 37.3125 48.390625 33.40625 48.390625 
Q 24.65625 48.390625 19.8125 42.84375 
Q 14.984375 37.3125 14.984375 27.296875 
Q 14.984375 17.28125 19.8125 11.734375 
Q 24.65625 6.203125 33.40625 6.203125 
Q 37.3125 6.203125 41.140625 7.25 
Q 44.96875 8.296875 48.78125 10.40625 
L 48.78125 2.09375 
Q 45.015625 0.34375 40.984375 -0.53125 
Q 36.96875 -1.421875 32.421875 -1.421875 
Q 20.0625 -1.421875 12.78125 6.34375 
Q 5.515625 14.109375 5.515625 27.296875 
Q 5.515625 40.671875 12.859375 48.328125 
Q 20.21875 56 33.015625 56 
Q 37.15625 56 41.109375 55.140625 
Q 45.0625 54.296875 48.78125 52.59375 
z
" id="DejaVuSans-99"/>
      <path d="M 30.609375 48.390625 
Q 23.390625 48.390625 19.1875 42.75 
Q 14.984375 37.109375 14.984375 27.296875 
Q 14.984375 17.484375 19.15625 11.84375 
Q 23.34375 6.203125 30.609375 6.203125 
Q 37.796875 6.203125 41.984375 11.859375 
Q 46.1875 17.53125 46.1875 27.296875 
Q 46.1875 37.015625 41.984375 42.703125 
Q 37.796875 48.390625 30.609375 48.390625 
z
M 30.609375 56 
Q 42.328125 56 49.015625 48.375 
Q 55.71875 40.765625 55.71875 27.296875 
Q 55.71875 13.875 49.015625 6.21875 
Q 42.328125 -1.421875 30.609375 -1.421875 
Q 18.84375 -1.421875 12.171875 6.21875 
Q 5.515625 13.875 5.515625 27.296875 
Q 5.515625 40.765625 12.171875 48.375 
Q 18.84375 56 30.609375 56 
z
" id="DejaVuSans-111"/>
      <path d="M 44.28125 53.078125 
L 44.28125 44.578125 
Q 40.484375 46.53125 36.375 47.5 
Q 32.28125 48.484375 27.875 48.484375 
Q 21.1875 48.484375 17.84375 46.4375 
Q 14.5 44.390625 14.5 40.28125 
Q 14.5 37.15625 16.890625 35.375 
Q 19.28125 33.59375 26.515625 31.984375 
L 29.59375 31.296875 
Q 39.15625 29.25 43.1875 25.515625 
Q 47.21875 21.78125 47.21875 15.09375 
Q 47.21875 7.46875 41.1875 3.015625 
Q 35.15625 -1.421875 24.609375 -1.421875 
Q 20.21875 -1.421875 15.453125 -0.5625 
Q 10.6875 0.296875 5.421875 2 
L 5.421875 11.28125 
Q 10.40625 8.6875 15.234375 7.390625 
Q 20.0625 6.109375 24.8125 6.109375 
Q 31.15625 6.109375 34.5625 8.28125 
Q 37.984375 10.453125 37.984375 14.40625 
Q 37.984375 18.0625 35.515625 20.015625 
Q 33.0625 21.96875 24.703125 23.78125 
L 21.578125 24.515625 
Q 13.234375 26.265625 9.515625 29.90625 
Q 5.8125 33.546875 5.8125 39.890625 
Q 5.8125 47.609375 11.28125 51.796875 
Q 16.75 56 26.8125 56 
Q 31.78125 56 36.171875 55.265625 
Q 40.578125 54.546875 44.28125 53.078125 
z
" id="DejaVuSans-115"/>
      <path d="M 18.3125 70.21875 
L 18.3125 54.6875 
L 36.8125 54.6875 
L 36.8125 47.703125 
L 18.3125 47.703125 
L 18.3125 18.015625 
Q 18.3125 11.328125 20.140625 9.421875 
Q 21.96875 7.515625 27.59375 7.515625 
L 36.8125 7.515625 
L 36.8125 0 
L 27.59375 0 
Q 17.1875 0 13.234375 3.875 
Q 9.28125 7.765625 9.28125 18.015625 
L 9.28125 47.703125 
L 2.6875 47.703125 
L 2.6875 54.6875 
L 9.28125 54.6875 
L 9.28125 70.21875 
z
" id="DejaVuSans-116"/>
      <path d="M 41.109375 46.296875 
Q 39.59375 47.171875 37.8125 47.578125 
Q 36.03125 48 33.890625 48 
Q 26.265625 48 22.1875 43.046875 
Q 18.109375 38.09375 18.109375 28.8125 
L 18.109375 0 
L 9.078125 0 
L 9.078125 54.6875 
L 18.109375 54.6875 
L 18.109375 46.1875 
Q 20.953125 51.171875 25.484375 53.578125 
Q 30.03125 56 36.53125 56 
Q 37.453125 56 38.578125 55.875 
Q 39.703125 55.765625 41.0625 55.515625 
z
" id="DejaVuSans-114"/>
      <path d="M 8.5 21.578125 
L 8.5 54.6875 
L 17.484375 54.6875 
L 17.484375 21.921875 
Q 17.484375 14.15625 20.5 10.265625 
Q 23.53125 6.390625 29.59375 6.390625 
Q 36.859375 6.390625 41.078125 11.03125 
Q 45.3125 15.671875 45.3125 23.6875 
L 45.3125 54.6875 
L 54.296875 54.6875 
L 54.296875 0 
L 45.3125 0 
L 45.3125 8.40625 
Q 42.046875 3.421875 37.71875 1 
Q 33.40625 -1.421875 27.6875 -1.421875 
Q 18.265625 -1.421875 13.375 4.4375 
Q 8.5 10.296875 8.5 21.578125 
z
M 31.109375 56 
z
" id="DejaVuSans-117"/>
     </defs>
     <use xlink:href="#DejaVuSans-99"/>
     <use x="54.980469" xlink:href="#DejaVuSans-111"/>
     <use x="116.162109" xlink:href="#DejaVuSans-110"/>
     <use x="179.541016" xlink:href="#DejaVuSans-115"/>
     <use x="231.640625" xlink:href="#DejaVuSans-116"/>
     <use x="270.849609" xlink:href="#DejaVuSans-114"/>
     <use x="311.962891" xlink:href="#DejaVuSans-117"/>
     <use x="375.341797" xlink:href="#DejaVuSans-99"/>
     <use x="430.322266" xlink:href="#DejaVuSans-116"/>
     <use x="469.53125" xlink:href="#DejaVuSans-105"/>
     <use x="497.314453" xlink:href="#DejaVuSans-111"/>
     <use x="558.496094" xlink:href="#DejaVuSans-110"/>
    </g>
   </g>
   <g id="text_3">
    <!-- operation -->
    <g style="fill:#008000;" transform="translate(156.029188 304.502839)rotate(-42.630514)scale(0.08 -0.08)">
     <defs>
      <path d="M 56.203125 29.59375 
L 56.203125 25.203125 
L 14.890625 25.203125 
Q 15.484375 15.921875 20.484375 11.0625 
Q 25.484375 6.203125 34.421875 6.203125 
Q 39.59375 6.203125 44.453125 7.46875 
Q 49.3125 8.734375 54.109375 11.28125 
L 54.109375 2.78125 
Q 49.265625 0.734375 44.1875 -0.34375 
Q 39.109375 -1.421875 33.890625 -1.421875 
Q 20.796875 -1.421875 13.15625 6.1875 
Q 5.515625 13.8125 5.515625 26.8125 
Q 5.515625 40.234375 12.765625 48.109375 
Q 20.015625 56 32.328125 56 
Q 43.359375 56 49.78125 48.890625 
Q 56.203125 41.796875 56.203125 29.59375 
z
M 47.21875 32.234375 
Q 47.125 39.59375 43.09375 43.984375 
Q 39.0625 48.390625 32.421875 48.390625 
Q 24.90625 48.390625 20.390625 44.140625 
Q 15.875 39.890625 15.1875 32.171875 
z
" id="DejaVuSans-101"/>
     </defs>
     <use xlink:href="#DejaVuSans-111"/>
     <use x="61.181641" xlink:href="#DejaVuSans-112"/>
     <use x="124.658203" xlink:href="#DejaVuSans-101"/>
     <use x="186.181641" xlink:href="#DejaVuSans-114"/>
     <use x="227.294922" xlink:href="#DejaVuSans-97"/>
     <use x="288.574219" xlink:href="#DejaVuSans-116"/>
     <use x="327.783203" xlink:href="#DejaVuSans-105"/>
     <use x="355.566406" xlink:href="#DejaVuSans-111"/>
     <use x="416.748047" xlink:href="#DejaVuSans-110"/>
    </g>
   </g>
   <g id="text_4">
    <!-- renovation -->
    <g style="fill:#008000;" transform="translate(183.187908 313.879139)rotate(-43.65594)scale(0.08 -0.08)">
     <defs>
      <path d="M 2.984375 54.6875 
L 12.5 54.6875 
L 29.59375 8.796875 
L 46.6875 54.6875 
L 56.203125 54.6875 
L 35.6875 0 
L 23.484375 0 
z
" id="DejaVuSans-118"/>
     </defs>
     <use xlink:href="#DejaVuSans-114"/>
     <use x="38.863281" xlink:href="#DejaVuSans-101"/>
     <use x="100.386719" xlink:href="#DejaVuSans-110"/>
     <use x="163.765625" xlink:href="#DejaVuSans-111"/>
     <use x="224.947266" xlink:href="#DejaVuSans-118"/>
     <use x="284.126953" xlink:href="#DejaVuSans-97"/>
     <use x="345.40625" xlink:href="#DejaVuSans-116"/>
     <use x="384.615234" xlink:href="#DejaVuSans-105"/>
     <use x="412.398438" xlink:href="#DejaVuSans-111"/>
     <use x="473.580078" xlink:href="#DejaVuSans-110"/>
    </g>
   </g>
   <g id="text_5">
    <!-- demolition -->
    <g style="fill:#008000;" transform="translate(210.879289 323.440098)rotate(-44.721329)scale(0.08 -0.08)">
     <defs>
      <path d="M 45.40625 46.390625 
L 45.40625 75.984375 
L 54.390625 75.984375 
L 54.390625 0 
L 45.40625 0 
L 45.40625 8.203125 
Q 42.578125 3.328125 38.25 0.953125 
Q 33.9375 -1.421875 27.875 -1.421875 
Q 17.96875 -1.421875 11.734375 6.484375 
Q 5.515625 14.40625 5.515625 27.296875 
Q 5.515625 40.1875 11.734375 48.09375 
Q 17.96875 56 27.875 56 
Q 33.9375 56 38.25 53.625 
Q 42.578125 51.265625 45.40625 46.390625 
z
M 14.796875 27.296875 
Q 14.796875 17.390625 18.875 11.75 
Q 22.953125 6.109375 30.078125 6.109375 
Q 37.203125 6.109375 41.296875 11.75 
Q 45.40625 17.390625 45.40625 27.296875 
Q 45.40625 37.203125 41.296875 42.84375 
Q 37.203125 48.484375 30.078125 48.484375 
Q 22.953125 48.484375 18.875 42.84375 
Q 14.796875 37.203125 14.796875 27.296875 
z
" id="DejaVuSans-100"/>
      <path d="M 52 44.1875 
Q 55.375 50.25 60.0625 53.125 
Q 64.75 56 71.09375 56 
Q 79.640625 56 84.28125 50.015625 
Q 88.921875 44.046875 88.921875 33.015625 
L 88.921875 0 
L 79.890625 0 
L 79.890625 32.71875 
Q 79.890625 40.578125 77.09375 44.375 
Q 74.3125 48.1875 68.609375 48.1875 
Q 61.625 48.1875 57.5625 43.546875 
Q 53.515625 38.921875 53.515625 30.90625 
L 53.515625 0 
L 44.484375 0 
L 44.484375 32.71875 
Q 44.484375 40.625 41.703125 44.40625 
Q 38.921875 48.1875 33.109375 48.1875 
Q 26.21875 48.1875 22.15625 43.53125 
Q 18.109375 38.875 18.109375 30.90625 
L 18.109375 0 
L 9.078125 0 
L 9.078125 54.6875 
L 18.109375 54.6875 
L 18.109375 46.1875 
Q 21.1875 51.21875 25.484375 53.609375 
Q 29.78125 56 35.6875 56 
Q 41.65625 56 45.828125 52.96875 
Q 50 49.953125 52 44.1875 
z
" id="DejaVuSans-109"/>
     </defs>
     <use xlink:href="#DejaVuSans-100"/>
     <use x="63.476562" xlink:href="#DejaVuSans-101"/>
     <use x="125" xlink:href="#DejaVuSans-109"/>
     <use x="222.412109" xlink:href="#DejaVuSans-111"/>
     <use x="283.59375" xlink:href="#DejaVuSans-108"/>
     <use x="311.376953" xlink:href="#DejaVuSans-105"/>
     <use x="339.160156" xlink:href="#DejaVuSans-116"/>
     <use x="378.369141" xlink:href="#DejaVuSans-105"/>
     <use x="406.152344" xlink:href="#DejaVuSans-111"/>
     <use x="467.333984" xlink:href="#DejaVuSans-110"/>
    </g>
   </g>
   <g id="text_6">
    <!-- device -->
    <g style="fill:#ff0000;" transform="translate(287.435545 285.91522)scale(0.08 -0.08)">
     <use xlink:href="#DejaVuSans-100"/>
     <use x="63.476562" xlink:href="#DejaVuSans-101"/>
     <use x="125" xlink:href="#DejaVuSans-118"/>
     <use x="184.179688" xlink:href="#DejaVuSans-105"/>
     <use x="211.962891" xlink:href="#DejaVuSans-99"/>
     <use x="266.943359" xlink:href="#DejaVuSans-101"/>
    </g>
   </g>
   <g id="text_7">
    <!-- machine -->
    <g style="fill:#ff0000;" transform="translate(297.949722 275.00661)scale(0.08 -0.08)">
     <defs>
      <path d="M 54.890625 33.015625 
L 54.890625 0 
L 45.90625 0 
L 45.90625 32.71875 
Q 45.90625 40.484375 42.875 44.328125 
Q 39.84375 48.1875 33.796875 48.1875 
Q 26.515625 48.1875 22.3125 43.546875 
Q 18.109375 38.921875 18.109375 30.90625 
L 18.109375 0 
L 9.078125 0 
L 9.078125 75.984375 
L 18.109375 75.984375 
L 18.109375 46.1875 
Q 21.34375 51.125 25.703125 53.5625 
Q 30.078125 56 35.796875 56 
Q 45.21875 56 50.046875 50.171875 
Q 54.890625 44.34375 54.890625 33.015625 
z
" id="DejaVuSans-104"/>
     </defs>
     <use xlink:href="#DejaVuSans-109"/>
     <use x="97.412109" xlink:href="#DejaVuSans-97"/>
     <use x="158.691406" xlink:href="#DejaVuSans-99"/>
     <use x="213.671875" xlink:href="#DejaVuSans-104"/>
     <use x="277.050781" xlink:href="#DejaVuSans-105"/>
     <use x="304.833984" xlink:href="#DejaVuSans-110"/>
     <use x="368.212891" xlink:href="#DejaVuSans-101"/>
    </g>
   </g>
   <g id="text_8">
    <!-- zone -->
    <g style="fill:#ff0000;" transform="translate(308.224047 264.346851)scale(0.08 -0.08)">
     <defs>
      <path d="M 5.515625 54.6875 
L 48.1875 54.6875 
L 48.1875 46.484375 
L 14.40625 7.171875 
L 48.1875 7.171875 
L 48.1875 0 
L 4.296875 0 
L 4.296875 8.203125 
L 38.09375 47.515625 
L 5.515625 47.515625 
z
" id="DejaVuSans-122"/>
     </defs>
     <use xlink:href="#DejaVuSans-122"/>
     <use x="52.490234" xlink:href="#DejaVuSans-111"/>
     <use x="113.671875" xlink:href="#DejaVuSans-110"/>
     <use x="177.050781" xlink:href="#DejaVuSans-101"/>
    </g>
   </g>
   <g id="text_9">
    <!-- site -->
    <g style="fill:#ff0000;" transform="translate(318.266633 253.927523)scale(0.08 -0.08)">
     <use xlink:href="#DejaVuSans-115"/>
     <use x="52.099609" xlink:href="#DejaVuSans-105"/>
     <use x="79.882812" xlink:href="#DejaVuSans-116"/>
     <use x="119.091797" xlink:href="#DejaVuSans-101"/>
    </g>
   </g>
   <g id="text_10">
    <!-- office -->
    <g style="fill:#ff0000;" transform="translate(328.085233 243.740584)scale(0.08 -0.08)">
     <defs>
      <path d="M 37.109375 75.984375 
L 37.109375 68.5 
L 28.515625 68.5 
Q 23.6875 68.5 21.796875 66.546875 
Q 19.921875 64.59375 19.921875 59.515625 
L 19.921875 54.6875 
L 34.71875 54.6875 
L 34.71875 47.703125 
L 19.921875 47.703125 
L 19.921875 0 
L 10.890625 0 
L 10.890625 47.703125 
L 2.296875 47.703125 
L 2.296875 54.6875 
L 10.890625 54.6875 
L 10.890625 58.5 
Q 10.890625 67.625 15.140625 71.796875 
Q 19.390625 75.984375 28.609375 75.984375 
z
" id="DejaVuSans-102"/>
     </defs>
     <use xlink:href="#DejaVuSans-111"/>
     <use x="61.181641" xlink:href="#DejaVuSans-102"/>
     <use x="96.386719" xlink:href="#DejaVuSans-102"/>
     <use x="131.591797" xlink:href="#DejaVuSans-105"/>
     <use x="159.375" xlink:href="#DejaVuSans-99"/>
     <use x="214.355469" xlink:href="#DejaVuSans-101"/>
    </g>
   </g>
   <g id="text_11">
    <!-- company -->
    <g style="fill:#ff0000;" transform="translate(337.68726 233.778344)scale(0.08 -0.08)">
     <defs>
      <path d="M 32.171875 -5.078125 
Q 28.375 -14.84375 24.75 -17.8125 
Q 21.140625 -20.796875 15.09375 -20.796875 
L 7.90625 -20.796875 
L 7.90625 -13.28125 
L 13.1875 -13.28125 
Q 16.890625 -13.28125 18.9375 -11.515625 
Q 21 -9.765625 23.484375 -3.21875 
L 25.09375 0.875 
L 2.984375 54.6875 
L 12.5 54.6875 
L 29.59375 11.921875 
L 46.6875 54.6875 
L 56.203125 54.6875 
z
" id="DejaVuSans-121"/>
     </defs>
     <use xlink:href="#DejaVuSans-99"/>
     <use x="54.980469" xlink:href="#DejaVuSans-111"/>
     <use x="116.162109" xlink:href="#DejaVuSans-109"/>
     <use x="213.574219" xlink:href="#DejaVuSans-112"/>
     <use x="277.050781" xlink:href="#DejaVuSans-97"/>
     <use x="338.330078" xlink:href="#DejaVuSans-110"/>
     <use x="401.708984" xlink:href="#DejaVuSans-121"/>
    </g>
   </g>
   <g id="text_12">
    <!-- network -->
    <g style="fill:#ff0000;" transform="translate(347.079799 224.033449)scale(0.08 -0.08)">
     <defs>
      <path d="M 4.203125 54.6875 
L 13.1875 54.6875 
L 24.421875 12.015625 
L 35.59375 54.6875 
L 46.1875 54.6875 
L 57.421875 12.015625 
L 68.609375 54.6875 
L 77.59375 54.6875 
L 63.28125 0 
L 52.6875 0 
L 40.921875 44.828125 
L 29.109375 0 
L 18.5 0 
z
" id="DejaVuSans-119"/>
      <path d="M 9.078125 75.984375 
L 18.109375 75.984375 
L 18.109375 31.109375 
L 44.921875 54.6875 
L 56.390625 54.6875 
L 27.390625 29.109375 
L 57.625 0 
L 45.90625 0 
L 18.109375 26.703125 
L 18.109375 0 
L 9.078125 0 
z
" id="DejaVuSans-107"/>
     </defs>
     <use xlink:href="#DejaVuSans-110"/>
     <use x="63.378906" xlink:href="#DejaVuSans-101"/>
     <use x="124.902344" xlink:href="#DejaVuSans-116"/>
     <use x="164.111328" xlink:href="#DejaVuSans-119"/>
     <use x="245.898438" xlink:href="#DejaVuSans-111"/>
     <use x="307.080078" xlink:href="#DejaVuSans-114"/>
     <use x="348.193359" xlink:href="#DejaVuSans-107"/>
    </g>
   </g>
   <g id="text_13">
    <!-- as-planned -->
    <g style="fill:#0000ff;" transform="translate(357.511059 202.93514)scale(0.08 -0.08)">
     <defs>
      <path d="M 4.890625 31.390625 
L 31.203125 31.390625 
L 31.203125 23.390625 
L 4.890625 23.390625 
z
" id="DejaVuSans-45"/>
     </defs>
     <use xlink:href="#DejaVuSans-97"/>
     <use x="61.279297" xlink:href="#DejaVuSans-115"/>
     <use x="113.378906" xlink:href="#DejaVuSans-45"/>
     <use x="149.462891" xlink:href="#DejaVuSans-112"/>
     <use x="212.939453" xlink:href="#DejaVuSans-108"/>
     <use x="240.722656" xlink:href="#DejaVuSans-97"/>
     <use x="302.001953" xlink:href="#DejaVuSans-110"/>
     <use x="365.380859" xlink:href="#DejaVuSans-110"/>
     <use x="428.759766" xlink:href="#DejaVuSans-101"/>
     <use x="490.283203" xlink:href="#DejaVuSans-100"/>
    </g>
   </g>
   <g id="text_14">
    <!-- as-observed -->
    <g style="fill:#0000ff;" transform="translate(358.204742 188.446737)scale(0.08 -0.08)">
     <defs>
      <path d="M 48.6875 27.296875 
Q 48.6875 37.203125 44.609375 42.84375 
Q 40.53125 48.484375 33.40625 48.484375 
Q 26.265625 48.484375 22.1875 42.84375 
Q 18.109375 37.203125 18.109375 27.296875 
Q 18.109375 17.390625 22.1875 11.75 
Q 26.265625 6.109375 33.40625 6.109375 
Q 40.53125 6.109375 44.609375 11.75 
Q 48.6875 17.390625 48.6875 27.296875 
z
M 18.109375 46.390625 
Q 20.953125 51.265625 25.265625 53.625 
Q 29.59375 56 35.59375 56 
Q 45.5625 56 51.78125 48.09375 
Q 58.015625 40.1875 58.015625 27.296875 
Q 58.015625 14.40625 51.78125 6.484375 
Q 45.5625 -1.421875 35.59375 -1.421875 
Q 29.59375 -1.421875 25.265625 0.953125 
Q 20.953125 3.328125 18.109375 8.203125 
L 18.109375 0 
L 9.078125 0 
L 9.078125 75.984375 
L 18.109375 75.984375 
z
" id="DejaVuSans-98"/>
     </defs>
     <use xlink:href="#DejaVuSans-97"/>
     <use x="61.279297" xlink:href="#DejaVuSans-115"/>
     <use x="113.378906" xlink:href="#DejaVuSans-45"/>
     <use x="151.337891" xlink:href="#DejaVuSans-111"/>
     <use x="212.519531" xlink:href="#DejaVuSans-98"/>
     <use x="275.996094" xlink:href="#DejaVuSans-115"/>
     <use x="328.095703" xlink:href="#DejaVuSans-101"/>
     <use x="389.619141" xlink:href="#DejaVuSans-114"/>
     <use x="430.732422" xlink:href="#DejaVuSans-118"/>
     <use x="489.912109" xlink:href="#DejaVuSans-101"/>
     <use x="551.435547" xlink:href="#DejaVuSans-100"/>
    </g>
   </g>
   <g id="text_15">
    <!-- divergence -->
    <g style="fill:#0000ff;" transform="translate(358.906647 173.786623)scale(0.08 -0.08)">
     <use xlink:href="#DejaVuSans-100"/>
     <use x="63.476562" xlink:href="#DejaVuSans-105"/>
     <use x="91.259766" xlink:href="#DejaVuSans-118"/>
     <use x="150.439453" xlink:href="#DejaVuSans-101"/>
     <use x="211.962891" xlink:href="#DejaVuSans-114"/>
     <use x="251.326172" xlink:href="#DejaVuSans-103"/>
     <use x="314.802734" xlink:href="#DejaVuSans-101"/>
     <use x="376.326172" xlink:href="#DejaVuSans-110"/>
     <use x="439.705078" xlink:href="#DejaVuSans-99"/>
     <use x="494.685547" xlink:href="#DejaVuSans-101"/>
    </g>
   </g>
   <g id="text_16">
    <!-- scheduling -->
    <g style="fill:#0000ff;" transform="translate(359.616919 158.951728)scale(0.08 -0.08)">
     <use xlink:href="#DejaVuSans-115"/>
     <use x="52.099609" xlink:href="#DejaVuSans-99"/>
     <use x="107.080078" xlink:href="#DejaVuSans-104"/>
     <use x="170.458984" xlink:href="#DejaVuSans-101"/>
     <use x="231.982422" xlink:href="#DejaVuSans-100"/>
     <use x="295.458984" xlink:href="#DejaVuSans-117"/>
     <use x="358.837891" xlink:href="#DejaVuSans-108"/>
     <use x="386.621094" xlink:href="#DejaVuSans-105"/>
     <use x="414.404297" xlink:href="#DejaVuSans-110"/>
     <use x="477.783203" xlink:href="#DejaVuSans-103"/>
    </g>
   </g>
   <g id="text_17">
    <!-- cost -->
    <g style="fill:#0000ff;" transform="translate(360.335711 143.938906)scale(0.08 -0.08)">
     <use xlink:href="#DejaVuSans-99"/>
     <use x="54.980469" xlink:href="#DejaVuSans-111"/>
     <use x="116.162109" xlink:href="#DejaVuSans-115"/>
     <use x="168.261719" xlink:href="#DejaVuSans-116"/>
    </g>
   </g>
   <g id="text_18">
    <!-- safety -->
    <g style="fill:#0000ff;" transform="translate(361.063175 128.744937)scale(0.08 -0.08)">
     <use xlink:href="#DejaVuSans-115"/>
     <use x="52.099609" xlink:href="#DejaVuSans-97"/>
     <use x="113.378906" xlink:href="#DejaVuSans-102"/>
     <use x="148.583984" xlink:href="#DejaVuSans-101"/>
     <use x="210.107422" xlink:href="#DejaVuSans-116"/>
     <use x="249.316406" xlink:href="#DejaVuSans-121"/>
    </g>
   </g>
   <g id="text_19">
    <!-- analytics -->
    <g style="fill:#0000ff;" transform="translate(361.79947 113.366523)scale(0.08 -0.08)">
     <use xlink:href="#DejaVuSans-97"/>
     <use x="61.279297" xlink:href="#DejaVuSans-110"/>
     <use x="124.658203" xlink:href="#DejaVuSans-97"/>
     <use x="185.9375" xlink:href="#DejaVuSans-108"/>
     <use x="213.720703" xlink:href="#DejaVuSans-121"/>
     <use x="272.900391" xlink:href="#DejaVuSans-116"/>
     <use x="312.109375" xlink:href="#DejaVuSans-105"/>
     <use x="339.892578" xlink:href="#DejaVuSans-99"/>
     <use x="394.873047" xlink:href="#DejaVuSans-115"/>
    </g>
   </g>
   <g id="Poly3DCollection_2">
    <path clip-path="url(#pdda3bb589d)" d="M 193.572224 176.229537 
L 193.302513 161.710518 
L 217.804953 168.820023 
L 217.933499 183.422361 
z
" style="fill:#0d324b;stroke:#000000;"/>
    <path clip-path="url(#pdda3bb589d)" d="M 182.512365 170.524346 
L 193.302513 161.710518 
L 193.572224 176.229537 
L 182.84827 185.14655 
z
" style="fill:#1b699f;stroke:#000000;"/>
   </g>
   <g id="Poly3DCollection_3">
    <path clip-path="url(#pdda3bb589d)" d="M 218.060548 197.854671 
L 217.933499 183.422361 
L 242.717724 190.740063 
L 242.700333 205.253951 
z
" style="fill:#0d324b;stroke:#000000;"/>
    <path clip-path="url(#pdda3bb589d)" d="M 218.060548 197.854671 
L 242.700333 205.253951 
L 232.383126 214.58683 
L 207.56895 207.027682 
z
" style="fill:#113f60;stroke:#000000;"/>
   </g>
   <g id="Poly3DCollection_4">
    <path clip-path="url(#pdda3bb589d)" d="M 193.302513 161.710518 
L 193.029633 147.020923 
L 217.674883 154.044636 
L 217.804953 168.820023 
z
" style="fill:#0d324b;stroke:#000000;"/>
    <path clip-path="url(#pdda3bb589d)" d="M 182.172472 155.728499 
L 193.029633 147.020923 
L 193.302513 161.710518 
L 182.512365 170.524346 
z
" style="fill:#1b699f;stroke:#000000;"/>
   </g>
   <g id="Poly3DCollection_5">
    <defs>
     <path d="M 217.933499 -162.177639 
L 217.804953 -176.779977 
L 242.735322 -169.546306 
L 242.717724 -154.859937 
z
" id="m943d5de2bf" style="stroke:#000000;"/>
    </defs>
    <g clip-path="url(#pdda3bb589d)">
     <use style="fill:#0d324b;stroke:#000000;" x="0" xlink:href="#m943d5de2bf" y="345.6"/>
    </g>
   </g>
   <g id="Poly3DCollection_6">
    <path clip-path="url(#pdda3bb589d)" d="M 171.893021 194.255887 
L 182.84827 185.14655 
L 183.180256 199.598149 
L 172.293161 208.808703 
z
" style="fill:#1b699f;stroke:#000000;"/>
    <path clip-path="url(#pdda3bb589d)" d="M 183.180256 199.598149 
L 207.56895 207.027682 
L 196.850435 216.399091 
L 172.293161 208.808703 
z
" style="fill:#113f60;stroke:#000000;"/>
   </g>
   <g id="Poly3DCollection_7">
    <defs>
     <path d="M 171.488106 -166.070593 
L 182.512365 -175.075654 
L 182.84827 -160.45345 
L 171.893021 -151.344113 
z
" id="m853fa3cc83" style="stroke:#000000;"/>
    </defs>
    <g clip-path="url(#pdda3bb589d)">
     <use style="fill:#1b699f;stroke:#000000;" x="0" xlink:href="#m853fa3cc83" y="345.6"/>
    </g>
   </g>
   <g id="Poly3DCollection_8">
    <path clip-path="url(#pdda3bb589d)" d="M 193.029633 147.020923 
L 192.753528 132.157727 
L 217.543263 139.093106 
L 217.674883 154.044636 
z
" style="fill:#0d324b;stroke:#000000;"/>
    <path clip-path="url(#pdda3bb589d)" d="M 181.828517 140.755897 
L 192.753528 132.157727 
L 193.029633 147.020923 
L 182.172472 155.728499 
z
" style="fill:#1b699f;stroke:#000000;"/>
   </g>
   <g id="Poly3DCollection_9">
    <defs>
     <path d="M 217.804953 -176.779977 
L 217.674883 -191.555364 
L 242.75313 -184.408249 
L 242.735322 -169.546306 
z
" id="m971f9f1852" style="stroke:#000000;"/>
    </defs>
    <g clip-path="url(#pdda3bb589d)">
     <use style="fill:#0d324b;stroke:#000000;" x="0" xlink:href="#m971f9f1852" y="345.6"/>
    </g>
   </g>
   <g id="Poly3DCollection_10">
    <path clip-path="url(#pdda3bb589d)" d="M 242.700333 205.253951 
L 242.717724 190.740063 
L 267.936011 198.185926 
L 267.769094 212.782052 
z
" style="fill:#0d324b;stroke:#000000;"/>
    <path clip-path="url(#pdda3bb589d)" d="M 242.700333 205.253951 
L 267.769094 212.782052 
L 257.634018 222.279015 
L 232.383126 214.58683 
z
" style="fill:#113f60;stroke:#000000;"/>
   </g>
   <g id="Poly3DCollection_11">
    <defs>
     <path d="M 242.717724 -154.859937 
L 242.735322 -169.546306 
L 268.104929 -162.185188 
L 267.936011 -147.414074 
z
" id="ma8b52bb5da" style="stroke:#000000;"/>
    </defs>
    <g clip-path="url(#pdda3bb589d)">
     <use style="fill:#0d324b;stroke:#000000;" x="0" xlink:href="#ma8b52bb5da" y="345.6"/>
    </g>
   </g>
   <g id="Poly3DCollection_12">
    <defs>
     <path d="M 207.56895 -138.572318 
L 232.383126 -131.01317 
L 221.840807 -121.476656 
L 196.850435 -129.200909 
z
" id="mbadb039b89" style="stroke:#000000;"/>
    </defs>
    <g clip-path="url(#pdda3bb589d)">
     <use style="fill:#113f60;stroke:#000000;" x="0" xlink:href="#mbadb039b89" y="345.6"/>
    </g>
   </g>
   <g id="Poly3DCollection_13">
    <defs>
     <path d="M 171.078329 -180.973863 
L 182.172472 -189.871501 
L 182.512365 -175.075654 
L 171.488106 -166.070593 
z
" id="m0407afe9e6" style="stroke:#000000;"/>
    </defs>
    <g clip-path="url(#pdda3bb589d)">
     <use style="fill:#1b699f;stroke:#000000;" x="0" xlink:href="#m0407afe9e6" y="345.6"/>
    </g>
   </g>
   <g id="Poly3DCollection_14">
    <path clip-path="url(#pdda3bb589d)" d="M 192.753528 132.157727 
L 192.474141 117.117835 
L 217.410065 123.962263 
L 217.543263 139.093106 
z
" style="fill:#0d324b;stroke:#000000;"/>
    <path clip-path="url(#pdda3bb589d)" d="M 181.480429 125.603354 
L 192.474141 117.117835 
L 192.753528 132.157727 
L 181.828517 140.755897 
z
" style="fill:#1b699f;stroke:#000000;"/>
   </g>
   <g id="Poly3DCollection_15">
    <path clip-path="url(#pdda3bb589d)" d="M 160.69891 203.563838 
L 171.893021 194.255887 
L 172.293161 208.808703 
L 161.170105 218.218882 
z
" style="fill:#1b699f;stroke:#000000;"/>
    <path clip-path="url(#pdda3bb589d)" d="M 172.293161 208.808703 
L 196.850435 216.399091 
L 185.897561 225.975405 
L 161.170105 218.218882 
z
" style="fill:#113f60;stroke:#000000;"/>
   </g>
   <g id="Poly3DCollection_16">
    <defs>
     <path d="M 217.674883 -191.555364 
L 217.543263 -206.506894 
L 242.771152 -199.448934 
L 242.75313 -184.408249 
z
" id="m295159eeed" style="stroke:#000000;"/>
    </defs>
    <g clip-path="url(#pdda3bb589d)">
     <use style="fill:#0d324b;stroke:#000000;" x="0" xlink:href="#m295159eeed" y="345.6"/>
    </g>
   </g>
   <g id="Poly3DCollection_17">
    <defs>
     <path d="M 242.735322 -169.546306 
L 242.75313 -184.408249 
L 268.275885 -177.134453 
L 268.104929 -162.185188 
z
" id="m47ff8775a0" style="stroke:#000000;"/>
    </defs>
    <g clip-path="url(#pdda3bb589d)">
     <use style="fill:#0d324b;stroke:#000000;" x="0" xlink:href="#m47ff8775a0" y="345.6"/>
    </g>
   </g>
   <g id="Poly3DCollection_18">
    <defs>
     <path d="M 160.22203 -156.868007 
L 171.488106 -166.070593 
L 171.893021 -151.344113 
L 160.69891 -142.036162 
z
" id="mb21f970a14" style="stroke:#000000;"/>
    </defs>
    <g clip-path="url(#pdda3bb589d)">
     <use style="fill:#1b699f;stroke:#000000;" x="0" xlink:href="#mb21f970a14" y="345.6"/>
    </g>
   </g>
   <g id="Poly3DCollection_19">
    <defs>
     <path d="M 170.663604 -196.057126 
L 181.828517 -204.844103 
L 182.172472 -189.871501 
L 171.078329 -180.973863 
z
" id="m9fa208891b" style="stroke:#000000;"/>
    </defs>
    <g clip-path="url(#pdda3bb589d)">
     <use style="fill:#1b699f;stroke:#000000;" x="0" xlink:href="#m9fa208891b" y="345.6"/>
    </g>
   </g>
   <g id="Poly3DCollection_20">
    <path clip-path="url(#pdda3bb589d)" d="M 267.769094 212.782052 
L 267.936011 198.185926 
L 293.599864 205.763344 
L 293.278132 220.442368 
z
" style="fill:#0d324b;stroke:#000000;"/>
    <path clip-path="url(#pdda3bb589d)" d="M 267.769094 212.782052 
L 293.278132 220.442368 
L 283.333256 230.107779 
L 257.634018 222.279015 
z
" style="fill:#113f60;stroke:#000000;"/>
   </g>
   <g id="Poly3DCollection_21">
    <path clip-path="url(#pdda3bb589d)" d="M 192.474141 117.117835 
L 192.191413 101.898078 
L 217.275259 108.648862 
L 217.410065 123.962263 
z
" style="fill:#0d324b;stroke:#000000;"/>
    <path clip-path="url(#pdda3bb589d)" d="M 181.128132 110.267606 
L 192.191413 101.898078 
L 192.474141 117.117835 
L 181.480429 125.603354 
z
" style="fill:#1b699f;stroke:#000000;"/>
   </g>
   <g id="Poly3DCollection_22">
    <defs>
     <path d="M 267.936011 -147.414074 
L 268.104929 -162.185188 
L 293.925486 -154.693224 
L 293.599864 -139.836656 
z
" id="m4ec06c3e17" style="stroke:#000000;"/>
    </defs>
    <g clip-path="url(#pdda3bb589d)">
     <use style="fill:#0d324b;stroke:#000000;" x="0" xlink:href="#m4ec06c3e17" y="345.6"/>
    </g>
   </g>
   <g id="Poly3DCollection_23">
    <defs>
     <path d="M 217.543263 -206.506894 
L 217.410065 -221.637737 
L 242.789393 -214.671604 
L 242.771152 -199.448934 
z
" id="m3f055ab65a" style="stroke:#000000;"/>
    </defs>
    <g clip-path="url(#pdda3bb589d)">
     <use style="fill:#0d324b;stroke:#000000;" x="0" xlink:href="#m3f055ab65a" y="345.6"/>
    </g>
   </g>
   <g id="Poly3DCollection_24">
    <defs>
     <path d="M 232.383126 -131.01317 
L 257.634018 -123.320985 
L 247.275836 -113.614964 
L 221.840807 -121.476656 
z
" id="m4dc486f2df" style="stroke:#000000;"/>
    </defs>
    <g clip-path="url(#pdda3bb589d)">
     <use style="fill:#113f60;stroke:#000000;" x="0" xlink:href="#m4dc486f2df" y="345.6"/>
    </g>
   </g>
   <g id="Poly3DCollection_25">
    <defs>
     <path d="M 196.850435 -129.200909 
L 221.840807 -121.476656 
L 211.065925 -111.729768 
L 185.897561 -119.624595 
z
" id="md5ccc3828f" style="stroke:#000000;"/>
    </defs>
    <g clip-path="url(#pdda3bb589d)">
     <use style="fill:#113f60;stroke:#000000;" x="0" xlink:href="#md5ccc3828f" y="345.6"/>
    </g>
   </g>
   <g id="Poly3DCollection_26">
    <defs>
     <path d="M 242.75313 -184.408249 
L 242.771152 -199.448934 
L 268.448915 -192.265114 
L 268.275885 -177.134453 
z
" id="m7bf40aac6b" style="stroke:#000000;"/>
    </defs>
    <g clip-path="url(#pdda3bb589d)">
     <use style="fill:#0d324b;stroke:#000000;" x="0" xlink:href="#m7bf40aac6b" y="345.6"/>
    </g>
   </g>
   <g id="Poly3DCollection_27">
    <defs>
     <path d="M 159.739362 -171.879872 
L 171.078329 -180.973863 
L 171.488106 -166.070593 
L 160.22203 -156.868007 
z
" id="m959c069057" style="stroke:#000000;"/>
    </defs>
    <g clip-path="url(#pdda3bb589d)">
     <use style="fill:#1b699f;stroke:#000000;" x="0" xlink:href="#m959c069057" y="345.6"/>
    </g>
   </g>
   <g id="Poly3DCollection_28">
    <defs>
     <path d="M 170.24384 -211.323662 
L 181.480429 -219.996646 
L 181.828517 -204.844103 
L 170.663604 -196.057126 
z
" id="m5a92ff902b" style="stroke:#000000;"/>
    </defs>
    <g clip-path="url(#pdda3bb589d)">
     <use style="fill:#1b699f;stroke:#000000;" x="0" xlink:href="#m5a92ff902b" y="345.6"/>
    </g>
   </g>
   <g id="Poly3DCollection_29">
    <path clip-path="url(#pdda3bb589d)" d="M 149.25804 213.07697 
L 160.69891 203.563838 
L 161.170105 218.218882 
L 149.803334 227.835245 
z
" style="fill:#1b699f;stroke:#000000;"/>
    <path clip-path="url(#pdda3bb589d)" d="M 161.170105 218.218882 
L 185.897561 225.975405 
L 174.702556 235.763418 
L 149.803334 227.835245 
z
" style="fill:#113f60;stroke:#000000;"/>
   </g>
   <g id="Poly3DCollection_30">
    <defs>
     <path d="M 268.104929 -162.185188 
L 268.275885 -177.134453 
L 294.255072 -169.730578 
L 293.925486 -154.693224 
z
" id="mc5d90c5e8b" style="stroke:#000000;"/>
    </defs>
    <g clip-path="url(#pdda3bb589d)">
     <use style="fill:#0d324b;stroke:#000000;" x="0" xlink:href="#mc5d90c5e8b" y="345.6"/>
    </g>
   </g>
   <g id="Poly3DCollection_31">
    <defs>
     <path d="M 217.410065 -221.637737 
L 217.275259 -236.951138 
L 242.807855 -230.079583 
L 242.789393 -214.671604 
z
" id="m5beff4e103" style="stroke:#000000;"/>
    </defs>
    <g clip-path="url(#pdda3bb589d)">
     <use style="fill:#0d324b;stroke:#000000;" x="0" xlink:href="#m5beff4e103" y="345.6"/>
    </g>
   </g>
   <g id="Poly3DCollection_32">
    <defs>
     <path d="M 148.706094 -147.461326 
L 160.22203 -156.868007 
L 160.69891 -142.036162 
L 149.25804 -132.52303 
z
" id="mdb2efd9c29" style="stroke:#000000;"/>
    </defs>
    <g clip-path="url(#pdda3bb589d)">
     <use style="fill:#1b699f;stroke:#000000;" x="0" xlink:href="#mdb2efd9c29" y="345.6"/>
    </g>
   </g>
   <g id="Poly3DCollection_33">
    <defs>
     <path d="M 242.771152 -199.448934 
L 242.789393 -214.671604 
L 268.624057 -207.58049 
L 268.448915 -192.265114 
z
" id="m93fa19664f" style="stroke:#000000;"/>
    </defs>
    <g clip-path="url(#pdda3bb589d)">
     <use style="fill:#0d324b;stroke:#000000;" x="0" xlink:href="#m93fa19664f" y="345.6"/>
    </g>
   </g>
   <g id="Poly3DCollection_34">
    <defs>
     <path d="M 159.2508 -187.075054 
L 170.663604 -196.057126 
L 171.078329 -180.973863 
L 159.739362 -171.879872 
z
" id="me94d5f89fe" style="stroke:#000000;"/>
    </defs>
    <g clip-path="url(#pdda3bb589d)">
     <use style="fill:#1b699f;stroke:#000000;" x="0" xlink:href="#me94d5f89fe" y="345.6"/>
    </g>
   </g>
   <g id="Poly3DCollection_35">
    <defs>
     <path d="M 257.634018 -123.320985 
L 283.333256 -115.492221 
L 273.167496 -105.612132 
L 247.275836 -113.614964 
z
" id="mb30ce7ea6a" style="stroke:#000000;"/>
    </defs>
    <g clip-path="url(#pdda3bb589d)">
     <use style="fill:#113f60;stroke:#000000;" x="0" xlink:href="#mb30ce7ea6a" y="345.6"/>
    </g>
   </g>
   <g id="Poly3DCollection_36">
    <defs>
     <path d="M 169.818944 -226.776833 
L 181.128132 -235.332394 
L 181.480429 -219.996646 
L 170.24384 -211.323662 
z
" id="mc56e81b949" style="stroke:#000000;"/>
    </defs>
    <g clip-path="url(#pdda3bb589d)">
     <use style="fill:#1b699f;stroke:#000000;" x="0" xlink:href="#mc56e81b949" y="345.6"/>
    </g>
   </g>
   <g id="Poly3DCollection_37">
    <defs>
     <path d="M 221.840807 -121.476656 
L 247.275836 -113.614964 
L 236.687098 -103.692903 
L 211.065925 -111.729768 
z
" id="m0e8d6fd7d8" style="stroke:#000000;"/>
    </defs>
    <g clip-path="url(#pdda3bb589d)">
     <use style="fill:#113f60;stroke:#000000;" x="0" xlink:href="#m0e8d6fd7d8" y="345.6"/>
    </g>
   </g>
   <g id="Poly3DCollection_38">
    <defs>
     <path d="M 268.275885 -177.134453 
L 268.448915 -192.265114 
L 294.588692 -184.952036 
L 294.255072 -169.730578 
z
" id="m542d2c6260" style="stroke:#000000;"/>
    </defs>
    <g clip-path="url(#pdda3bb589d)">
     <use style="fill:#0d324b;stroke:#000000;" x="0" xlink:href="#m542d2c6260" y="345.6"/>
    </g>
   </g>
   <g id="Poly3DCollection_39">
    <path clip-path="url(#pdda3bb589d)" d="M 293.278132 220.442368 
L 293.599864 205.763344 
L 319.721195 213.475836 
L 319.239148 228.238411 
z
" style="fill:#0d324b;stroke:#000000;"/>
    <path clip-path="url(#pdda3bb589d)" d="M 293.278132 220.442368 
L 319.239148 228.238411 
L 309.492889 238.076794 
L 283.333256 230.107779 
z
" style="fill:#113f60;stroke:#000000;"/>
    <path clip-path="url(#pdda3bb589d)" d="M 309.492889 238.076794 
L 319.239148 228.238411 
L 319.721195 213.475836 
L 309.920543 223.209951 
z
" style="fill:#0d324b;stroke:#000000;"/>
   </g>
   <g id="Poly3DCollection_40">
    <defs>
     <path d="M 185.897561 -119.624595 
L 211.065925 -111.729768 
L 200.050701 -101.765466 
L 174.702556 -109.836582 
z
" id="m65f42f2095" style="stroke:#000000;"/>
    </defs>
    <g clip-path="url(#pdda3bb589d)">
     <use style="fill:#113f60;stroke:#000000;" x="0" xlink:href="#m65f42f2095" y="345.6"/>
    </g>
   </g>
   <g id="Poly3DCollection_41">
    <defs>
     <path d="M 148.147375 -162.582956 
L 159.739362 -171.879872 
L 160.22203 -156.868007 
L 148.706094 -147.461326 
z
" id="m23dd2db99b" style="stroke:#000000;"/>
    </defs>
    <g clip-path="url(#pdda3bb589d)">
     <use style="fill:#1b699f;stroke:#000000;" x="0" xlink:href="#m23dd2db99b" y="345.6"/>
    </g>
   </g>
   <g id="Poly3DCollection_42">
    <path clip-path="url(#pdda3bb589d)" d="M 192.191413 101.898078 
L 191.905283 86.495209 
L 217.138818 93.149579 
L 217.275259 108.648862 
z
" style="fill:#0d324b;stroke:#000000;"/>
    <path clip-path="url(#pdda3bb589d)" d="M 180.77155 94.74531 
L 191.905283 86.495209 
L 192.191413 101.898078 
L 181.128132 110.267606 
z
" style="fill:#1b699f;stroke:#000000;"/>
    <path clip-path="url(#pdda3bb589d)" d="M 180.77155 94.74531 
L 206.186229 101.548339 
L 217.138818 93.149579 
L 191.905283 86.495209 
z
" style="fill:#185b8a;stroke:#000000;"/>
   </g>
   <g id="Poly3DCollection_43">
    <defs>
     <path d="M 242.789393 -214.671604 
L 242.807855 -230.079583 
L 268.80135 -223.083987 
L 268.624057 -207.58049 
z
" id="ma3cd63ff9e" style="stroke:#000000;"/>
    </defs>
    <g clip-path="url(#pdda3bb589d)">
     <use style="fill:#0d324b;stroke:#000000;" x="0" xlink:href="#ma3cd63ff9e" y="345.6"/>
    </g>
   </g>
   <g id="Poly3DCollection_44">
    <defs>
     <path d="M 158.756235 -202.456932 
L 170.24384 -211.323662 
L 170.663604 -196.057126 
L 159.2508 -187.075054 
z
" id="m519e65a9c4" style="stroke:#000000;"/>
    </defs>
    <g clip-path="url(#pdda3bb589d)">
     <use style="fill:#1b699f;stroke:#000000;" x="0" xlink:href="#m519e65a9c4" y="345.6"/>
    </g>
   </g>
   <g id="Poly3DCollection_45">
    <defs>
     <path d="M 268.448915 -192.265114 
L 268.624057 -207.58049 
L 294.926422 -200.361001 
L 294.588692 -184.952036 
z
" id="m1e72f73b77" style="stroke:#000000;"/>
    </defs>
    <g clip-path="url(#pdda3bb589d)">
     <use style="fill:#0d324b;stroke:#000000;" x="0" xlink:href="#m1e72f73b77" y="345.6"/>
    </g>
   </g>
   <g id="Poly3DCollection_46">
    <path clip-path="url(#pdda3bb589d)" d="M 293.599864 205.763344 
L 293.925486 190.906776 
L 320.209125 198.533104 
L 319.721195 213.475836 
z
" style="fill:#0d324b;stroke:#000000;"/>
    <path clip-path="url(#pdda3bb589d)" d="M 309.920543 223.209951 
L 319.721195 213.475836 
L 320.209125 198.533104 
L 310.353474 208.159645 
z
" style="fill:#0d324b;stroke:#000000;"/>
   </g>
   <g id="Poly3DCollection_47">
    <defs>
     <path d="M 147.581756 -177.891317 
L 159.2508 -187.075054 
L 159.739362 -171.879872 
L 148.147375 -162.582956 
z
" id="m13a25f575b" style="stroke:#000000;"/>
    </defs>
    <g clip-path="url(#pdda3bb589d)">
     <use style="fill:#1b699f;stroke:#000000;" x="0" xlink:href="#m13a25f575b" y="345.6"/>
    </g>
   </g>
   <g id="Poly3DCollection_48">
    <defs>
     <path d="M 247.275836 -113.614964 
L 273.167496 -105.612132 
L 262.773409 -95.510133 
L 236.687098 -103.692903 
z
" id="m5489a8cf51" style="stroke:#000000;"/>
    </defs>
    <g clip-path="url(#pdda3bb589d)">
     <use style="fill:#113f60;stroke:#000000;" x="0" xlink:href="#m5489a8cf51" y="345.6"/>
    </g>
   </g>
   <g id="Poly3DCollection_49">
    <defs>
     <path d="M 158.255556 -218.028967 
L 169.818944 -226.776833 
L 170.24384 -211.323662 
L 158.756235 -202.456932 
z
" id="m51ac92640f" style="stroke:#000000;"/>
    </defs>
    <g clip-path="url(#pdda3bb589d)">
     <use style="fill:#1b699f;stroke:#000000;" x="0" xlink:href="#m51ac92640f" y="345.6"/>
    </g>
   </g>
   <g id="Poly3DCollection_50">
    <path clip-path="url(#pdda3bb589d)" d="M 137.562161 222.802143 
L 149.25804 213.07697 
L 149.803334 227.835245 
L 138.184749 237.664644 
z
" style="fill:#1b699f;stroke:#000000;"/>
    <path clip-path="url(#pdda3bb589d)" d="M 149.803334 227.835245 
L 174.702556 235.763418 
L 163.257301 245.77023 
L 138.184749 237.664644 
z
" style="fill:#113f60;stroke:#000000;"/>
    <path clip-path="url(#pdda3bb589d)" d="M 163.257301 245.77023 
L 162.784134 230.822764 
L 137.562161 222.802143 
L 138.184749 237.664644 
z
" style="fill:#1b699f;stroke:#000000;"/>
   </g>
   <g id="Poly3DCollection_51">
    <defs>
     <path d="M 211.065925 -111.729768 
L 236.687098 -103.692903 
L 225.860021 -93.547508 
L 200.050701 -101.765466 
z
" id="mbd418f8441" style="stroke:#000000;"/>
    </defs>
    <g clip-path="url(#pdda3bb589d)">
     <use style="fill:#113f60;stroke:#000000;" x="0" xlink:href="#mbd418f8441" y="345.6"/>
    </g>
   </g>
   <g id="Poly3DCollection_52">
    <path clip-path="url(#pdda3bb589d)" d="M 217.275259 108.648862 
L 217.138818 93.149579 
L 242.826544 99.923725 
L 242.807855 115.520417 
z
" style="fill:#0d324b;stroke:#000000;"/>
    <path clip-path="url(#pdda3bb589d)" d="M 206.186229 101.548339 
L 232.063509 108.475197 
L 242.826544 99.923725 
L 217.138818 93.149579 
z
" style="fill:#185b8a;stroke:#000000;"/>
   </g>
   <g id="Poly3DCollection_53">
    <defs>
     <path d="M 268.624057 -207.58049 
L 268.80135 -223.083987 
L 295.268339 -215.96096 
L 294.926422 -200.361001 
z
" id="m9a3e1ed5a2" style="stroke:#000000;"/>
    </defs>
    <g clip-path="url(#pdda3bb589d)">
     <use style="fill:#0d324b;stroke:#000000;" x="0" xlink:href="#m9a3e1ed5a2" y="345.6"/>
    </g>
   </g>
   <g id="Poly3DCollection_54">
    <path clip-path="url(#pdda3bb589d)" d="M 283.333256 230.107779 
L 309.492889 238.076794 
L 299.528196 248.135675 
L 273.167496 239.987868 
z
" style="fill:#113f60;stroke:#000000;"/>
    <path clip-path="url(#pdda3bb589d)" d="M 299.528196 248.135675 
L 309.492889 238.076794 
L 309.920543 223.209951 
L 299.898875 233.163582 
z
" style="fill:#0d324b;stroke:#000000;"/>
   </g>
   <g id="Poly3DCollection_55">
    <path clip-path="url(#pdda3bb589d)" d="M 169.388821 103.179918 
L 180.77155 94.74531 
L 181.128132 110.267606 
L 169.818944 118.823167 
z
" style="fill:#1b699f;stroke:#000000;"/>
    <path clip-path="url(#pdda3bb589d)" d="M 169.388821 103.179918 
L 194.986461 110.136642 
L 206.186229 101.548339 
L 180.77155 94.74531 
z
" style="fill:#185b8a;stroke:#000000;"/>
   </g>
   <g id="Poly3DCollection_56">
    <path clip-path="url(#pdda3bb589d)" d="M 293.925486 190.906776 
L 294.255072 175.869422 
L 320.703045 183.406899 
L 320.209125 198.533104 
z
" style="fill:#0d324b;stroke:#000000;"/>
    <path clip-path="url(#pdda3bb589d)" d="M 310.353474 208.159645 
L 320.209125 198.533104 
L 320.703045 183.406899 
L 310.79178 192.922458 
z
" style="fill:#0d324b;stroke:#000000;"/>
   </g>
   <g id="Poly3DCollection_57">
    <defs>
     <path d="M 147.009109 -193.389889 
L 158.756235 -202.456932 
L 159.2508 -187.075054 
L 147.581756 -177.891317 
z
" id="m288f56ff69" style="stroke:#000000;"/>
    </defs>
    <g clip-path="url(#pdda3bb589d)">
     <use style="fill:#1b699f;stroke:#000000;" x="0" xlink:href="#m288f56ff69" y="345.6"/>
    </g>
   </g>
   <g id="Poly3DCollection_58">
    <path clip-path="url(#pdda3bb589d)" d="M 136.931893 207.756318 
L 148.706094 198.138674 
L 149.25804 213.07697 
L 137.562161 222.802143 
z
" style="fill:#1b699f;stroke:#000000;"/>
    <path clip-path="url(#pdda3bb589d)" d="M 162.784134 230.822764 
L 162.305078 215.689239 
L 136.931893 207.756318 
L 137.562161 222.802143 
z
" style="fill:#1b699f;stroke:#000000;"/>
   </g>
   <g id="Poly3DCollection_59">
    <defs>
     <path d="M 299.898875 -112.436418 
L 309.920543 -122.390049 
L 310.353474 -137.440355 
L 300.27418 -127.595371 
z
" id="md9df91a1ab" style="stroke:#000000;"/>
    </defs>
    <g clip-path="url(#pdda3bb589d)">
     <use style="fill:#0d324b;stroke:#000000;" x="0" xlink:href="#md9df91a1ab" y="345.6"/>
    </g>
   </g>
   <g id="Poly3DCollection_60">
    <path clip-path="url(#pdda3bb589d)" d="M 174.702556 235.763418 
L 200.050701 243.834534 
L 188.787 254.023604 
L 163.257301 245.77023 
z
" style="fill:#113f60;stroke:#000000;"/>
    <path clip-path="url(#pdda3bb589d)" d="M 188.787 254.023604 
L 188.46885 238.990537 
L 162.784134 230.822764 
L 163.257301 245.77023 
z
" style="fill:#1b699f;stroke:#000000;"/>
   </g>
   <g id="Poly3DCollection_61">
    <defs>
     <path d="M 236.687098 -103.692903 
L 262.773409 -95.510133 
L 252.143217 -85.178663 
L 225.860021 -93.547508 
z
" id="m8d871d9dd1" style="stroke:#000000;"/>
    </defs>
    <g clip-path="url(#pdda3bb589d)">
     <use style="fill:#113f60;stroke:#000000;" x="0" xlink:href="#m8d871d9dd1" y="345.6"/>
    </g>
   </g>
   <g id="Poly3DCollection_62">
    <path clip-path="url(#pdda3bb589d)" d="M 294.255072 175.869422 
L 294.588692 160.647964 
L 321.203068 168.093819 
L 320.703045 183.406899 
z
" style="fill:#0d324b;stroke:#000000;"/>
    <path clip-path="url(#pdda3bb589d)" d="M 310.79178 192.922458 
L 320.703045 183.406899 
L 321.203068 168.093819 
L 311.235564 177.494887 
z
" style="fill:#0d324b;stroke:#000000;"/>
   </g>
   <g id="Poly3DCollection_63">
    <path clip-path="url(#pdda3bb589d)" d="M 242.807855 115.520417 
L 242.826544 99.923725 
L 268.980835 106.820909 
L 268.80135 122.516013 
z
" style="fill:#0d324b;stroke:#000000;"/>
    <path clip-path="url(#pdda3bb589d)" d="M 232.063509 108.475197 
L 258.41614 115.529297 
L 268.980835 106.820909 
L 242.826544 99.923725 
z
" style="fill:#185b8a;stroke:#000000;"/>
   </g>
   <g id="Poly3DCollection_64">
    <defs>
     <path d="M 146.429302 -209.082239 
L 158.255556 -218.028967 
L 158.756235 -202.456932 
L 147.009109 -193.389889 
z
" id="m57285a422b" style="stroke:#000000;"/>
    </defs>
    <g clip-path="url(#pdda3bb589d)">
     <use style="fill:#1b699f;stroke:#000000;" x="0" xlink:href="#m57285a422b" y="345.6"/>
    </g>
   </g>
   <g id="Poly3DCollection_65">
    <path clip-path="url(#pdda3bb589d)" d="M 136.293803 192.523754 
L 148.147375 183.017044 
L 148.706094 198.138674 
L 136.931893 207.756318 
z
" style="fill:#1b699f;stroke:#000000;"/>
    <path clip-path="url(#pdda3bb589d)" d="M 162.305078 215.689239 
L 161.820021 200.366159 
L 136.293803 192.523754 
L 136.931893 207.756318 
z
" style="fill:#1b699f;stroke:#000000;"/>
   </g>
   <g id="Poly3DCollection_66">
    <defs>
     <path d="M 194.986461 -235.463358 
L 221.055339 -228.378564 
L 232.063509 -237.124803 
L 206.186229 -244.051661 
z
" id="mcb570fae2f" style="stroke:#000000;"/>
    </defs>
    <g clip-path="url(#pdda3bb589d)">
     <use style="fill:#185b8a;stroke:#000000;" x="0" xlink:href="#mcb570fae2f" y="345.6"/>
    </g>
   </g>
   <g id="Poly3DCollection_67">
    <path clip-path="url(#pdda3bb589d)" d="M 273.167496 239.987868 
L 299.528196 248.135675 
L 289.337642 258.422552 
L 262.773409 250.089867 
z
" style="fill:#113f60;stroke:#000000;"/>
    <path clip-path="url(#pdda3bb589d)" d="M 289.337642 258.422552 
L 299.528196 248.135675 
L 299.898875 233.163582 
L 289.648631 243.344237 
z
" style="fill:#0d324b;stroke:#000000;"/>
   </g>
   <g id="Poly3DCollection_68">
    <path clip-path="url(#pdda3bb589d)" d="M 157.74865 111.805291 
L 169.388821 103.179918 
L 169.818944 118.823167 
L 158.255556 127.571033 
z
" style="fill:#1b699f;stroke:#000000;"/>
    <path clip-path="url(#pdda3bb589d)" d="M 157.74865 111.805291 
L 183.531051 118.920979 
L 194.986461 110.136642 
L 169.388821 103.179918 
z
" style="fill:#185b8a;stroke:#000000;"/>
   </g>
   <g id="Poly3DCollection_69">
    <defs>
     <path d="M 300.27418 -127.595371 
L 310.353474 -137.440355 
L 310.79178 -152.677542 
L 300.654199 -142.944702 
z
" id="me1aa276c10" style="stroke:#000000;"/>
    </defs>
    <g clip-path="url(#pdda3bb589d)">
     <use style="fill:#0d324b;stroke:#000000;" x="0" xlink:href="#me1aa276c10" y="345.6"/>
    </g>
   </g>
   <g id="Poly3DCollection_70">
    <defs>
     <path d="M 188.46885 -106.609463 
L 188.146703 -121.831382 
L 162.305078 -129.910761 
L 162.784134 -114.777236 
z
" id="m957f521300" style="stroke:#000000;"/>
    </defs>
    <g clip-path="url(#pdda3bb589d)">
     <use style="fill:#1b699f;stroke:#000000;" x="0" xlink:href="#m957f521300" y="345.6"/>
    </g>
   </g>
   <g id="Poly3DCollection_71">
    <path clip-path="url(#pdda3bb589d)" d="M 294.588692 160.647964 
L 294.926422 145.238999 
L 321.709306 152.590381 
L 321.203068 168.093819 
z
" style="fill:#0d324b;stroke:#000000;"/>
    <path clip-path="url(#pdda3bb589d)" d="M 311.235564 177.494887 
L 321.203068 168.093819 
L 321.709306 152.590381 
L 311.684927 161.873342 
z
" style="fill:#0d324b;stroke:#000000;"/>
   </g>
   <g id="Poly3DCollection_72">
    <path clip-path="url(#pdda3bb589d)" d="M 200.050701 243.834534 
L 225.860021 252.052492 
L 214.786465 262.428846 
L 188.787 254.023604 
z
" style="fill:#113f60;stroke:#000000;"/>
    <path clip-path="url(#pdda3bb589d)" d="M 214.786465 262.428846 
L 214.629161 247.30955 
L 188.46885 238.990537 
L 188.787 254.023604 
z
" style="fill:#1b699f;stroke:#000000;"/>
   </g>
   <g id="Poly3DCollection_73">
    <path clip-path="url(#pdda3bb589d)" d="M 135.647744 177.100954 
L 147.581756 167.708683 
L 148.147375 183.017044 
L 136.293803 192.523754 
z
" style="fill:#1b699f;stroke:#000000;"/>
    <path clip-path="url(#pdda3bb589d)" d="M 161.820021 200.366159 
L 161.32885 184.849939 
L 135.647744 177.100954 
L 136.293803 192.523754 
z
" style="fill:#1b699f;stroke:#000000;"/>
   </g>
   <g id="Poly3DCollection_74">
    <path clip-path="url(#pdda3bb589d)" d="M 268.80135 122.516013 
L 268.980835 106.820909 
L 295.61452 113.844515 
L 295.268339 129.63904 
z
" style="fill:#0d324b;stroke:#000000;"/>
    <path clip-path="url(#pdda3bb589d)" d="M 258.41614 115.529297 
L 285.257338 122.714178 
L 295.61452 113.844515 
L 268.980835 106.820909 
z
" style="fill:#185b8a;stroke:#000000;"/>
   </g>
   <g id="Poly3DCollection_75">
    <defs>
     <path d="M 289.648631 -102.255763 
L 299.898875 -112.436418 
L 300.27418 -127.595371 
L 289.963545 -117.524423 
z
" id="m40ad454b13" style="stroke:#000000;"/>
    </defs>
    <g clip-path="url(#pdda3bb589d)">
     <use style="fill:#0d324b;stroke:#000000;" x="0" xlink:href="#m40ad454b13" y="345.6"/>
    </g>
   </g>
   <g id="Poly3DCollection_76">
    <defs>
     <path d="M 300.654199 -142.944702 
L 310.79178 -152.677542 
L 311.235564 -168.105113 
L 301.039021 -158.488022 
z
" id="me853bdc5a4" style="stroke:#000000;"/>
    </defs>
    <g clip-path="url(#pdda3bb589d)">
     <use style="fill:#0d324b;stroke:#000000;" x="0" xlink:href="#me853bdc5a4" y="345.6"/>
    </g>
   </g>
   <g id="Poly3DCollection_77">
    <defs>
     <path d="M 188.146703 -121.831382 
L 187.820484 -137.245735 
L 161.820021 -145.233841 
L 162.305078 -129.910761 
z
" id="md42e12b362" style="stroke:#000000;"/>
    </defs>
    <g clip-path="url(#pdda3bb589d)">
     <use style="fill:#1b699f;stroke:#000000;" x="0" xlink:href="#md42e12b362" y="345.6"/>
    </g>
   </g>
   <g id="Poly3DCollection_78">
    <defs>
     <path d="M 221.055339 -228.378564 
L 247.608589 -221.162132 
L 258.41614 -230.070703 
L 232.063509 -237.124803 
z
" id="me7e18d4ab6" style="stroke:#000000;"/>
    </defs>
    <g clip-path="url(#pdda3bb589d)">
     <use style="fill:#185b8a;stroke:#000000;" x="0" xlink:href="#me7e18d4ab6" y="345.6"/>
    </g>
   </g>
   <g id="Poly3DCollection_79">
    <path clip-path="url(#pdda3bb589d)" d="M 294.926422 145.238999 
L 295.268339 129.63904 
L 322.221877 136.893012 
L 321.709306 152.590381 
z
" style="fill:#0d324b;stroke:#000000;"/>
    <path clip-path="url(#pdda3bb589d)" d="M 311.684927 161.873342 
L 321.709306 152.590381 
L 322.221877 136.893012 
L 312.139976 146.054142 
z
" style="fill:#0d324b;stroke:#000000;"/>
   </g>
   <g id="Poly3DCollection_80">
    <defs>
     <path d="M 183.531051 -226.679021 
L 209.79356 -219.430828 
L 221.055339 -228.378564 
L 194.986461 -235.463358 
z
" id="mea032c00b6" style="stroke:#000000;"/>
    </defs>
    <g clip-path="url(#pdda3bb589d)">
     <use style="fill:#185b8a;stroke:#000000;" x="0" xlink:href="#mea032c00b6" y="345.6"/>
    </g>
   </g>
   <g id="Poly3DCollection_81">
    <defs>
     <path d="M 214.629161 -98.29045 
L 214.469862 -113.601452 
L 188.146703 -121.831382 
L 188.46885 -106.609463 
z
" id="m40d173c881" style="stroke:#000000;"/>
    </defs>
    <g clip-path="url(#pdda3bb589d)">
     <use style="fill:#1b699f;stroke:#000000;" x="0" xlink:href="#m40d173c881" y="345.6"/>
    </g>
   </g>
   <g id="Poly3DCollection_82">
    <path clip-path="url(#pdda3bb589d)" d="M 134.993566 161.484332 
L 147.009109 152.210111 
L 147.581756 167.708683 
L 135.647744 177.100954 
z
" style="fill:#1b699f;stroke:#000000;"/>
    <path clip-path="url(#pdda3bb589d)" d="M 161.32885 184.849939 
L 160.83145 169.136906 
L 134.993566 161.484332 
L 135.647744 177.100954 
z
" style="fill:#1b699f;stroke:#000000;"/>
   </g>
   <g id="Poly3DCollection_83">
    <path clip-path="url(#pdda3bb589d)" d="M 262.773409 250.089867 
L 289.337642 258.422552 
L 278.913461 268.945264 
L 252.143217 260.421337 
z
" style="fill:#113f60;stroke:#000000;"/>
    <path clip-path="url(#pdda3bb589d)" d="M 278.913461 268.945264 
L 289.337642 258.422552 
L 289.648631 243.344237 
L 279.161899 253.759773 
z
" style="fill:#0d324b;stroke:#000000;"/>
   </g>
   <g id="Poly3DCollection_84">
    <path clip-path="url(#pdda3bb589d)" d="M 145.842201 120.627975 
L 157.74865 111.805291 
L 158.255556 127.571033 
L 146.429302 136.517761 
z
" style="fill:#1b699f;stroke:#000000;"/>
    <path clip-path="url(#pdda3bb589d)" d="M 145.842201 120.627975 
L 171.811145 127.908139 
L 183.531051 118.920979 
L 157.74865 111.805291 
z
" style="fill:#185b8a;stroke:#000000;"/>
   </g>
   <g id="Poly3DCollection_85">
    <defs>
     <path d="M 289.963545 -117.524423 
L 300.27418 -127.595371 
L 300.654199 -142.944702 
L 290.28246 -132.987053 
z
" id="m7a99ed8640" style="stroke:#000000;"/>
    </defs>
    <g clip-path="url(#pdda3bb589d)">
     <use style="fill:#0d324b;stroke:#000000;" x="0" xlink:href="#m7a99ed8640" y="345.6"/>
    </g>
   </g>
   <g id="Poly3DCollection_86">
    <path clip-path="url(#pdda3bb589d)" d="M 225.860021 252.052492 
L 252.143217 260.421337 
L 241.26878 270.990188 
L 214.786465 262.428846 
z
" style="fill:#113f60;stroke:#000000;"/>
    <path clip-path="url(#pdda3bb589d)" d="M 241.26878 270.990188 
L 241.278399 255.784042 
L 214.629161 247.30955 
L 214.786465 262.428846 
z
" style="fill:#1b699f;stroke:#000000;"/>
   </g>
   <g id="Poly3DCollection_87">
    <defs>
     <path d="M 301.039021 -158.488022 
L 311.235564 -168.105113 
L 311.684927 -183.726658 
L 301.428737 -174.229031 
z
" id="m08517971a1" style="stroke:#000000;"/>
    </defs>
    <g clip-path="url(#pdda3bb589d)">
     <use style="fill:#0d324b;stroke:#000000;" x="0" xlink:href="#m08517971a1" y="345.6"/>
    </g>
   </g>
   <g id="Poly3DCollection_88">
    <defs>
     <path d="M 187.820484 -137.245735 
L 187.490114 -152.856193 
L 161.32885 -160.750061 
L 161.820021 -145.233841 
z
" id="m758872065f" style="stroke:#000000;"/>
    </defs>
    <g clip-path="url(#pdda3bb589d)">
     <use style="fill:#1b699f;stroke:#000000;" x="0" xlink:href="#m758872065f" y="345.6"/>
    </g>
   </g>
   <g id="Poly3DCollection_89">
    <path clip-path="url(#pdda3bb589d)" d="M 295.268339 129.63904 
L 295.61452 113.844515 
L 322.7409 120.998051 
L 322.221877 136.893012 
z
" style="fill:#0d324b;stroke:#000000;"/>
    <path clip-path="url(#pdda3bb589d)" d="M 285.257338 122.714178 
L 312.600819 130.03351 
L 322.7409 120.998051 
L 295.61452 113.844515 
z
" style="fill:#185b8a;stroke:#000000;"/>
    <path clip-path="url(#pdda3bb589d)" d="M 312.139976 146.054142 
L 322.221877 136.893012 
L 322.7409 120.998051 
L 312.600819 130.03351 
z
" style="fill:#0d324b;stroke:#000000;"/>
   </g>
   <g id="Poly3DCollection_90">
    <defs>
     <path d="M 214.469862 -113.601452 
L 214.308531 -129.107828 
L 187.820484 -137.245735 
L 188.146703 -121.831382 
z
" id="m52ff626254" style="stroke:#000000;"/>
    </defs>
    <g clip-path="url(#pdda3bb589d)">
     <use style="fill:#1b699f;stroke:#000000;" x="0" xlink:href="#m52ff626254" y="345.6"/>
    </g>
   </g>
   <g id="Poly3DCollection_91">
    <defs>
     <path d="M 247.608589 -221.162132 
L 274.659839 -213.810357 
L 285.257338 -222.885822 
L 258.41614 -230.070703 
z
" id="m4f86daf1b4" style="stroke:#000000;"/>
    </defs>
    <g clip-path="url(#pdda3bb589d)">
     <use style="fill:#185b8a;stroke:#000000;" x="0" xlink:href="#m4f86daf1b4" y="345.6"/>
    </g>
   </g>
   <g id="Poly3DCollection_92">
    <path clip-path="url(#pdda3bb589d)" d="M 134.331115 145.67021 
L 146.429302 136.517761 
L 147.009109 152.210111 
L 134.993566 161.484332 
z
" style="fill:#1b699f;stroke:#000000;"/>
    <path clip-path="url(#pdda3bb589d)" d="M 160.83145 169.136906 
L 160.327699 153.223291 
L 134.331115 145.67021 
L 134.993566 161.484332 
z
" style="fill:#1b699f;stroke:#000000;"/>
   </g>
   <g id="Poly3DCollection_93">
    <defs>
     <path d="M 279.161899 -91.840227 
L 289.648631 -102.255763 
L 289.963545 -117.524423 
L 279.413511 -107.21964 
z
" id="m11c73aba97" style="stroke:#000000;"/>
    </defs>
    <g clip-path="url(#pdda3bb589d)">
     <use style="fill:#0d324b;stroke:#000000;" x="0" xlink:href="#m11c73aba97" y="345.6"/>
    </g>
   </g>
   <g id="Poly3DCollection_94">
    <defs>
     <path d="M 290.28246 -132.987053 
L 300.654199 -142.944702 
L 301.039021 -158.488022 
L 290.605452 -148.647376 
z
" id="m324eeb919e" style="stroke:#000000;"/>
    </defs>
    <g clip-path="url(#pdda3bb589d)">
     <use style="fill:#0d324b;stroke:#000000;" x="0" xlink:href="#m324eeb919e" y="345.6"/>
    </g>
   </g>
   <g id="Poly3DCollection_95">
    <defs>
     <path d="M 209.79356 -219.430828 
L 236.549713 -212.046394 
L 247.608589 -221.162132 
L 221.055339 -228.378564 
z
" id="m7e4613e115" style="stroke:#000000;"/>
    </defs>
    <g clip-path="url(#pdda3bb589d)">
     <use style="fill:#185b8a;stroke:#000000;" x="0" xlink:href="#m7e4613e115" y="345.6"/>
    </g>
   </g>
   <g id="Poly3DCollection_96">
    <defs>
     <path d="M 241.278399 -89.815958 
L 241.288141 -105.216722 
L 214.469862 -113.601452 
L 214.629161 -98.29045 
z
" id="m02d6f9ac34" style="stroke:#000000;"/>
    </defs>
    <g clip-path="url(#pdda3bb589d)">
     <use style="fill:#1b699f;stroke:#000000;" x="0" xlink:href="#m02d6f9ac34" y="345.6"/>
    </g>
   </g>
   <g id="Poly3DCollection_97">
    <defs>
     <path d="M 301.428737 -174.229031 
L 311.684927 -183.726658 
L 312.139976 -199.545858 
L 301.823441 -190.171524 
z
" id="m355bb8462e" style="stroke:#000000;"/>
    </defs>
    <g clip-path="url(#pdda3bb589d)">
     <use style="fill:#0d324b;stroke:#000000;" x="0" xlink:href="#m355bb8462e" y="345.6"/>
    </g>
   </g>
   <g id="Poly3DCollection_98">
    <defs>
     <path d="M 187.490114 -152.856193 
L 187.155514 -168.666524 
L 160.83145 -176.463094 
L 161.32885 -160.750061 
z
" id="m874351ff2e" style="stroke:#000000;"/>
    </defs>
    <g clip-path="url(#pdda3bb589d)">
     <use style="fill:#1b699f;stroke:#000000;" x="0" xlink:href="#m874351ff2e" y="345.6"/>
    </g>
   </g>
   <g id="Poly3DCollection_99">
    <defs>
     <path d="M 171.811145 -217.691861 
L 198.269307 -210.274551 
L 209.79356 -219.430828 
L 183.531051 -226.679021 
z
" id="md74220b0d7" style="stroke:#000000;"/>
    </defs>
    <g clip-path="url(#pdda3bb589d)">
     <use style="fill:#185b8a;stroke:#000000;" x="0" xlink:href="#md74220b0d7" y="345.6"/>
    </g>
   </g>
   <g id="Poly3DCollection_100">
    <path clip-path="url(#pdda3bb589d)" d="M 252.143217 260.421337 
L 278.913461 268.945264 
L 268.247525 279.712017 
L 241.26878 270.990188 
z
" style="fill:#113f60;stroke:#000000;"/>
    <path clip-path="url(#pdda3bb589d)" d="M 268.247525 279.712017 
L 278.913461 268.945264 
L 279.161899 253.759773 
L 268.430402 264.418415 
z
" style="fill:#0d324b;stroke:#000000;"/>
    <path clip-path="url(#pdda3bb589d)" d="M 268.247525 279.712017 
L 268.430402 264.418415 
L 241.278399 255.784042 
L 241.26878 270.990188 
z
" style="fill:#1b699f;stroke:#000000;"/>
   </g>
   <g id="Poly3DCollection_101">
    <defs>
     <path d="M 214.308531 -129.107828 
L 214.145128 -144.813342 
L 187.490114 -152.856193 
L 187.820484 -137.245735 
z
" id="m762536f1f0" style="stroke:#000000;"/>
    </defs>
    <g clip-path="url(#pdda3bb589d)">
     <use style="fill:#1b699f;stroke:#000000;" x="0" xlink:href="#m762536f1f0" y="345.6"/>
    </g>
   </g>
   <g id="Poly3DCollection_102">
    <path clip-path="url(#pdda3bb589d)" d="M 133.660232 129.65482 
L 145.842201 120.627975 
L 146.429302 136.517761 
L 134.331115 145.67021 
z
" style="fill:#1b699f;stroke:#000000;"/>
    <path clip-path="url(#pdda3bb589d)" d="M 133.660232 129.65482 
L 159.817477 137.105228 
L 171.811145 127.908139 
L 145.842201 120.627975 
z
" style="fill:#185b8a;stroke:#000000;"/>
    <path clip-path="url(#pdda3bb589d)" d="M 160.327699 153.223291 
L 159.817477 137.105228 
L 133.660232 129.65482 
L 134.331115 145.67021 
z
" style="fill:#1b699f;stroke:#000000;"/>
   </g>
   <g id="Poly3DCollection_103">
    <defs>
     <path d="M 279.413511 -107.21964 
L 289.963545 -117.524423 
L 290.28246 -132.987053 
L 279.668355 -122.796715 
z
" id="m9b28ce5227" style="stroke:#000000;"/>
    </defs>
    <g clip-path="url(#pdda3bb589d)">
     <use style="fill:#0d324b;stroke:#000000;" x="0" xlink:href="#m9b28ce5227" y="345.6"/>
    </g>
   </g>
   <g id="Poly3DCollection_104">
    <defs>
     <path d="M 290.605452 -148.647376 
L 301.039021 -158.488022 
L 301.428737 -174.229031 
L 290.932601 -164.509205 
z
" id="m10bb642f96" style="stroke:#000000;"/>
    </defs>
    <g clip-path="url(#pdda3bb589d)">
     <use style="fill:#0d324b;stroke:#000000;" x="0" xlink:href="#m10bb642f96" y="345.6"/>
    </g>
   </g>
   <g id="Poly3DCollection_105">
    <defs>
     <path d="M 241.288141 -105.216722 
L 241.298008 -120.815867 
L 214.308531 -129.107828 
L 214.469862 -113.601452 
z
" id="macd5a088e6" style="stroke:#000000;"/>
    </defs>
    <g clip-path="url(#pdda3bb589d)">
     <use style="fill:#1b699f;stroke:#000000;" x="0" xlink:href="#macd5a088e6" y="345.6"/>
    </g>
   </g>
   <g id="Poly3DCollection_106">
    <path clip-path="url(#pdda3bb589d)" d="M 274.659839 131.789643 
L 302.22323 139.280604 
L 312.600819 130.03351 
L 285.257338 122.714178 
z
" style="fill:#185b8a;stroke:#000000;"/>
    <path clip-path="url(#pdda3bb589d)" d="M 301.823441 155.428476 
L 312.139976 146.054142 
L 312.600819 130.03351 
L 302.22323 139.280604 
z
" style="fill:#0d324b;stroke:#000000;"/>
   </g>
   <g id="Poly3DCollection_107">
    <defs>
     <path d="M 187.155514 -168.666524 
L 186.816603 -184.68059 
L 160.327699 -192.376709 
L 160.83145 -176.463094 
z
" id="m3516cdee7d" style="stroke:#000000;"/>
    </defs>
    <g clip-path="url(#pdda3bb589d)">
     <use style="fill:#1b699f;stroke:#000000;" x="0" xlink:href="#m3516cdee7d" y="345.6"/>
    </g>
   </g>
   <g id="Poly3DCollection_108">
    <defs>
     <path d="M 236.549713 -212.046394 
L 263.813561 -204.521842 
L 274.659839 -213.810357 
L 247.608589 -221.162132 
z
" id="m9e5c876c0c" style="stroke:#000000;"/>
    </defs>
    <g clip-path="url(#pdda3bb589d)">
     <use style="fill:#185b8a;stroke:#000000;" x="0" xlink:href="#m9e5c876c0c" y="345.6"/>
    </g>
   </g>
   <g id="Poly3DCollection_109">
    <path clip-path="url(#pdda3bb589d)" d="M 268.430402 264.418415 
L 279.161899 253.759773 
L 279.413511 238.38036 
L 268.615641 248.927215 
z
" style="fill:#0d324b;stroke:#000000;"/>
    <path clip-path="url(#pdda3bb589d)" d="M 268.430402 264.418415 
L 268.615641 248.927215 
L 241.288141 240.383278 
L 241.278399 255.784042 
z
" style="fill:#1b699f;stroke:#000000;"/>
   </g>
   <g id="Poly3DCollection_110">
    <defs>
     <path d="M 214.145128 -144.813342 
L 213.979612 -160.721856 
L 187.155514 -168.666524 
L 187.490114 -152.856193 
z
" id="ma645b50c8d" style="stroke:#000000;"/>
    </defs>
    <g clip-path="url(#pdda3bb589d)">
     <use style="fill:#1b699f;stroke:#000000;" x="0" xlink:href="#ma645b50c8d" y="345.6"/>
    </g>
   </g>
   <g id="Poly3DCollection_111">
    <defs>
     <path d="M 279.668355 -122.796715 
L 290.28246 -132.987053 
L 290.605452 -148.647376 
L 279.926497 -138.575287 
z
" id="mbdad263d24" style="stroke:#000000;"/>
    </defs>
    <g clip-path="url(#pdda3bb589d)">
     <use style="fill:#0d324b;stroke:#000000;" x="0" xlink:href="#mbdad263d24" y="345.6"/>
    </g>
   </g>
   <g id="Poly3DCollection_112">
    <defs>
     <path d="M 198.269307 -210.274551 
L 225.230641 -202.71618 
L 236.549713 -212.046394 
L 209.79356 -219.430828 
z
" id="m98c591d6fe" style="stroke:#000000;"/>
    </defs>
    <g clip-path="url(#pdda3bb589d)">
     <use style="fill:#185b8a;stroke:#000000;" x="0" xlink:href="#m98c591d6fe" y="345.6"/>
    </g>
   </g>
   <g id="Poly3DCollection_113">
    <defs>
     <path d="M 290.932601 -164.509205 
L 301.428737 -174.229031 
L 301.823441 -190.171524 
L 291.263986 -180.576456 
z
" id="m9aede21080" style="stroke:#000000;"/>
    </defs>
    <g clip-path="url(#pdda3bb589d)">
     <use style="fill:#0d324b;stroke:#000000;" x="0" xlink:href="#m9aede21080" y="345.6"/>
    </g>
   </g>
   <g id="Poly3DCollection_114">
    <defs>
     <path d="M 241.298008 -120.815867 
L 241.308003 -136.61725 
L 214.145128 -144.813342 
L 214.308531 -129.107828 
z
" id="m4f8916b12f" style="stroke:#000000;"/>
    </defs>
    <g clip-path="url(#pdda3bb589d)">
     <use style="fill:#1b699f;stroke:#000000;" x="0" xlink:href="#m4f8916b12f" y="345.6"/>
    </g>
   </g>
   <g id="Poly3DCollection_115">
    <path clip-path="url(#pdda3bb589d)" d="M 159.817477 137.105228 
L 186.473295 144.697645 
L 198.269307 135.325449 
L 171.811145 127.908139 
z
" style="fill:#185b8a;stroke:#000000;"/>
    <path clip-path="url(#pdda3bb589d)" d="M 186.816603 160.91941 
L 186.473295 144.697645 
L 159.817477 137.105228 
L 160.327699 153.223291 
z
" style="fill:#1b699f;stroke:#000000;"/>
   </g>
   <g id="Poly3DCollection_116">
    <path clip-path="url(#pdda3bb589d)" d="M 268.615641 248.927215 
L 279.413511 238.38036 
L 279.668355 222.803285 
L 268.80329 233.234564 
z
" style="fill:#0d324b;stroke:#000000;"/>
    <path clip-path="url(#pdda3bb589d)" d="M 268.615641 248.927215 
L 268.80329 233.234564 
L 241.298008 224.784133 
L 241.288141 240.383278 
z
" style="fill:#1b699f;stroke:#000000;"/>
   </g>
   <g id="Poly3DCollection_117">
    <defs>
     <path d="M 213.979612 -160.721856 
L 213.811944 -176.837329 
L 186.816603 -184.68059 
L 187.155514 -168.666524 
z
" id="m97046fbfc7" style="stroke:#000000;"/>
    </defs>
    <g clip-path="url(#pdda3bb589d)">
     <use style="fill:#1b699f;stroke:#000000;" x="0" xlink:href="#m97046fbfc7" y="345.6"/>
    </g>
   </g>
   <g id="Poly3DCollection_118">
    <defs>
     <path d="M 279.926497 -138.575287 
L 290.605452 -148.647376 
L 290.932601 -164.509205 
L 280.187999 -154.55929 
z
" id="mcc3231518f" style="stroke:#000000;"/>
    </defs>
    <g clip-path="url(#pdda3bb589d)">
     <use style="fill:#0d324b;stroke:#000000;" x="0" xlink:href="#mcc3231518f" y="345.6"/>
    </g>
   </g>
   <g id="Poly3DCollection_119">
    <path clip-path="url(#pdda3bb589d)" d="M 263.813561 141.078158 
L 291.599691 148.746856 
L 302.22323 139.280604 
L 274.659839 131.789643 
z
" style="fill:#185b8a;stroke:#000000;"/>
    <path clip-path="url(#pdda3bb589d)" d="M 291.263986 165.023544 
L 301.823441 155.428476 
L 302.22323 139.280604 
L 291.599691 148.746856 
z
" style="fill:#0d324b;stroke:#000000;"/>
   </g>
   <g id="Poly3DCollection_120">
    <defs>
     <path d="M 241.308003 -136.61725 
L 241.318129 -152.624829 
L 213.979612 -160.721856 
L 214.145128 -144.813342 
z
" id="m763737b0de" style="stroke:#000000;"/>
    </defs>
    <g clip-path="url(#pdda3bb589d)">
     <use style="fill:#1b699f;stroke:#000000;" x="0" xlink:href="#m763737b0de" y="345.6"/>
    </g>
   </g>
   <g id="Poly3DCollection_121">
    <defs>
     <path d="M 225.230641 -202.71618 
L 252.709638 -195.012687 
L 263.813561 -204.521842 
L 236.549713 -212.046394 
z
" id="mbd5ea811c0" style="stroke:#000000;"/>
    </defs>
    <g clip-path="url(#pdda3bb589d)">
     <use style="fill:#185b8a;stroke:#000000;" x="0" xlink:href="#mbd5ea811c0" y="345.6"/>
    </g>
   </g>
   <g id="Poly3DCollection_122">
    <path clip-path="url(#pdda3bb589d)" d="M 268.80329 233.234564 
L 279.668355 222.803285 
L 279.926497 207.024713 
L 268.993394 217.336506 
z
" style="fill:#0d324b;stroke:#000000;"/>
    <path clip-path="url(#pdda3bb589d)" d="M 268.80329 233.234564 
L 268.993394 217.336506 
L 241.308003 208.98275 
L 241.298008 224.784133 
z
" style="fill:#1b699f;stroke:#000000;"/>
   </g>
   <g id="Poly3DCollection_123">
    <path clip-path="url(#pdda3bb589d)" d="M 186.473295 144.697645 
L 213.64208 152.436172 
L 225.230641 142.88382 
L 198.269307 135.325449 
z
" style="fill:#185b8a;stroke:#000000;"/>
    <path clip-path="url(#pdda3bb589d)" d="M 213.811944 168.762671 
L 213.64208 152.436172 
L 186.473295 144.697645 
L 186.816603 160.91941 
z
" style="fill:#1b699f;stroke:#000000;"/>
   </g>
   <g id="Poly3DCollection_124">
    <defs>
     <path d="M 280.187999 -154.55929 
L 290.932601 -164.509205 
L 291.263986 -180.576456 
L 280.452929 -170.752763 
z
" id="ma39fbaa01b" style="stroke:#000000;"/>
    </defs>
    <g clip-path="url(#pdda3bb589d)">
     <use style="fill:#0d324b;stroke:#000000;" x="0" xlink:href="#ma39fbaa01b" y="345.6"/>
    </g>
   </g>
   <g id="Poly3DCollection_125">
    <defs>
     <path d="M 241.318129 -152.624829 
L 241.328387 -168.842667 
L 213.811944 -176.837329 
L 213.979612 -160.721856 
z
" id="m7eb32a0306" style="stroke:#000000;"/>
    </defs>
    <g clip-path="url(#pdda3bb589d)">
     <use style="fill:#1b699f;stroke:#000000;" x="0" xlink:href="#m7eb32a0306" y="345.6"/>
    </g>
   </g>
   <g id="Poly3DCollection_126">
    <path clip-path="url(#pdda3bb589d)" d="M 268.993394 217.336506 
L 279.926497 207.024713 
L 280.187999 191.04071 
L 269.186004 201.228982 
z
" style="fill:#0d324b;stroke:#000000;"/>
    <path clip-path="url(#pdda3bb589d)" d="M 268.993394 217.336506 
L 269.186004 201.228982 
L 241.318129 192.975171 
L 241.308003 208.98275 
z
" style="fill:#1b699f;stroke:#000000;"/>
   </g>
   <g id="Poly3DCollection_127">
    <path clip-path="url(#pdda3bb589d)" d="M 252.709638 150.587313 
L 280.721353 158.440149 
L 291.599691 148.746856 
L 263.813561 141.078158 
z
" style="fill:#185b8a;stroke:#000000;"/>
    <path clip-path="url(#pdda3bb589d)" d="M 280.452929 174.847237 
L 291.263986 165.023544 
L 291.599691 148.746856 
L 280.721353 158.440149 
z
" style="fill:#0d324b;stroke:#000000;"/>
   </g>
   <g id="Poly3DCollection_128">
    <path clip-path="url(#pdda3bb589d)" d="M 213.64208 152.436172 
L 241.338781 160.325065 
L 252.709638 150.587313 
L 225.230641 142.88382 
z
" style="fill:#185b8a;stroke:#000000;"/>
    <path clip-path="url(#pdda3bb589d)" d="M 241.328387 176.757333 
L 241.338781 160.325065 
L 213.64208 152.436172 
L 213.811944 168.762671 
z
" style="fill:#1b699f;stroke:#000000;"/>
   </g>
   <g id="Poly3DCollection_129">
    <path clip-path="url(#pdda3bb589d)" d="M 269.186004 201.228982 
L 280.187999 191.04071 
L 280.452929 174.847237 
L 269.381168 184.907823 
z
" style="fill:#0d324b;stroke:#000000;"/>
    <path clip-path="url(#pdda3bb589d)" d="M 269.186004 201.228982 
L 269.381168 184.907823 
L 241.328387 176.757333 
L 241.318129 192.975171 
z
" style="fill:#1b699f;stroke:#000000;"/>
   </g>
   <g id="Poly3DCollection_130">
    <path clip-path="url(#pdda3bb589d)" d="M 241.338781 160.325065 
L 269.578938 168.368752 
L 280.721353 158.440149 
L 252.709638 150.587313 
z
" style="fill:#185b8a;stroke:#000000;"/>
    <path clip-path="url(#pdda3bb589d)" d="M 269.381168 184.907823 
L 280.452929 174.847237 
L 280.721353 158.440149 
L 269.578938 168.368752 
z
" style="fill:#0d324b;stroke:#000000;"/>
    <path clip-path="url(#pdda3bb589d)" d="M 269.381168 184.907823 
L 269.578938 168.368752 
L 241.338781 160.325065 
L 241.328387 176.757333 
z
" style="fill:#1b699f;stroke:#000000;"/>
   </g>
  </g>
 </g>
 <defs>
  <clipPath id="pdda3bb589d">
   <rect height="266.112" width="266.112" x="103.104" y="41.472"/>
  </clipPath>
 </defs>
</svg>
