<?xml version="1.0" encoding="utf-8" standalone="no"?>
<!DOCTYPE svg PUBLIC "-//W3C//DTD SVG 1.1//EN"
  "http://www.w3.org/Graphics/SVG/1.1/DTD/svg11.dtd">
<!-- Created with matplotlib (https://matplotlib.org/) -->
<svg height="75" version="1.1" viewBox="114.314 57.873 294.953 266.05" width="100" xmlns="http://www.w3.org/2000/svg" xmlns:xlink="http://www.w3.org/1999/xlink">
 <metadata>
  <rdf:RDF xmlns:cc="http://creativecommons.org/ns#" xmlns:dc="http://purl.org/dc/elements/1.1/" xmlns:rdf="http://www.w3.org/1999/02/22-rdf-syntax-ns#">
   <cc:Work>
    <dc:type rdf:resource="http://purl.org/dc/dcmitype/StillImage"/>
    <dc:date>2021-03-19T16:44:35.044982</dc:date>
    <dc:format>image/svg+xml</dc:format>
    <dc:creator>
     <cc:Agent>
      <dc:title>Matplotlib v3.3.4, https://matplotlib.org/</dc:title>
     </cc:Agent>
    </dc:creator>
   </cc:Work>
  </rdf:RDF>
 </metadata>
 <defs>
  <style type="text/css">*{stroke-linecap:butt;stroke-linejoin:round;}</style>
 </defs>
 <g id="figure_1">
  <g id="patch_1">
   <path d="M 0 345.6 
L 460.8 345.6 
L 460.8 0 
L 0 0 
z
" style="fill:#ffffff;"/>
  </g>
  <g id="patch_2">
   <path d="M 103.104 307.584 
L 369.216 307.584 
L 369.216 41.472 
L 103.104 41.472 
z
" style="fill:#ffffff;"/>
  </g>
  <g id="pane3d_1">
   <g id="patch_3">
    <path d="M 123.197291 241.969309 
L 211.076164 168.307495 
L 209.854564 62.073991 
L 117.770234 129.272941 
" style="fill:#f2f2f2;opacity:0.5;stroke:#f2f2f2;stroke-linejoin:miter;"/>
   </g>
  </g>
  <g id="pane3d_2">
   <g id="patch_4">
    <path d="M 211.076164 168.307495 
L 352.090401 209.294766 
L 357.122702 99.402171 
L 209.854564 62.073991 
" style="fill:#e6e6e6;opacity:0.5;stroke:#e6e6e6;stroke-linejoin:miter;"/>
   </g>
  </g>
  <g id="pane3d_3">
   <g id="patch_5">
    <path d="M 123.197291 241.969309 
L 272.679269 290.790123 
L 352.090401 209.294766 
L 211.076164 168.307495 
" style="fill:#ececec;opacity:0.5;stroke:#ececec;stroke-linejoin:miter;"/>
   </g>
  </g>
  <g id="axis3d_1">
   <g id="line2d_1">
    <path d="M 123.197291 241.969309 
L 272.679269 290.790123 
" style="fill:none;stroke:#000000;stroke-linecap:square;stroke-width:0.8;"/>
   </g>
   <g id="text_1">
    <!-- Phases -->
    <g style="fill:#008000;" transform="translate(135.866758 293.957014)rotate(-341.912962)scale(0.25 -0.25)">
     <defs>
      <path d="M 19.671875 64.796875 
L 19.671875 37.40625 
L 32.078125 37.40625 
Q 38.96875 37.40625 42.71875 40.96875 
Q 46.484375 44.53125 46.484375 51.125 
Q 46.484375 57.671875 42.71875 61.234375 
Q 38.96875 64.796875 32.078125 64.796875 
z
M 9.8125 72.90625 
L 32.078125 72.90625 
Q 44.34375 72.90625 50.609375 67.359375 
Q 56.890625 61.8125 56.890625 51.125 
Q 56.890625 40.328125 50.609375 34.8125 
Q 44.34375 29.296875 32.078125 29.296875 
L 19.671875 29.296875 
L 19.671875 0 
L 9.8125 0 
z
" id="DejaVuSans-80"/>
      <path d="M 54.890625 33.015625 
L 54.890625 0 
L 45.90625 0 
L 45.90625 32.71875 
Q 45.90625 40.484375 42.875 44.328125 
Q 39.84375 48.1875 33.796875 48.1875 
Q 26.515625 48.1875 22.3125 43.546875 
Q 18.109375 38.921875 18.109375 30.90625 
L 18.109375 0 
L 9.078125 0 
L 9.078125 75.984375 
L 18.109375 75.984375 
L 18.109375 46.1875 
Q 21.34375 51.125 25.703125 53.5625 
Q 30.078125 56 35.796875 56 
Q 45.21875 56 50.046875 50.171875 
Q 54.890625 44.34375 54.890625 33.015625 
z
" id="DejaVuSans-104"/>
      <path d="M 34.28125 27.484375 
Q 23.390625 27.484375 19.1875 25 
Q 14.984375 22.515625 14.984375 16.5 
Q 14.984375 11.71875 18.140625 8.90625 
Q 21.296875 6.109375 26.703125 6.109375 
Q 34.1875 6.109375 38.703125 11.40625 
Q 43.21875 16.703125 43.21875 25.484375 
L 43.21875 27.484375 
z
M 52.203125 31.203125 
L 52.203125 0 
L 43.21875 0 
L 43.21875 8.296875 
Q 40.140625 3.328125 35.546875 0.953125 
Q 30.953125 -1.421875 24.3125 -1.421875 
Q 15.921875 -1.421875 10.953125 3.296875 
Q 6 8.015625 6 15.921875 
Q 6 25.140625 12.171875 29.828125 
Q 18.359375 34.515625 30.609375 34.515625 
L 43.21875 34.515625 
L 43.21875 35.40625 
Q 43.21875 41.609375 39.140625 45 
Q 35.0625 48.390625 27.6875 48.390625 
Q 23 48.390625 18.546875 47.265625 
Q 14.109375 46.140625 10.015625 43.890625 
L 10.015625 52.203125 
Q 14.9375 54.109375 19.578125 55.046875 
Q 24.21875 56 28.609375 56 
Q 40.484375 56 46.34375 49.84375 
Q 52.203125 43.703125 52.203125 31.203125 
z
" id="DejaVuSans-97"/>
      <path d="M 44.28125 53.078125 
L 44.28125 44.578125 
Q 40.484375 46.53125 36.375 47.5 
Q 32.28125 48.484375 27.875 48.484375 
Q 21.1875 48.484375 17.84375 46.4375 
Q 14.5 44.390625 14.5 40.28125 
Q 14.5 37.15625 16.890625 35.375 
Q 19.28125 33.59375 26.515625 31.984375 
L 29.59375 31.296875 
Q 39.15625 29.25 43.1875 25.515625 
Q 47.21875 21.78125 47.21875 15.09375 
Q 47.21875 7.46875 41.1875 3.015625 
Q 35.15625 -1.421875 24.609375 -1.421875 
Q 20.21875 -1.421875 15.453125 -0.5625 
Q 10.6875 0.296875 5.421875 2 
L 5.421875 11.28125 
Q 10.40625 8.6875 15.234375 7.390625 
Q 20.0625 6.109375 24.8125 6.109375 
Q 31.15625 6.109375 34.5625 8.28125 
Q 37.984375 10.453125 37.984375 14.40625 
Q 37.984375 18.0625 35.515625 20.015625 
Q 33.0625 21.96875 24.703125 23.78125 
L 21.578125 24.515625 
Q 13.234375 26.265625 9.515625 29.90625 
Q 5.8125 33.546875 5.8125 39.890625 
Q 5.8125 47.609375 11.28125 51.796875 
Q 16.75 56 26.8125 56 
Q 31.78125 56 36.171875 55.265625 
Q 40.578125 54.546875 44.28125 53.078125 
z
" id="DejaVuSans-115"/>
      <path d="M 56.203125 29.59375 
L 56.203125 25.203125 
L 14.890625 25.203125 
Q 15.484375 15.921875 20.484375 11.0625 
Q 25.484375 6.203125 34.421875 6.203125 
Q 39.59375 6.203125 44.453125 7.46875 
Q 49.3125 8.734375 54.109375 11.28125 
L 54.109375 2.78125 
Q 49.265625 0.734375 44.1875 -0.34375 
Q 39.109375 -1.421875 33.890625 -1.421875 
Q 20.796875 -1.421875 13.15625 6.1875 
Q 5.515625 13.8125 5.515625 26.8125 
Q 5.515625 40.234375 12.765625 48.109375 
Q 20.015625 56 32.328125 56 
Q 43.359375 56 49.78125 48.890625 
Q 56.203125 41.796875 56.203125 29.59375 
z
M 47.21875 32.234375 
Q 47.125 39.59375 43.09375 43.984375 
Q 39.0625 48.390625 32.421875 48.390625 
Q 24.90625 48.390625 20.390625 44.140625 
Q 15.875 39.890625 15.1875 32.171875 
z
" id="DejaVuSans-101"/>
     </defs>
     <use xlink:href="#DejaVuSans-80"/>
     <use x="60.302734" xlink:href="#DejaVuSans-104"/>
     <use x="123.681641" xlink:href="#DejaVuSans-97"/>
     <use x="184.960938" xlink:href="#DejaVuSans-115"/>
     <use x="237.060547" xlink:href="#DejaVuSans-101"/>
     <use x="298.583984" xlink:href="#DejaVuSans-115"/>
    </g>
   </g>
   <g id="Line3DCollection_1">
    <path d="M 132.250704 244.926154 
L 219.652219 170.800215 
L 218.79322 64.33968 
" style="fill:none;stroke:#b0b0b0;stroke-width:0.8;"/>
    <path d="M 157.390529 253.13682 
L 243.442418 177.715087 
L 243.601294 70.627803 
" style="fill:none;stroke:#b0b0b0;stroke-width:0.8;"/>
    <path d="M 182.990962 261.497922 
L 267.632176 184.746095 
L 268.844138 77.026128 
" style="fill:none;stroke:#b0b0b0;stroke-width:0.8;"/>
    <path d="M 209.06478 270.013631 
L 292.231644 191.896189 
L 294.53328 83.537577 
" style="fill:none;stroke:#b0b0b0;stroke-width:0.8;"/>
    <path d="M 235.625236 278.688276 
L 317.25132 199.168421 
L 320.680664 90.165177 
" style="fill:none;stroke:#b0b0b0;stroke-width:0.8;"/>
    <path d="M 262.686081 287.526347 
L 342.702063 206.565947 
L 347.298659 96.912062 
" style="fill:none;stroke:#b0b0b0;stroke-width:0.8;"/>
   </g>
   <g id="xtick_1">
    <g id="line2d_2">
     <path d="M 133.011792 244.280669 
L 130.725263 246.219892 
" style="fill:none;stroke:#000000;stroke-linecap:square;stroke-width:0.8;"/>
    </g>
   </g>
   <g id="xtick_2">
    <g id="line2d_3">
     <path d="M 158.140416 252.479568 
L 155.887507 254.454171 
" style="fill:none;stroke:#000000;stroke-linecap:square;stroke-width:0.8;"/>
    </g>
   </g>
   <g id="xtick_3">
    <g id="line2d_4">
     <path d="M 183.72911 260.828577 
L 181.511441 262.839538 
" style="fill:none;stroke:#000000;stroke-linecap:square;stroke-width:0.8;"/>
    </g>
   </g>
   <g id="xtick_4">
    <g id="line2d_5">
     <path d="M 209.790625 269.331856 
L 207.609891 271.380188 
" style="fill:none;stroke:#000000;stroke-linecap:square;stroke-width:0.8;"/>
    </g>
   </g>
   <g id="xtick_5">
    <g id="line2d_6">
     <path d="M 236.338187 277.993721 
L 234.196161 280.080476 
" style="fill:none;stroke:#000000;stroke-linecap:square;stroke-width:0.8;"/>
    </g>
   </g>
   <g id="xtick_6">
    <g id="line2d_7">
     <path d="M 263.385522 286.818651 
L 261.284057 288.94492 
" style="fill:none;stroke:#000000;stroke-linecap:square;stroke-width:0.8;"/>
    </g>
   </g>
  </g>
  <g id="axis3d_2">
   <g id="line2d_8">
    <path d="M 352.090401 209.294766 
L 272.679269 290.790123 
" style="fill:none;stroke:#000000;stroke-linecap:square;stroke-width:0.8;"/>
   </g>
   <g id="text_2">
    <!-- Levels -->
    <g style="fill:#ff0000;" transform="translate(318.498687 309.342191)rotate(-45.742112)scale(0.25 -0.25)">
     <defs>
      <path d="M 9.8125 72.90625 
L 19.671875 72.90625 
L 19.671875 8.296875 
L 55.171875 8.296875 
L 55.171875 0 
L 9.8125 0 
z
" id="DejaVuSans-76"/>
      <path d="M 2.984375 54.6875 
L 12.5 54.6875 
L 29.59375 8.796875 
L 46.6875 54.6875 
L 56.203125 54.6875 
L 35.6875 0 
L 23.484375 0 
z
" id="DejaVuSans-118"/>
      <path d="M 9.421875 75.984375 
L 18.40625 75.984375 
L 18.40625 0 
L 9.421875 0 
z
" id="DejaVuSans-108"/>
     </defs>
     <use xlink:href="#DejaVuSans-76"/>
     <use x="53.962891" xlink:href="#DejaVuSans-101"/>
     <use x="115.486328" xlink:href="#DejaVuSans-118"/>
     <use x="174.666016" xlink:href="#DejaVuSans-101"/>
     <use x="236.189453" xlink:href="#DejaVuSans-108"/>
     <use x="263.972656" xlink:href="#DejaVuSans-115"/>
    </g>
   </g>
   <g id="Line3DCollection_2">
    <path d="M 124.138093 124.625967 
L 129.252888 236.893387 
L 278.173905 285.151275 
" style="fill:none;stroke:#b0b0b0;stroke-width:0.8;"/>
    <path d="M 136.398896 115.678592 
L 140.921401 227.112609 
L 288.752062 274.295483 
" style="fill:none;stroke:#b0b0b0;stroke-width:0.8;"/>
    <path d="M 148.383067 106.933089 
L 152.338041 217.542954 
L 299.089871 263.686348 
" style="fill:none;stroke:#b0b0b0;stroke-width:0.8;"/>
    <path d="M 160.099865 98.382704 
L 163.510876 208.177662 
L 309.195429 253.315559 
" style="fill:none;stroke:#b0b0b0;stroke-width:0.8;"/>
    <path d="M 171.558138 90.020978 
L 174.447634 199.010255 
L 319.076477 243.175173 
" style="fill:none;stroke:#b0b0b0;stroke-width:0.8;"/>
    <path d="M 182.766349 81.841737 
L 185.155719 190.034527 
L 328.740415 233.257596 
" style="fill:none;stroke:#b0b0b0;stroke-width:0.8;"/>
    <path d="M 193.732596 73.839069 
L 195.642227 181.244527 
L 338.194319 223.555564 
" style="fill:none;stroke:#b0b0b0;stroke-width:0.8;"/>
    <path d="M 204.46463 66.007319 
L 205.913967 172.634551 
L 347.444965 214.062126 
" style="fill:none;stroke:#b0b0b0;stroke-width:0.8;"/>
   </g>
   <g id="xtick_7">
    <g id="line2d_9">
     <path d="M 276.918943 284.744604 
L 280.687074 285.965668 
" style="fill:none;stroke:#000000;stroke-linecap:square;stroke-width:0.8;"/>
    </g>
   </g>
   <g id="xtick_8">
    <g id="line2d_10">
     <path d="M 287.507014 273.898102 
L 291.245342 275.091259 
" style="fill:none;stroke:#000000;stroke-linecap:square;stroke-width:0.8;"/>
    </g>
   </g>
   <g id="xtick_9">
    <g id="line2d_11">
     <path d="M 297.854612 263.297944 
L 301.56351 264.464138 
" style="fill:none;stroke:#000000;stroke-linecap:square;stroke-width:0.8;"/>
    </g>
   </g>
   <g id="xtick_10">
    <g id="line2d_12">
     <path d="M 307.969837 252.93583 
L 311.649677 254.075966 
" style="fill:none;stroke:#000000;stroke-linecap:square;stroke-width:0.8;"/>
    </g>
   </g>
   <g id="xtick_11">
    <g id="line2d_13">
     <path d="M 317.860429 242.803832 
L 321.511579 243.918774 
" style="fill:none;stroke:#000000;stroke-linecap:square;stroke-width:0.8;"/>
    </g>
   </g>
   <g id="xtick_12">
    <g id="line2d_14">
     <path d="M 327.533789 232.894367 
L 331.156615 233.984941 
" style="fill:none;stroke:#000000;stroke-linecap:square;stroke-width:0.8;"/>
    </g>
   </g>
   <g id="xtick_13">
    <g id="line2d_15">
     <path d="M 336.996996 223.200185 
L 340.59186 224.267181 
" style="fill:none;stroke:#000000;stroke-linecap:square;stroke-width:0.8;"/>
    </g>
   </g>
   <g id="xtick_14">
    <g id="line2d_16">
     <path d="M 346.256825 213.714346 
L 349.824086 214.758519 
" style="fill:none;stroke:#000000;stroke-linecap:square;stroke-width:0.8;"/>
    </g>
   </g>
  </g>
  <g id="axis3d_3">
   <g id="line2d_17">
    <path d="M 352.090401 209.294766 
L 357.122702 99.402171 
" style="fill:none;stroke:#000000;stroke-linecap:square;stroke-width:0.8;"/>
   </g>
   <g id="text_3">
    <!-- Aspects -->
    <g style="fill:#0000ff;" transform="translate(399.578104 199.381813)rotate(-87.378092)scale(0.25 -0.25)">
     <defs>
      <path d="M 34.1875 63.1875 
L 20.796875 26.90625 
L 47.609375 26.90625 
z
M 28.609375 72.90625 
L 39.796875 72.90625 
L 67.578125 0 
L 57.328125 0 
L 50.6875 18.703125 
L 17.828125 18.703125 
L 11.1875 0 
L 0.78125 0 
z
" id="DejaVuSans-65"/>
      <path d="M 18.109375 8.203125 
L 18.109375 -20.796875 
L 9.078125 -20.796875 
L 9.078125 54.6875 
L 18.109375 54.6875 
L 18.109375 46.390625 
Q 20.953125 51.265625 25.265625 53.625 
Q 29.59375 56 35.59375 56 
Q 45.5625 56 51.78125 48.09375 
Q 58.015625 40.1875 58.015625 27.296875 
Q 58.015625 14.40625 51.78125 6.484375 
Q 45.5625 -1.421875 35.59375 -1.421875 
Q 29.59375 -1.421875 25.265625 0.953125 
Q 20.953125 3.328125 18.109375 8.203125 
z
M 48.6875 27.296875 
Q 48.6875 37.203125 44.609375 42.84375 
Q 40.53125 48.484375 33.40625 48.484375 
Q 26.265625 48.484375 22.1875 42.84375 
Q 18.109375 37.203125 18.109375 27.296875 
Q 18.109375 17.390625 22.1875 11.75 
Q 26.265625 6.109375 33.40625 6.109375 
Q 40.53125 6.109375 44.609375 11.75 
Q 48.6875 17.390625 48.6875 27.296875 
z
" id="DejaVuSans-112"/>
      <path d="M 48.78125 52.59375 
L 48.78125 44.1875 
Q 44.96875 46.296875 41.140625 47.34375 
Q 37.3125 48.390625 33.40625 48.390625 
Q 24.65625 48.390625 19.8125 42.84375 
Q 14.984375 37.3125 14.984375 27.296875 
Q 14.984375 17.28125 19.8125 11.734375 
Q 24.65625 6.203125 33.40625 6.203125 
Q 37.3125 6.203125 41.140625 7.25 
Q 44.96875 8.296875 48.78125 10.40625 
L 48.78125 2.09375 
Q 45.015625 0.34375 40.984375 -0.53125 
Q 36.96875 -1.421875 32.421875 -1.421875 
Q 20.0625 -1.421875 12.78125 6.34375 
Q 5.515625 14.109375 5.515625 27.296875 
Q 5.515625 40.671875 12.859375 48.328125 
Q 20.21875 56 33.015625 56 
Q 37.15625 56 41.109375 55.140625 
Q 45.0625 54.296875 48.78125 52.59375 
z
" id="DejaVuSans-99"/>
      <path d="M 18.3125 70.21875 
L 18.3125 54.6875 
L 36.8125 54.6875 
L 36.8125 47.703125 
L 18.3125 47.703125 
L 18.3125 18.015625 
Q 18.3125 11.328125 20.140625 9.421875 
Q 21.96875 7.515625 27.59375 7.515625 
L 36.8125 7.515625 
L 36.8125 0 
L 27.59375 0 
Q 17.1875 0 13.234375 3.875 
Q 9.28125 7.765625 9.28125 18.015625 
L 9.28125 47.703125 
L 2.6875 47.703125 
L 2.6875 54.6875 
L 9.28125 54.6875 
L 9.28125 70.21875 
z
" id="DejaVuSans-116"/>
     </defs>
     <use xlink:href="#DejaVuSans-65"/>
     <use x="68.408203" xlink:href="#DejaVuSans-115"/>
     <use x="120.507812" xlink:href="#DejaVuSans-112"/>
     <use x="183.984375" xlink:href="#DejaVuSans-101"/>
     <use x="245.507812" xlink:href="#DejaVuSans-99"/>
     <use x="300.488281" xlink:href="#DejaVuSans-116"/>
     <use x="339.697266" xlink:href="#DejaVuSans-115"/>
    </g>
   </g>
   <g id="Line3DCollection_3">
    <path d="M 352.186814 207.189346 
L 211.052711 166.26796 
L 123.093487 239.813739 
" style="fill:none;stroke:#b0b0b0;stroke-width:0.8;"/>
    <path d="M 352.852418 192.654242 
L 210.890852 152.192211 
L 122.376672 224.928624 
" style="fill:none;stroke:#b0b0b0;stroke-width:0.8;"/>
    <path d="M 353.525951 177.946013 
L 210.727156 137.956815 
L 121.650995 209.85946 
" style="fill:none;stroke:#b0b0b0;stroke-width:0.8;"/>
    <path d="M 354.207554 163.061549 
L 210.561593 123.559038 
L 120.916289 194.602813 
" style="fill:none;stroke:#b0b0b0;stroke-width:0.8;"/>
    <path d="M 354.897373 147.997662 
L 210.394131 108.996088 
L 120.172384 179.15516 
" style="fill:none;stroke:#b0b0b0;stroke-width:0.8;"/>
    <path d="M 355.595558 132.751088 
L 210.224736 94.265106 
L 119.419108 163.512893 
" style="fill:none;stroke:#b0b0b0;stroke-width:0.8;"/>
    <path d="M 356.302262 117.318485 
L 210.053376 79.363166 
L 118.656282 147.672311 
" style="fill:none;stroke:#b0b0b0;stroke-width:0.8;"/>
    <path d="M 357.017641 101.696426 
L 209.880015 64.287274 
L 117.883723 131.629618 
" style="fill:none;stroke:#b0b0b0;stroke-width:0.8;"/>
   </g>
   <g id="xtick_15">
    <g id="line2d_18">
     <path d="M 351.002262 206.845889 
L 354.558736 207.877077 
" style="fill:none;stroke:#000000;stroke-linecap:square;stroke-width:0.8;"/>
    </g>
   </g>
   <g id="xtick_16">
    <g id="line2d_19">
     <path d="M 351.660592 192.314546 
L 355.238926 193.334446 
" style="fill:none;stroke:#000000;stroke-linecap:square;stroke-width:0.8;"/>
    </g>
   </g>
   <g id="xtick_17">
    <g id="line2d_20">
     <path d="M 352.326759 177.610193 
L 355.927223 178.618462 
" style="fill:none;stroke:#000000;stroke-linecap:square;stroke-width:0.8;"/>
    </g>
   </g>
   <g id="xtick_18">
    <g id="line2d_21">
     <path d="M 353.000906 162.729722 
L 356.623774 163.726007 
" style="fill:none;stroke:#000000;stroke-linecap:square;stroke-width:0.8;"/>
    </g>
   </g>
   <g id="xtick_19">
    <g id="line2d_22">
     <path d="M 353.683175 147.669949 
L 357.328729 148.653887 
" style="fill:none;stroke:#000000;stroke-linecap:square;stroke-width:0.8;"/>
    </g>
   </g>
   <g id="xtick_20">
    <g id="line2d_23">
     <path d="M 354.373715 132.427614 
L 358.042239 133.398832 
" style="fill:none;stroke:#000000;stroke-linecap:square;stroke-width:0.8;"/>
    </g>
   </g>
   <g id="xtick_21">
    <g id="line2d_24">
     <path d="M 355.072678 116.999377 
L 358.764463 117.957489 
" style="fill:none;stroke:#000000;stroke-linecap:square;stroke-width:0.8;"/>
    </g>
   </g>
   <g id="xtick_22">
    <g id="line2d_25">
     <path d="M 355.780217 101.381816 
L 359.495561 102.326427 
" style="fill:none;stroke:#000000;stroke-linecap:square;stroke-width:0.8;"/>
    </g>
   </g>
  </g>
  <g id="axes_1">
   <g id="Poly3DCollection_1">
    <path clip-path="url(#paf03d71b18)" d="M 193.838821 190.580933 
L 193.572224 176.229537 
L 217.933499 183.422361 
L 218.060548 197.854671 
z
" style="fill:#0d324b;stroke:#000000;"/>
    <path clip-path="url(#paf03d71b18)" d="M 182.84827 185.14655 
L 193.572224 176.229537 
L 193.838821 190.580933 
L 183.180256 199.598149 
z
" style="fill:#1b699f;stroke:#000000;"/>
    <path clip-path="url(#paf03d71b18)" d="M 193.838821 190.580933 
L 218.060548 197.854671 
L 207.56895 207.027682 
L 183.180256 199.598149 
z
" style="fill:#113f60;stroke:#000000;"/>
   </g>
   <g id="Poly3DCollection_2">
    <path clip-path="url(#paf03d71b18)" d="M 193.572224 176.229537 
L 193.302513 161.710518 
L 217.804953 168.820023 
L 217.933499 183.422361 
z
" style="fill:#0d324b;stroke:#000000;"/>
    <path clip-path="url(#paf03d71b18)" d="M 182.512365 170.524346 
L 193.302513 161.710518 
L 193.572224 176.229537 
L 182.84827 185.14655 
z
" style="fill:#1b699f;stroke:#000000;"/>
   </g>
   <g id="Poly3DCollection_3">
    <path clip-path="url(#paf03d71b18)" d="M 193.302513 161.710518 
L 193.029633 147.020923 
L 217.674883 154.044636 
L 217.804953 168.820023 
z
" style="fill:#0d324b;stroke:#000000;"/>
    <path clip-path="url(#paf03d71b18)" d="M 182.172472 155.728499 
L 193.029633 147.020923 
L 193.302513 161.710518 
L 182.512365 170.524346 
z
" style="fill:#1b699f;stroke:#000000;"/>
   </g>
   <g id="Poly3DCollection_4">
    <path clip-path="url(#paf03d71b18)" d="M 171.893021 194.255887 
L 182.84827 185.14655 
L 183.180256 199.598149 
L 172.293161 208.808703 
z
" style="fill:#1b699f;stroke:#000000;"/>
    <path clip-path="url(#paf03d71b18)" d="M 183.180256 199.598149 
L 207.56895 207.027682 
L 196.850435 216.399091 
L 172.293161 208.808703 
z
" style="fill:#113f60;stroke:#000000;"/>
   </g>
   <g id="Poly3DCollection_5">
    <defs>
     <path d="M 171.488106 -166.070593 
L 182.512365 -175.075654 
L 182.84827 -160.45345 
L 171.893021 -151.344113 
z
" id="mef5a86fe63" style="stroke:#000000;"/>
    </defs>
    <g clip-path="url(#paf03d71b18)">
     <use style="fill:#1b699f;stroke:#000000;" x="0" xlink:href="#mef5a86fe63" y="345.6"/>
    </g>
   </g>
   <g id="Poly3DCollection_6">
    <path clip-path="url(#paf03d71b18)" d="M 218.060548 197.854671 
L 217.933499 183.422361 
L 242.717724 190.740063 
L 242.700333 205.253951 
z
" style="fill:#0d324b;stroke:#000000;"/>
    <path clip-path="url(#paf03d71b18)" d="M 218.060548 197.854671 
L 242.700333 205.253951 
L 232.383126 214.58683 
L 207.56895 207.027682 
z
" style="fill:#113f60;stroke:#000000;"/>
    <path clip-path="url(#paf03d71b18)" d="M 232.383126 214.58683 
L 242.700333 205.253951 
L 242.717724 190.740063 
L 232.339103 199.971101 
z
" style="fill:#0d324b;stroke:#000000;"/>
   </g>
   <g id="Poly3DCollection_7">
    <path clip-path="url(#paf03d71b18)" d="M 193.029633 147.020923 
L 192.753528 132.157727 
L 217.543263 139.093106 
L 217.674883 154.044636 
z
" style="fill:#0d324b;stroke:#000000;"/>
    <path clip-path="url(#paf03d71b18)" d="M 181.828517 140.755897 
L 192.753528 132.157727 
L 193.029633 147.020923 
L 182.172472 155.728499 
z
" style="fill:#1b699f;stroke:#000000;"/>
   </g>
   <g id="Poly3DCollection_8">
    <defs>
     <path d="M 171.078329 -180.973863 
L 182.172472 -189.871501 
L 182.512365 -175.075654 
L 171.488106 -166.070593 
z
" id="m2b30ed97de" style="stroke:#000000;"/>
    </defs>
    <g clip-path="url(#paf03d71b18)">
     <use style="fill:#1b699f;stroke:#000000;" x="0" xlink:href="#m2b30ed97de" y="345.6"/>
    </g>
   </g>
   <g id="Poly3DCollection_9">
    <path clip-path="url(#paf03d71b18)" d="M 217.933499 183.422361 
L 217.804953 168.820023 
L 242.735322 176.053694 
L 242.717724 190.740063 
z
" style="fill:#0d324b;stroke:#000000;"/>
    <path clip-path="url(#paf03d71b18)" d="M 232.339103 199.971101 
L 242.717724 190.740063 
L 242.735322 176.053694 
L 232.29455 185.179784 
z
" style="fill:#0d324b;stroke:#000000;"/>
   </g>
   <g id="Poly3DCollection_10">
    <path clip-path="url(#paf03d71b18)" d="M 192.753528 132.157727 
L 192.474141 117.117835 
L 217.410065 123.962263 
L 217.543263 139.093106 
z
" style="fill:#0d324b;stroke:#000000;"/>
    <path clip-path="url(#paf03d71b18)" d="M 181.480429 125.603354 
L 192.474141 117.117835 
L 192.753528 132.157727 
L 181.828517 140.755897 
z
" style="fill:#1b699f;stroke:#000000;"/>
   </g>
   <g id="Poly3DCollection_11">
    <path clip-path="url(#paf03d71b18)" d="M 160.69891 203.563838 
L 171.893021 194.255887 
L 172.293161 208.808703 
L 161.170105 218.218882 
z
" style="fill:#1b699f;stroke:#000000;"/>
    <path clip-path="url(#paf03d71b18)" d="M 172.293161 208.808703 
L 196.850435 216.399091 
L 185.897561 225.975405 
L 161.170105 218.218882 
z
" style="fill:#113f60;stroke:#000000;"/>
   </g>
   <g id="Poly3DCollection_12">
    <defs>
     <path d="M 160.22203 -156.868007 
L 171.488106 -166.070593 
L 171.893021 -151.344113 
L 160.69891 -142.036162 
z
" id="me905edbf13" style="stroke:#000000;"/>
    </defs>
    <g clip-path="url(#paf03d71b18)">
     <use style="fill:#1b699f;stroke:#000000;" x="0" xlink:href="#me905edbf13" y="345.6"/>
    </g>
   </g>
   <g id="Poly3DCollection_13">
    <path clip-path="url(#paf03d71b18)" d="M 207.56895 207.027682 
L 232.383126 214.58683 
L 221.840807 224.123344 
L 196.850435 216.399091 
z
" style="fill:#113f60;stroke:#000000;"/>
    <path clip-path="url(#paf03d71b18)" d="M 221.840807 224.123344 
L 232.383126 214.58683 
L 232.339103 199.971101 
L 221.732661 209.404768 
z
" style="fill:#0d324b;stroke:#000000;"/>
   </g>
   <g id="Poly3DCollection_14">
    <defs>
     <path d="M 170.663604 -196.057126 
L 181.828517 -204.844103 
L 182.172472 -189.871501 
L 171.078329 -180.973863 
z
" id="m17669bf62f" style="stroke:#000000;"/>
    </defs>
    <g clip-path="url(#paf03d71b18)">
     <use style="fill:#1b699f;stroke:#000000;" x="0" xlink:href="#m17669bf62f" y="345.6"/>
    </g>
   </g>
   <g id="Poly3DCollection_15">
    <path clip-path="url(#paf03d71b18)" d="M 217.804953 168.820023 
L 217.674883 154.044636 
L 242.75313 161.191751 
L 242.735322 176.053694 
z
" style="fill:#0d324b;stroke:#000000;"/>
    <path clip-path="url(#paf03d71b18)" d="M 232.29455 185.179784 
L 242.735322 176.053694 
L 242.75313 161.191751 
L 232.249459 170.209695 
z
" style="fill:#0d324b;stroke:#000000;"/>
   </g>
   <g id="Poly3DCollection_16">
    <path clip-path="url(#paf03d71b18)" d="M 192.474141 117.117835 
L 192.191413 101.898078 
L 217.275259 108.648862 
L 217.410065 123.962263 
z
" style="fill:#0d324b;stroke:#000000;"/>
    <path clip-path="url(#paf03d71b18)" d="M 181.128132 110.267606 
L 192.191413 101.898078 
L 192.474141 117.117835 
L 181.480429 125.603354 
z
" style="fill:#1b699f;stroke:#000000;"/>
   </g>
   <g id="Poly3DCollection_17">
    <defs>
     <path d="M 159.739362 -171.879872 
L 171.078329 -180.973863 
L 171.488106 -166.070593 
L 160.22203 -156.868007 
z
" id="m747d59027f" style="stroke:#000000;"/>
    </defs>
    <g clip-path="url(#paf03d71b18)">
     <use style="fill:#1b699f;stroke:#000000;" x="0" xlink:href="#m747d59027f" y="345.6"/>
    </g>
   </g>
   <g id="Poly3DCollection_18">
    <defs>
     <path d="M 221.732661 -136.195232 
L 232.339103 -145.628899 
L 232.29455 -160.420216 
L 221.623202 -151.092584 
z
" id="mb5e0b2de18" style="stroke:#000000;"/>
    </defs>
    <g clip-path="url(#paf03d71b18)">
     <use style="fill:#0d324b;stroke:#000000;" x="0" xlink:href="#mb5e0b2de18" y="345.6"/>
    </g>
   </g>
   <g id="Poly3DCollection_19">
    <defs>
     <path d="M 170.24384 -211.323662 
L 181.480429 -219.996646 
L 181.828517 -204.844103 
L 170.663604 -196.057126 
z
" id="m3f7f8907fb" style="stroke:#000000;"/>
    </defs>
    <g clip-path="url(#paf03d71b18)">
     <use style="fill:#1b699f;stroke:#000000;" x="0" xlink:href="#m3f7f8907fb" y="345.6"/>
    </g>
   </g>
   <g id="Poly3DCollection_20">
    <path clip-path="url(#paf03d71b18)" d="M 149.25804 213.07697 
L 160.69891 203.563838 
L 161.170105 218.218882 
L 149.803334 227.835245 
z
" style="fill:#1b699f;stroke:#000000;"/>
    <path clip-path="url(#paf03d71b18)" d="M 161.170105 218.218882 
L 185.897561 225.975405 
L 174.702556 235.763418 
L 149.803334 227.835245 
z
" style="fill:#113f60;stroke:#000000;"/>
   </g>
   <g id="Poly3DCollection_21">
    <path clip-path="url(#paf03d71b18)" d="M 217.674883 154.044636 
L 217.543263 139.093106 
L 242.771152 146.151066 
L 242.75313 161.191751 
z
" style="fill:#0d324b;stroke:#000000;"/>
    <path clip-path="url(#paf03d71b18)" d="M 232.249459 170.209695 
L 242.75313 161.191751 
L 242.771152 146.151066 
L 232.203819 155.057574 
z
" style="fill:#0d324b;stroke:#000000;"/>
   </g>
   <g id="Poly3DCollection_22">
    <defs>
     <path d="M 148.706094 -147.461326 
L 160.22203 -156.868007 
L 160.69891 -142.036162 
L 149.25804 -132.52303 
z
" id="m0e18e15918" style="stroke:#000000;"/>
    </defs>
    <g clip-path="url(#paf03d71b18)">
     <use style="fill:#1b699f;stroke:#000000;" x="0" xlink:href="#m0e18e15918" y="345.6"/>
    </g>
   </g>
   <g id="Poly3DCollection_23">
    <path clip-path="url(#paf03d71b18)" d="M 196.850435 216.399091 
L 221.840807 224.123344 
L 211.065925 233.870232 
L 185.897561 225.975405 
z
" style="fill:#113f60;stroke:#000000;"/>
    <path clip-path="url(#paf03d71b18)" d="M 211.065925 233.870232 
L 221.840807 224.123344 
L 221.732661 209.404768 
L 210.890815 219.047811 
z
" style="fill:#0d324b;stroke:#000000;"/>
   </g>
   <g id="Poly3DCollection_24">
    <defs>
     <path d="M 159.2508 -187.075054 
L 170.663604 -196.057126 
L 171.078329 -180.973863 
L 159.739362 -171.879872 
z
" id="m7eb18f56f1" style="stroke:#000000;"/>
    </defs>
    <g clip-path="url(#paf03d71b18)">
     <use style="fill:#1b699f;stroke:#000000;" x="0" xlink:href="#m7eb18f56f1" y="345.6"/>
    </g>
   </g>
   <g id="Poly3DCollection_25">
    <defs>
     <path d="M 221.623202 -151.092584 
L 232.29455 -160.420216 
L 232.249459 -175.390305 
L 221.512405 -166.17199 
z
" id="mb5bf99ceff" style="stroke:#000000;"/>
    </defs>
    <g clip-path="url(#paf03d71b18)">
     <use style="fill:#0d324b;stroke:#000000;" x="0" xlink:href="#mb5bf99ceff" y="345.6"/>
    </g>
   </g>
   <g id="Poly3DCollection_26">
    <defs>
     <path d="M 169.818944 -226.776833 
L 181.128132 -235.332394 
L 181.480429 -219.996646 
L 170.24384 -211.323662 
z
" id="m598aba92a6" style="stroke:#000000;"/>
    </defs>
    <g clip-path="url(#paf03d71b18)">
     <use style="fill:#1b699f;stroke:#000000;" x="0" xlink:href="#m598aba92a6" y="345.6"/>
    </g>
   </g>
   <g id="Poly3DCollection_27">
    <path clip-path="url(#paf03d71b18)" d="M 217.543263 139.093106 
L 217.410065 123.962263 
L 242.789393 130.928396 
L 242.771152 146.151066 
z
" style="fill:#0d324b;stroke:#000000;"/>
    <path clip-path="url(#paf03d71b18)" d="M 232.203819 155.057574 
L 242.771152 146.151066 
L 242.789393 130.928396 
L 232.157622 139.72008 
z
" style="fill:#0d324b;stroke:#000000;"/>
   </g>
   <g id="Poly3DCollection_28">
    <defs>
     <path d="M 148.147375 -162.582956 
L 159.739362 -171.879872 
L 160.22203 -156.868007 
L 148.706094 -147.461326 
z
" id="maeb2a43577" style="stroke:#000000;"/>
    </defs>
    <g clip-path="url(#paf03d71b18)">
     <use style="fill:#1b699f;stroke:#000000;" x="0" xlink:href="#maeb2a43577" y="345.6"/>
    </g>
   </g>
   <g id="Poly3DCollection_29">
    <path clip-path="url(#paf03d71b18)" d="M 192.191413 101.898078 
L 191.905283 86.495209 
L 217.138818 93.149579 
L 217.275259 108.648862 
z
" style="fill:#0d324b;stroke:#000000;"/>
    <path clip-path="url(#paf03d71b18)" d="M 180.77155 94.74531 
L 191.905283 86.495209 
L 192.191413 101.898078 
L 181.128132 110.267606 
z
" style="fill:#1b699f;stroke:#000000;"/>
    <path clip-path="url(#paf03d71b18)" d="M 180.77155 94.74531 
L 206.186229 101.548339 
L 217.138818 93.149579 
L 191.905283 86.495209 
z
" style="fill:#185b8a;stroke:#000000;"/>
   </g>
   <g id="Poly3DCollection_30">
    <defs>
     <path d="M 210.890815 -126.552189 
L 221.732661 -136.195232 
L 221.623202 -151.092584 
L 210.713555 -141.556659 
z
" id="m84d51b75c1" style="stroke:#000000;"/>
    </defs>
    <g clip-path="url(#paf03d71b18)">
     <use style="fill:#0d324b;stroke:#000000;" x="0" xlink:href="#m84d51b75c1" y="345.6"/>
    </g>
   </g>
   <g id="Poly3DCollection_31">
    <defs>
     <path d="M 158.756235 -202.456932 
L 170.24384 -211.323662 
L 170.663604 -196.057126 
L 159.2508 -187.075054 
z
" id="m86870a259f" style="stroke:#000000;"/>
    </defs>
    <g clip-path="url(#paf03d71b18)">
     <use style="fill:#1b699f;stroke:#000000;" x="0" xlink:href="#m86870a259f" y="345.6"/>
    </g>
   </g>
   <g id="Poly3DCollection_32">
    <defs>
     <path d="M 221.512405 -166.17199 
L 232.249459 -175.390305 
L 232.203819 -190.542426 
L 221.400246 -181.436807 
z
" id="m81fa5c403d" style="stroke:#000000;"/>
    </defs>
    <g clip-path="url(#paf03d71b18)">
     <use style="fill:#0d324b;stroke:#000000;" x="0" xlink:href="#m81fa5c403d" y="345.6"/>
    </g>
   </g>
   <g id="Poly3DCollection_33">
    <path clip-path="url(#paf03d71b18)" d="M 217.410065 123.962263 
L 217.275259 108.648862 
L 242.807855 115.520417 
L 242.789393 130.928396 
z
" style="fill:#0d324b;stroke:#000000;"/>
    <path clip-path="url(#paf03d71b18)" d="M 232.157622 139.72008 
L 242.789393 130.928396 
L 242.807855 115.520417 
L 232.110855 124.19379 
z
" style="fill:#0d324b;stroke:#000000;"/>
   </g>
   <g id="Poly3DCollection_34">
    <path clip-path="url(#paf03d71b18)" d="M 185.897561 225.975405 
L 211.065925 233.870232 
L 200.050701 243.834534 
L 174.702556 235.763418 
z
" style="fill:#113f60;stroke:#000000;"/>
    <path clip-path="url(#paf03d71b18)" d="M 200.050701 243.834534 
L 211.065925 233.870232 
L 210.890815 219.047811 
L 199.80564 228.907278 
z
" style="fill:#0d324b;stroke:#000000;"/>
   </g>
   <g id="Poly3DCollection_35">
    <defs>
     <path d="M 147.581756 -177.891317 
L 159.2508 -187.075054 
L 159.739362 -171.879872 
L 148.147375 -162.582956 
z
" id="m86b9a7b961" style="stroke:#000000;"/>
    </defs>
    <g clip-path="url(#paf03d71b18)">
     <use style="fill:#1b699f;stroke:#000000;" x="0" xlink:href="#m86b9a7b961" y="345.6"/>
    </g>
   </g>
   <g id="Poly3DCollection_36">
    <defs>
     <path d="M 210.713555 -141.556659 
L 221.623202 -151.092584 
L 221.512405 -166.17199 
L 210.534103 -156.746551 
z
" id="mb35d4368b0" style="stroke:#000000;"/>
    </defs>
    <g clip-path="url(#paf03d71b18)">
     <use style="fill:#0d324b;stroke:#000000;" x="0" xlink:href="#mb35d4368b0" y="345.6"/>
    </g>
   </g>
   <g id="Poly3DCollection_37">
    <defs>
     <path d="M 158.255556 -218.028967 
L 169.818944 -226.776833 
L 170.24384 -211.323662 
L 158.756235 -202.456932 
z
" id="mc0593b03dd" style="stroke:#000000;"/>
    </defs>
    <g clip-path="url(#paf03d71b18)">
     <use style="fill:#1b699f;stroke:#000000;" x="0" xlink:href="#mc0593b03dd" y="345.6"/>
    </g>
   </g>
   <g id="Poly3DCollection_38">
    <path clip-path="url(#paf03d71b18)" d="M 137.562161 222.802143 
L 149.25804 213.07697 
L 149.803334 227.835245 
L 138.184749 237.664644 
z
" style="fill:#1b699f;stroke:#000000;"/>
    <path clip-path="url(#paf03d71b18)" d="M 149.803334 227.835245 
L 174.702556 235.763418 
L 163.257301 245.77023 
L 138.184749 237.664644 
z
" style="fill:#113f60;stroke:#000000;"/>
    <path clip-path="url(#paf03d71b18)" d="M 163.257301 245.77023 
L 162.784134 230.822764 
L 137.562161 222.802143 
L 138.184749 237.664644 
z
" style="fill:#1b699f;stroke:#000000;"/>
   </g>
   <g id="Poly3DCollection_39">
    <defs>
     <path d="M 221.400246 -181.436807 
L 232.203819 -190.542426 
L 232.157622 -205.87992 
L 221.286699 -196.890476 
z
" id="m75f2079cda" style="stroke:#000000;"/>
    </defs>
    <g clip-path="url(#paf03d71b18)">
     <use style="fill:#0d324b;stroke:#000000;" x="0" xlink:href="#m75f2079cda" y="345.6"/>
    </g>
   </g>
   <g id="Poly3DCollection_40">
    <path clip-path="url(#paf03d71b18)" d="M 217.275259 108.648862 
L 217.138818 93.149579 
L 242.826544 99.923725 
L 242.807855 115.520417 
z
" style="fill:#0d324b;stroke:#000000;"/>
    <path clip-path="url(#paf03d71b18)" d="M 206.186229 101.548339 
L 232.063509 108.475197 
L 242.826544 99.923725 
L 217.138818 93.149579 
z
" style="fill:#185b8a;stroke:#000000;"/>
    <path clip-path="url(#paf03d71b18)" d="M 232.110855 124.19379 
L 242.807855 115.520417 
L 242.826544 99.923725 
L 232.063509 108.475197 
z
" style="fill:#0d324b;stroke:#000000;"/>
   </g>
   <g id="Poly3DCollection_41">
    <path clip-path="url(#paf03d71b18)" d="M 169.388821 103.179918 
L 180.77155 94.74531 
L 181.128132 110.267606 
L 169.818944 118.823167 
z
" style="fill:#1b699f;stroke:#000000;"/>
    <path clip-path="url(#paf03d71b18)" d="M 169.388821 103.179918 
L 194.986461 110.136642 
L 206.186229 101.548339 
L 180.77155 94.74531 
z
" style="fill:#185b8a;stroke:#000000;"/>
   </g>
   <g id="Poly3DCollection_42">
    <defs>
     <path d="M 199.80564 -116.692722 
L 210.890815 -126.552189 
L 210.713555 -141.556659 
L 199.557535 -131.805384 
z
" id="m0ace26a242" style="stroke:#000000;"/>
    </defs>
    <g clip-path="url(#paf03d71b18)">
     <use style="fill:#0d324b;stroke:#000000;" x="0" xlink:href="#m0ace26a242" y="345.6"/>
    </g>
   </g>
   <g id="Poly3DCollection_43">
    <defs>
     <path d="M 147.009109 -193.389889 
L 158.756235 -202.456932 
L 159.2508 -187.075054 
L 147.581756 -177.891317 
z
" id="m3749ee16c1" style="stroke:#000000;"/>
    </defs>
    <g clip-path="url(#paf03d71b18)">
     <use style="fill:#1b699f;stroke:#000000;" x="0" xlink:href="#m3749ee16c1" y="345.6"/>
    </g>
   </g>
   <g id="Poly3DCollection_44">
    <defs>
     <path d="M 210.534103 -156.746551 
L 221.512405 -166.17199 
L 221.400246 -181.436807 
L 210.352421 -172.125324 
z
" id="m421c8358f3" style="stroke:#000000;"/>
    </defs>
    <g clip-path="url(#paf03d71b18)">
     <use style="fill:#0d324b;stroke:#000000;" x="0" xlink:href="#m421c8358f3" y="345.6"/>
    </g>
   </g>
   <g id="Poly3DCollection_45">
    <path clip-path="url(#paf03d71b18)" d="M 136.931893 207.756318 
L 148.706094 198.138674 
L 149.25804 213.07697 
L 137.562161 222.802143 
z
" style="fill:#1b699f;stroke:#000000;"/>
    <path clip-path="url(#paf03d71b18)" d="M 162.784134 230.822764 
L 162.305078 215.689239 
L 136.931893 207.756318 
L 137.562161 222.802143 
z
" style="fill:#1b699f;stroke:#000000;"/>
   </g>
   <g id="Poly3DCollection_46">
    <defs>
     <path d="M 221.286699 -196.890476 
L 232.157622 -205.87992 
L 232.110855 -221.40621 
L 221.171739 -212.536524 
z
" id="m8fd40d13ee" style="stroke:#000000;"/>
    </defs>
    <g clip-path="url(#paf03d71b18)">
     <use style="fill:#0d324b;stroke:#000000;" x="0" xlink:href="#m8fd40d13ee" y="345.6"/>
    </g>
   </g>
   <g id="Poly3DCollection_47">
    <path clip-path="url(#paf03d71b18)" d="M 174.702556 235.763418 
L 200.050701 243.834534 
L 188.787 254.023604 
L 163.257301 245.77023 
z
" style="fill:#113f60;stroke:#000000;"/>
    <path clip-path="url(#paf03d71b18)" d="M 188.787 254.023604 
L 200.050701 243.834534 
L 199.80564 228.907278 
L 188.46885 238.990537 
z
" style="fill:#0d324b;stroke:#000000;"/>
    <path clip-path="url(#paf03d71b18)" d="M 188.787 254.023604 
L 188.46885 238.990537 
L 162.784134 230.822764 
L 163.257301 245.77023 
z
" style="fill:#1b699f;stroke:#000000;"/>
   </g>
   <g id="Poly3DCollection_48">
    <defs>
     <path d="M 199.557535 -131.805384 
L 210.713555 -141.556659 
L 210.534103 -156.746551 
L 199.30633 -147.106927 
z
" id="me23c72e5bf" style="stroke:#000000;"/>
    </defs>
    <g clip-path="url(#paf03d71b18)">
     <use style="fill:#0d324b;stroke:#000000;" x="0" xlink:href="#me23c72e5bf" y="345.6"/>
    </g>
   </g>
   <g id="Poly3DCollection_49">
    <defs>
     <path d="M 146.429302 -209.082239 
L 158.255556 -218.028967 
L 158.756235 -202.456932 
L 147.009109 -193.389889 
z
" id="m836bc09567" style="stroke:#000000;"/>
    </defs>
    <g clip-path="url(#paf03d71b18)">
     <use style="fill:#1b699f;stroke:#000000;" x="0" xlink:href="#m836bc09567" y="345.6"/>
    </g>
   </g>
   <g id="Poly3DCollection_50">
    <defs>
     <path d="M 210.352421 -172.125324 
L 221.400246 -181.436807 
L 221.286699 -196.890476 
L 210.168465 -187.696523 
z
" id="m1d079f85d3" style="stroke:#000000;"/>
    </defs>
    <g clip-path="url(#paf03d71b18)">
     <use style="fill:#0d324b;stroke:#000000;" x="0" xlink:href="#m1d079f85d3" y="345.6"/>
    </g>
   </g>
   <g id="Poly3DCollection_51">
    <path clip-path="url(#paf03d71b18)" d="M 136.293803 192.523754 
L 148.147375 183.017044 
L 148.706094 198.138674 
L 136.931893 207.756318 
z
" style="fill:#1b699f;stroke:#000000;"/>
    <path clip-path="url(#paf03d71b18)" d="M 162.305078 215.689239 
L 161.820021 200.366159 
L 136.293803 192.523754 
L 136.931893 207.756318 
z
" style="fill:#1b699f;stroke:#000000;"/>
   </g>
   <g id="Poly3DCollection_52">
    <path clip-path="url(#paf03d71b18)" d="M 194.986461 110.136642 
L 221.055339 117.221436 
L 232.063509 108.475197 
L 206.186229 101.548339 
z
" style="fill:#185b8a;stroke:#000000;"/>
    <path clip-path="url(#paf03d71b18)" d="M 221.171739 133.063476 
L 232.110855 124.19379 
L 232.063509 108.475197 
L 221.055339 117.221436 
z
" style="fill:#0d324b;stroke:#000000;"/>
   </g>
   <g id="Poly3DCollection_53">
    <path clip-path="url(#paf03d71b18)" d="M 157.74865 111.805291 
L 169.388821 103.179918 
L 169.818944 118.823167 
L 158.255556 127.571033 
z
" style="fill:#1b699f;stroke:#000000;"/>
    <path clip-path="url(#paf03d71b18)" d="M 157.74865 111.805291 
L 183.531051 118.920979 
L 194.986461 110.136642 
L 169.388821 103.179918 
z
" style="fill:#185b8a;stroke:#000000;"/>
   </g>
   <g id="Poly3DCollection_54">
    <path clip-path="url(#paf03d71b18)" d="M 188.46885 238.990537 
L 199.80564 228.907278 
L 199.557535 213.794616 
L 188.146703 223.768618 
z
" style="fill:#0d324b;stroke:#000000;"/>
    <path clip-path="url(#paf03d71b18)" d="M 188.46885 238.990537 
L 188.146703 223.768618 
L 162.305078 215.689239 
L 162.784134 230.822764 
z
" style="fill:#1b699f;stroke:#000000;"/>
   </g>
   <g id="Poly3DCollection_55">
    <defs>
     <path d="M 199.30633 -147.106927 
L 210.534103 -156.746551 
L 210.352421 -172.125324 
L 199.051965 -162.600915 
z
" id="m04ce77fab6" style="stroke:#000000;"/>
    </defs>
    <g clip-path="url(#paf03d71b18)">
     <use style="fill:#0d324b;stroke:#000000;" x="0" xlink:href="#m04ce77fab6" y="345.6"/>
    </g>
   </g>
   <g id="Poly3DCollection_56">
    <defs>
     <path d="M 210.168465 -187.696523 
L 221.286699 -196.890476 
L 221.171739 -212.536524 
L 209.982192 -203.463782 
z
" id="m61466b4c7e" style="stroke:#000000;"/>
    </defs>
    <g clip-path="url(#paf03d71b18)">
     <use style="fill:#0d324b;stroke:#000000;" x="0" xlink:href="#m61466b4c7e" y="345.6"/>
    </g>
   </g>
   <g id="Poly3DCollection_57">
    <path clip-path="url(#paf03d71b18)" d="M 135.647744 177.100954 
L 147.581756 167.708683 
L 148.147375 183.017044 
L 136.293803 192.523754 
z
" style="fill:#1b699f;stroke:#000000;"/>
    <path clip-path="url(#paf03d71b18)" d="M 161.820021 200.366159 
L 161.32885 184.849939 
L 135.647744 177.100954 
L 136.293803 192.523754 
z
" style="fill:#1b699f;stroke:#000000;"/>
   </g>
   <g id="Poly3DCollection_58">
    <path clip-path="url(#paf03d71b18)" d="M 188.146703 223.768618 
L 199.557535 213.794616 
L 199.30633 198.493073 
L 187.820484 208.354265 
z
" style="fill:#0d324b;stroke:#000000;"/>
    <path clip-path="url(#paf03d71b18)" d="M 188.146703 223.768618 
L 187.820484 208.354265 
L 161.820021 200.366159 
L 162.305078 215.689239 
z
" style="fill:#1b699f;stroke:#000000;"/>
   </g>
   <g id="Poly3DCollection_59">
    <defs>
     <path d="M 199.051965 -162.600915 
L 210.352421 -172.125324 
L 210.168465 -187.696523 
L 198.794381 -178.291001 
z
" id="m8d4328bbec" style="stroke:#000000;"/>
    </defs>
    <g clip-path="url(#paf03d71b18)">
     <use style="fill:#0d324b;stroke:#000000;" x="0" xlink:href="#m8d4328bbec" y="345.6"/>
    </g>
   </g>
   <g id="Poly3DCollection_60">
    <path clip-path="url(#paf03d71b18)" d="M 183.531051 118.920979 
L 209.79356 126.169172 
L 221.055339 117.221436 
L 194.986461 110.136642 
z
" style="fill:#185b8a;stroke:#000000;"/>
    <path clip-path="url(#paf03d71b18)" d="M 209.982192 142.136218 
L 221.171739 133.063476 
L 221.055339 117.221436 
L 209.79356 126.169172 
z
" style="fill:#0d324b;stroke:#000000;"/>
   </g>
   <g id="Poly3DCollection_61">
    <path clip-path="url(#paf03d71b18)" d="M 134.993566 161.484332 
L 147.009109 152.210111 
L 147.581756 167.708683 
L 135.647744 177.100954 
z
" style="fill:#1b699f;stroke:#000000;"/>
    <path clip-path="url(#paf03d71b18)" d="M 161.32885 184.849939 
L 160.83145 169.136906 
L 134.993566 161.484332 
L 135.647744 177.100954 
z
" style="fill:#1b699f;stroke:#000000;"/>
   </g>
   <g id="Poly3DCollection_62">
    <path clip-path="url(#paf03d71b18)" d="M 145.842201 120.627975 
L 157.74865 111.805291 
L 158.255556 127.571033 
L 146.429302 136.517761 
z
" style="fill:#1b699f;stroke:#000000;"/>
    <path clip-path="url(#paf03d71b18)" d="M 145.842201 120.627975 
L 171.811145 127.908139 
L 183.531051 118.920979 
L 157.74865 111.805291 
z
" style="fill:#185b8a;stroke:#000000;"/>
   </g>
   <g id="Poly3DCollection_63">
    <path clip-path="url(#paf03d71b18)" d="M 187.820484 208.354265 
L 199.30633 198.493073 
L 199.051965 182.999085 
L 187.490114 192.743807 
z
" style="fill:#0d324b;stroke:#000000;"/>
    <path clip-path="url(#paf03d71b18)" d="M 187.820484 208.354265 
L 187.490114 192.743807 
L 161.32885 184.849939 
L 161.820021 200.366159 
z
" style="fill:#1b699f;stroke:#000000;"/>
   </g>
   <g id="Poly3DCollection_64">
    <defs>
     <path d="M 198.794381 -178.291001 
L 210.168465 -187.696523 
L 209.982192 -203.463782 
L 198.533516 -194.180932 
z
" id="m8c049b8d00" style="stroke:#000000;"/>
    </defs>
    <g clip-path="url(#paf03d71b18)">
     <use style="fill:#0d324b;stroke:#000000;" x="0" xlink:href="#m8c049b8d00" y="345.6"/>
    </g>
   </g>
   <g id="Poly3DCollection_65">
    <path clip-path="url(#paf03d71b18)" d="M 134.331115 145.67021 
L 146.429302 136.517761 
L 147.009109 152.210111 
L 134.993566 161.484332 
z
" style="fill:#1b699f;stroke:#000000;"/>
    <path clip-path="url(#paf03d71b18)" d="M 160.83145 169.136906 
L 160.327699 153.223291 
L 134.331115 145.67021 
L 134.993566 161.484332 
z
" style="fill:#1b699f;stroke:#000000;"/>
   </g>
   <g id="Poly3DCollection_66">
    <path clip-path="url(#paf03d71b18)" d="M 187.490114 192.743807 
L 199.051965 182.999085 
L 198.794381 167.308999 
L 187.155514 176.933476 
z
" style="fill:#0d324b;stroke:#000000;"/>
    <path clip-path="url(#paf03d71b18)" d="M 187.490114 192.743807 
L 187.155514 176.933476 
L 160.83145 169.136906 
L 161.32885 184.849939 
z
" style="fill:#1b699f;stroke:#000000;"/>
   </g>
   <g id="Poly3DCollection_67">
    <path clip-path="url(#paf03d71b18)" d="M 171.811145 127.908139 
L 198.269307 135.325449 
L 209.79356 126.169172 
L 183.531051 118.920979 
z
" style="fill:#185b8a;stroke:#000000;"/>
    <path clip-path="url(#paf03d71b18)" d="M 198.533516 151.419068 
L 209.982192 142.136218 
L 209.79356 126.169172 
L 198.269307 135.325449 
z
" style="fill:#0d324b;stroke:#000000;"/>
   </g>
   <g id="Poly3DCollection_68">
    <path clip-path="url(#paf03d71b18)" d="M 133.660232 129.65482 
L 145.842201 120.627975 
L 146.429302 136.517761 
L 134.331115 145.67021 
z
" style="fill:#1b699f;stroke:#000000;"/>
    <path clip-path="url(#paf03d71b18)" d="M 133.660232 129.65482 
L 159.817477 137.105228 
L 171.811145 127.908139 
L 145.842201 120.627975 
z
" style="fill:#185b8a;stroke:#000000;"/>
    <path clip-path="url(#paf03d71b18)" d="M 160.327699 153.223291 
L 159.817477 137.105228 
L 133.660232 129.65482 
L 134.331115 145.67021 
z
" style="fill:#1b699f;stroke:#000000;"/>
   </g>
   <g id="Poly3DCollection_69">
    <path clip-path="url(#paf03d71b18)" d="M 187.155514 176.933476 
L 198.794381 167.308999 
L 198.533516 151.419068 
L 186.816603 160.91941 
z
" style="fill:#0d324b;stroke:#000000;"/>
    <path clip-path="url(#paf03d71b18)" d="M 187.155514 176.933476 
L 186.816603 160.91941 
L 160.327699 153.223291 
L 160.83145 169.136906 
z
" style="fill:#1b699f;stroke:#000000;"/>
   </g>
   <g id="Poly3DCollection_70">
    <path clip-path="url(#paf03d71b18)" d="M 159.817477 137.105228 
L 186.473295 144.697645 
L 198.269307 135.325449 
L 171.811145 127.908139 
z
" style="fill:#185b8a;stroke:#000000;"/>
    <path clip-path="url(#paf03d71b18)" d="M 186.816603 160.91941 
L 198.533516 151.419068 
L 198.269307 135.325449 
L 186.473295 144.697645 
z
" style="fill:#0d324b;stroke:#000000;"/>
    <path clip-path="url(#paf03d71b18)" d="M 186.816603 160.91941 
L 186.473295 144.697645 
L 159.817477 137.105228 
L 160.327699 153.223291 
z
" style="fill:#1b699f;stroke:#000000;"/>
   </g>
  </g>
 </g>
 <defs>
  <clipPath id="paf03d71b18">
   <rect height="266.112" width="266.112" x="103.104" y="41.472"/>
  </clipPath>
 </defs>
</svg>
