<?xml version="1.0" encoding="utf-8" standalone="no"?>
<!DOCTYPE svg PUBLIC "-//W3C//DTD SVG 1.1//EN"
  "http://www.w3.org/Graphics/SVG/1.1/DTD/svg11.dtd">
<svg height="75" version="1.1" viewBox="114.314 57.873 294.953 266.05" width="100" xmlns="http://www.w3.org/2000/svg" xmlns:xlink="http://www.w3.org/1999/xlink">
 <metadata>
  <rdf:RDF xmlns:cc="http://creativecommons.org/ns#" xmlns:dc="http://purl.org/dc/elements/1.1/" xmlns:rdf="http://www.w3.org/1999/02/22-rdf-syntax-ns#">
   <cc:Work>
    <dc:type rdf:resource="http://purl.org/dc/dcmitype/StillImage"/>
    <dc:date>2021-06-16T08:26:54.380282</dc:date>
    <dc:format>image/svg+xml</dc:format>
    <dc:creator>
     <cc:Agent>
      <dc:title>Matplotlib v3.4.2, https://matplotlib.org/</dc:title>
     </cc:Agent>
    </dc:creator>
   </cc:Work>
  </rdf:RDF>
 </metadata>
 <defs>
  <style type="text/css">*{stroke-linecap:butt;stroke-linejoin:round;}</style>
 </defs>
 <g id="figure_1">
  <g id="patch_1">
   <path d="M 0 345.6 
L 460.8 345.6 
L 460.8 0 
L 0 0 
z
" style="fill:#ffffff;"/>
  </g>
  <g id="patch_2">
   <path d="M 103.104 307.584 
L 369.216 307.584 
L 369.216 41.472 
L 103.104 41.472 
z
" style="fill:#ffffff;"/>
  </g>
  <g id="pane3d_1">
   <g id="patch_3">
    <path d="M 123.197291 241.969309 
L 211.076164 168.307495 
L 209.854564 62.073991 
L 117.770234 129.272941 
" style="fill:#f2f2f2;opacity:0.5;stroke:#f2f2f2;stroke-linejoin:miter;"/>
   </g>
  </g>
  <g id="pane3d_2">
   <g id="patch_4">
    <path d="M 211.076164 168.307495 
L 352.090401 209.294766 
L 357.122702 99.402171 
L 209.854564 62.073991 
" style="fill:#e6e6e6;opacity:0.5;stroke:#e6e6e6;stroke-linejoin:miter;"/>
   </g>
  </g>
  <g id="pane3d_3">
   <g id="patch_5">
    <path d="M 123.197291 241.969309 
L 272.679269 290.790123 
L 352.090401 209.294766 
L 211.076164 168.307495 
" style="fill:#ececec;opacity:0.5;stroke:#ececec;stroke-linejoin:miter;"/>
   </g>
  </g>
  <g id="axis3d_1">
   <g id="line2d_1">
    <path d="M 123.197291 241.969309 
L 272.679269 290.790123 
" style="fill:none;stroke:#000000;stroke-linecap:square;stroke-width:0.8;"/>
   </g>
   <g id="text_1">
    <!-- Phases -->
    <g style="fill:#008000;" transform="translate(135.866758 293.957014)rotate(-341.912962)scale(0.25 -0.25)">
     <defs>
      <path d="M 1259 4147 
L 1259 2394 
L 2053 2394 
Q 2494 2394 2734 2622 
Q 2975 2850 2975 3272 
Q 2975 3691 2734 3919 
Q 2494 4147 2053 4147 
L 1259 4147 
z
M 628 4666 
L 2053 4666 
Q 2838 4666 3239 4311 
Q 3641 3956 3641 3272 
Q 3641 2581 3239 2228 
Q 2838 1875 2053 1875 
L 1259 1875 
L 1259 0 
L 628 0 
L 628 4666 
z
" id="DejaVuSans-50" transform="scale(0.015625)"/>
      <path d="M 3513 2113 
L 3513 0 
L 2938 0 
L 2938 2094 
Q 2938 2591 2744 2837 
Q 2550 3084 2163 3084 
Q 1697 3084 1428 2787 
Q 1159 2491 1159 1978 
L 1159 0 
L 581 0 
L 581 4863 
L 1159 4863 
L 1159 2956 
Q 1366 3272 1645 3428 
Q 1925 3584 2291 3584 
Q 2894 3584 3203 3211 
Q 3513 2838 3513 2113 
z
" id="DejaVuSans-68" transform="scale(0.015625)"/>
      <path d="M 2194 1759 
Q 1497 1759 1228 1600 
Q 959 1441 959 1056 
Q 959 750 1161 570 
Q 1363 391 1709 391 
Q 2188 391 2477 730 
Q 2766 1069 2766 1631 
L 2766 1759 
L 2194 1759 
z
M 3341 1997 
L 3341 0 
L 2766 0 
L 2766 531 
Q 2569 213 2275 61 
Q 1981 -91 1556 -91 
Q 1019 -91 701 211 
Q 384 513 384 1019 
Q 384 1609 779 1909 
Q 1175 2209 1959 2209 
L 2766 2209 
L 2766 2266 
Q 2766 2663 2505 2880 
Q 2244 3097 1772 3097 
Q 1472 3097 1187 3025 
Q 903 2953 641 2809 
L 641 3341 
Q 956 3463 1253 3523 
Q 1550 3584 1831 3584 
Q 2591 3584 2966 3190 
Q 3341 2797 3341 1997 
z
" id="DejaVuSans-61" transform="scale(0.015625)"/>
      <path d="M 2834 3397 
L 2834 2853 
Q 2591 2978 2328 3040 
Q 2066 3103 1784 3103 
Q 1356 3103 1142 2972 
Q 928 2841 928 2578 
Q 928 2378 1081 2264 
Q 1234 2150 1697 2047 
L 1894 2003 
Q 2506 1872 2764 1633 
Q 3022 1394 3022 966 
Q 3022 478 2636 193 
Q 2250 -91 1575 -91 
Q 1294 -91 989 -36 
Q 684 19 347 128 
L 347 722 
Q 666 556 975 473 
Q 1284 391 1588 391 
Q 1994 391 2212 530 
Q 2431 669 2431 922 
Q 2431 1156 2273 1281 
Q 2116 1406 1581 1522 
L 1381 1569 
Q 847 1681 609 1914 
Q 372 2147 372 2553 
Q 372 3047 722 3315 
Q 1072 3584 1716 3584 
Q 2034 3584 2315 3537 
Q 2597 3491 2834 3397 
z
" id="DejaVuSans-73" transform="scale(0.015625)"/>
      <path d="M 3597 1894 
L 3597 1613 
L 953 1613 
Q 991 1019 1311 708 
Q 1631 397 2203 397 
Q 2534 397 2845 478 
Q 3156 559 3463 722 
L 3463 178 
Q 3153 47 2828 -22 
Q 2503 -91 2169 -91 
Q 1331 -91 842 396 
Q 353 884 353 1716 
Q 353 2575 817 3079 
Q 1281 3584 2069 3584 
Q 2775 3584 3186 3129 
Q 3597 2675 3597 1894 
z
M 3022 2063 
Q 3016 2534 2758 2815 
Q 2500 3097 2075 3097 
Q 1594 3097 1305 2825 
Q 1016 2553 972 2059 
L 3022 2063 
z
" id="DejaVuSans-65" transform="scale(0.015625)"/>
     </defs>
     <use xlink:href="#DejaVuSans-50"/>
     <use x="60.302734" xlink:href="#DejaVuSans-68"/>
     <use x="123.681641" xlink:href="#DejaVuSans-61"/>
     <use x="184.960938" xlink:href="#DejaVuSans-73"/>
     <use x="237.060547" xlink:href="#DejaVuSans-65"/>
     <use x="298.583984" xlink:href="#DejaVuSans-73"/>
    </g>
   </g>
   <g id="Line3DCollection_1">
    <path d="M 132.250704 244.926154 
L 219.652219 170.800215 
L 218.79322 64.33968 
" style="fill:none;stroke:#b0b0b0;stroke-width:0.8;"/>
    <path d="M 157.390529 253.13682 
L 243.442418 177.715087 
L 243.601294 70.627803 
" style="fill:none;stroke:#b0b0b0;stroke-width:0.8;"/>
    <path d="M 182.990962 261.497922 
L 267.632176 184.746095 
L 268.844138 77.026128 
" style="fill:none;stroke:#b0b0b0;stroke-width:0.8;"/>
    <path d="M 209.06478 270.013631 
L 292.231644 191.896189 
L 294.53328 83.537577 
" style="fill:none;stroke:#b0b0b0;stroke-width:0.8;"/>
    <path d="M 235.625236 278.688276 
L 317.25132 199.168421 
L 320.680664 90.165177 
" style="fill:none;stroke:#b0b0b0;stroke-width:0.8;"/>
    <path d="M 262.686081 287.526347 
L 342.702063 206.565947 
L 347.298659 96.912062 
" style="fill:none;stroke:#b0b0b0;stroke-width:0.8;"/>
   </g>
   <g id="xtick_1">
    <g id="line2d_2">
     <path d="M 133.011792 244.280669 
L 130.725263 246.219892 
" style="fill:none;stroke:#000000;stroke-linecap:square;stroke-width:0.8;"/>
    </g>
   </g>
   <g id="xtick_2">
    <g id="line2d_3">
     <path d="M 158.140416 252.479568 
L 155.887507 254.454171 
" style="fill:none;stroke:#000000;stroke-linecap:square;stroke-width:0.8;"/>
    </g>
   </g>
   <g id="xtick_3">
    <g id="line2d_4">
     <path d="M 183.72911 260.828577 
L 181.511441 262.839538 
" style="fill:none;stroke:#000000;stroke-linecap:square;stroke-width:0.8;"/>
    </g>
   </g>
   <g id="xtick_4">
    <g id="line2d_5">
     <path d="M 209.790625 269.331856 
L 207.609891 271.380188 
" style="fill:none;stroke:#000000;stroke-linecap:square;stroke-width:0.8;"/>
    </g>
   </g>
   <g id="xtick_5">
    <g id="line2d_6">
     <path d="M 236.338187 277.993721 
L 234.196161 280.080476 
" style="fill:none;stroke:#000000;stroke-linecap:square;stroke-width:0.8;"/>
    </g>
   </g>
   <g id="xtick_6">
    <g id="line2d_7">
     <path d="M 263.385522 286.818651 
L 261.284057 288.94492 
" style="fill:none;stroke:#000000;stroke-linecap:square;stroke-width:0.8;"/>
    </g>
   </g>
  </g>
  <g id="axis3d_2">
   <g id="line2d_8">
    <path d="M 352.090401 209.294766 
L 272.679269 290.790123 
" style="fill:none;stroke:#000000;stroke-linecap:square;stroke-width:0.8;"/>
   </g>
   <g id="text_2">
    <!-- Levels -->
    <g style="fill:#ff0000;" transform="translate(318.498687 309.342191)rotate(-45.742112)scale(0.25 -0.25)">
     <defs>
      <path d="M 628 4666 
L 1259 4666 
L 1259 531 
L 3531 531 
L 3531 0 
L 628 0 
L 628 4666 
z
" id="DejaVuSans-4c" transform="scale(0.015625)"/>
      <path d="M 191 3500 
L 800 3500 
L 1894 563 
L 2988 3500 
L 3597 3500 
L 2284 0 
L 1503 0 
L 191 3500 
z
" id="DejaVuSans-76" transform="scale(0.015625)"/>
      <path d="M 603 4863 
L 1178 4863 
L 1178 0 
L 603 0 
L 603 4863 
z
" id="DejaVuSans-6c" transform="scale(0.015625)"/>
     </defs>
     <use xlink:href="#DejaVuSans-4c"/>
     <use x="53.962891" xlink:href="#DejaVuSans-65"/>
     <use x="115.486328" xlink:href="#DejaVuSans-76"/>
     <use x="174.666016" xlink:href="#DejaVuSans-65"/>
     <use x="236.189453" xlink:href="#DejaVuSans-6c"/>
     <use x="263.972656" xlink:href="#DejaVuSans-73"/>
    </g>
   </g>
   <g id="Line3DCollection_2">
    <path d="M 124.138093 124.625967 
L 129.252888 236.893387 
L 278.173905 285.151275 
" style="fill:none;stroke:#b0b0b0;stroke-width:0.8;"/>
    <path d="M 136.398896 115.678592 
L 140.921401 227.112609 
L 288.752062 274.295483 
" style="fill:none;stroke:#b0b0b0;stroke-width:0.8;"/>
    <path d="M 148.383067 106.933089 
L 152.338041 217.542954 
L 299.089871 263.686348 
" style="fill:none;stroke:#b0b0b0;stroke-width:0.8;"/>
    <path d="M 160.099865 98.382704 
L 163.510876 208.177662 
L 309.195429 253.315559 
" style="fill:none;stroke:#b0b0b0;stroke-width:0.8;"/>
    <path d="M 171.558138 90.020978 
L 174.447634 199.010255 
L 319.076477 243.175173 
" style="fill:none;stroke:#b0b0b0;stroke-width:0.8;"/>
    <path d="M 182.766349 81.841737 
L 185.155719 190.034527 
L 328.740415 233.257596 
" style="fill:none;stroke:#b0b0b0;stroke-width:0.8;"/>
    <path d="M 193.732596 73.839069 
L 195.642227 181.244527 
L 338.194319 223.555564 
" style="fill:none;stroke:#b0b0b0;stroke-width:0.8;"/>
    <path d="M 204.46463 66.007319 
L 205.913967 172.634551 
L 347.444965 214.062126 
" style="fill:none;stroke:#b0b0b0;stroke-width:0.8;"/>
   </g>
   <g id="xtick_7">
    <g id="line2d_9">
     <path d="M 276.918943 284.744604 
L 280.687074 285.965668 
" style="fill:none;stroke:#000000;stroke-linecap:square;stroke-width:0.8;"/>
    </g>
   </g>
   <g id="xtick_8">
    <g id="line2d_10">
     <path d="M 287.507014 273.898102 
L 291.245342 275.091259 
" style="fill:none;stroke:#000000;stroke-linecap:square;stroke-width:0.8;"/>
    </g>
   </g>
   <g id="xtick_9">
    <g id="line2d_11">
     <path d="M 297.854612 263.297944 
L 301.56351 264.464138 
" style="fill:none;stroke:#000000;stroke-linecap:square;stroke-width:0.8;"/>
    </g>
   </g>
   <g id="xtick_10">
    <g id="line2d_12">
     <path d="M 307.969837 252.93583 
L 311.649677 254.075966 
" style="fill:none;stroke:#000000;stroke-linecap:square;stroke-width:0.8;"/>
    </g>
   </g>
   <g id="xtick_11">
    <g id="line2d_13">
     <path d="M 317.860429 242.803832 
L 321.511579 243.918774 
" style="fill:none;stroke:#000000;stroke-linecap:square;stroke-width:0.8;"/>
    </g>
   </g>
   <g id="xtick_12">
    <g id="line2d_14">
     <path d="M 327.533789 232.894367 
L 331.156615 233.984941 
" style="fill:none;stroke:#000000;stroke-linecap:square;stroke-width:0.8;"/>
    </g>
   </g>
   <g id="xtick_13">
    <g id="line2d_15">
     <path d="M 336.996996 223.200185 
L 340.59186 224.267181 
" style="fill:none;stroke:#000000;stroke-linecap:square;stroke-width:0.8;"/>
    </g>
   </g>
   <g id="xtick_14">
    <g id="line2d_16">
     <path d="M 346.256825 213.714346 
L 349.824086 214.758519 
" style="fill:none;stroke:#000000;stroke-linecap:square;stroke-width:0.8;"/>
    </g>
   </g>
  </g>
  <g id="axis3d_3">
   <g id="line2d_17">
    <path d="M 352.090401 209.294766 
L 357.122702 99.402171 
" style="fill:none;stroke:#000000;stroke-linecap:square;stroke-width:0.8;"/>
   </g>
   <g id="text_3">
    <!-- Aspects -->
    <g style="fill:#0000ff;" transform="translate(399.578104 199.381813)rotate(-87.378092)scale(0.25 -0.25)">
     <defs>
      <path d="M 2188 4044 
L 1331 1722 
L 3047 1722 
L 2188 4044 
z
M 1831 4666 
L 2547 4666 
L 4325 0 
L 3669 0 
L 3244 1197 
L 1141 1197 
L 716 0 
L 50 0 
L 1831 4666 
z
" id="DejaVuSans-41" transform="scale(0.015625)"/>
      <path d="M 1159 525 
L 1159 -1331 
L 581 -1331 
L 581 3500 
L 1159 3500 
L 1159 2969 
Q 1341 3281 1617 3432 
Q 1894 3584 2278 3584 
Q 2916 3584 3314 3078 
Q 3713 2572 3713 1747 
Q 3713 922 3314 415 
Q 2916 -91 2278 -91 
Q 1894 -91 1617 61 
Q 1341 213 1159 525 
z
M 3116 1747 
Q 3116 2381 2855 2742 
Q 2594 3103 2138 3103 
Q 1681 3103 1420 2742 
Q 1159 2381 1159 1747 
Q 1159 1113 1420 752 
Q 1681 391 2138 391 
Q 2594 391 2855 752 
Q 3116 1113 3116 1747 
z
" id="DejaVuSans-70" transform="scale(0.015625)"/>
      <path d="M 3122 3366 
L 3122 2828 
Q 2878 2963 2633 3030 
Q 2388 3097 2138 3097 
Q 1578 3097 1268 2742 
Q 959 2388 959 1747 
Q 959 1106 1268 751 
Q 1578 397 2138 397 
Q 2388 397 2633 464 
Q 2878 531 3122 666 
L 3122 134 
Q 2881 22 2623 -34 
Q 2366 -91 2075 -91 
Q 1284 -91 818 406 
Q 353 903 353 1747 
Q 353 2603 823 3093 
Q 1294 3584 2113 3584 
Q 2378 3584 2631 3529 
Q 2884 3475 3122 3366 
z
" id="DejaVuSans-63" transform="scale(0.015625)"/>
      <path d="M 1172 4494 
L 1172 3500 
L 2356 3500 
L 2356 3053 
L 1172 3053 
L 1172 1153 
Q 1172 725 1289 603 
Q 1406 481 1766 481 
L 2356 481 
L 2356 0 
L 1766 0 
Q 1100 0 847 248 
Q 594 497 594 1153 
L 594 3053 
L 172 3053 
L 172 3500 
L 594 3500 
L 594 4494 
L 1172 4494 
z
" id="DejaVuSans-74" transform="scale(0.015625)"/>
     </defs>
     <use xlink:href="#DejaVuSans-41"/>
     <use x="68.408203" xlink:href="#DejaVuSans-73"/>
     <use x="120.507812" xlink:href="#DejaVuSans-70"/>
     <use x="183.984375" xlink:href="#DejaVuSans-65"/>
     <use x="245.507812" xlink:href="#DejaVuSans-63"/>
     <use x="300.488281" xlink:href="#DejaVuSans-74"/>
     <use x="339.697266" xlink:href="#DejaVuSans-73"/>
    </g>
   </g>
   <g id="Line3DCollection_3">
    <path d="M 352.186814 207.189346 
L 211.052711 166.26796 
L 123.093487 239.813739 
" style="fill:none;stroke:#b0b0b0;stroke-width:0.8;"/>
    <path d="M 352.852418 192.654242 
L 210.890852 152.192211 
L 122.376672 224.928624 
" style="fill:none;stroke:#b0b0b0;stroke-width:0.8;"/>
    <path d="M 353.525951 177.946013 
L 210.727156 137.956815 
L 121.650995 209.85946 
" style="fill:none;stroke:#b0b0b0;stroke-width:0.8;"/>
    <path d="M 354.207554 163.061549 
L 210.561593 123.559038 
L 120.916289 194.602813 
" style="fill:none;stroke:#b0b0b0;stroke-width:0.8;"/>
    <path d="M 354.897373 147.997662 
L 210.394131 108.996088 
L 120.172384 179.15516 
" style="fill:none;stroke:#b0b0b0;stroke-width:0.8;"/>
    <path d="M 355.595558 132.751088 
L 210.224736 94.265106 
L 119.419108 163.512893 
" style="fill:none;stroke:#b0b0b0;stroke-width:0.8;"/>
    <path d="M 356.302262 117.318485 
L 210.053376 79.363166 
L 118.656282 147.672311 
" style="fill:none;stroke:#b0b0b0;stroke-width:0.8;"/>
    <path d="M 357.017641 101.696426 
L 209.880015 64.287274 
L 117.883723 131.629618 
" style="fill:none;stroke:#b0b0b0;stroke-width:0.8;"/>
   </g>
   <g id="xtick_15">
    <g id="line2d_18">
     <path d="M 351.002262 206.845889 
L 354.558736 207.877077 
" style="fill:none;stroke:#000000;stroke-linecap:square;stroke-width:0.8;"/>
    </g>
   </g>
   <g id="xtick_16">
    <g id="line2d_19">
     <path d="M 351.660592 192.314546 
L 355.238926 193.334446 
" style="fill:none;stroke:#000000;stroke-linecap:square;stroke-width:0.8;"/>
    </g>
   </g>
   <g id="xtick_17">
    <g id="line2d_20">
     <path d="M 352.326759 177.610193 
L 355.927223 178.618462 
" style="fill:none;stroke:#000000;stroke-linecap:square;stroke-width:0.8;"/>
    </g>
   </g>
   <g id="xtick_18">
    <g id="line2d_21">
     <path d="M 353.000906 162.729722 
L 356.623774 163.726007 
" style="fill:none;stroke:#000000;stroke-linecap:square;stroke-width:0.8;"/>
    </g>
   </g>
   <g id="xtick_19">
    <g id="line2d_22">
     <path d="M 353.683175 147.669949 
L 357.328729 148.653887 
" style="fill:none;stroke:#000000;stroke-linecap:square;stroke-width:0.8;"/>
    </g>
   </g>
   <g id="xtick_20">
    <g id="line2d_23">
     <path d="M 354.373715 132.427614 
L 358.042239 133.398832 
" style="fill:none;stroke:#000000;stroke-linecap:square;stroke-width:0.8;"/>
    </g>
   </g>
   <g id="xtick_21">
    <g id="line2d_24">
     <path d="M 355.072678 116.999377 
L 358.764463 117.957489 
" style="fill:none;stroke:#000000;stroke-linecap:square;stroke-width:0.8;"/>
    </g>
   </g>
   <g id="xtick_22">
    <g id="line2d_25">
     <path d="M 355.780217 101.381816 
L 359.495561 102.326427 
" style="fill:none;stroke:#000000;stroke-linecap:square;stroke-width:0.8;"/>
    </g>
   </g>
  </g>
  <g id="axes_1">
   <g id="Poly3DCollection_1">
    <path clip-path="url(#pfcc2be66cf)" d="M 193.838821 190.580933 
L 193.572224 176.229537 
L 217.933499 183.422361 
L 218.060548 197.854671 
z
" style="fill:#0d324b;stroke:#000000;"/>
    <path clip-path="url(#pfcc2be66cf)" d="M 182.84827 185.14655 
L 193.572224 176.229537 
L 193.838821 190.580933 
L 183.180256 199.598149 
z
" style="fill:#1b699f;stroke:#000000;"/>
    <path clip-path="url(#pfcc2be66cf)" d="M 193.838821 190.580933 
L 218.060548 197.854671 
L 207.56895 207.027682 
L 183.180256 199.598149 
z
" style="fill:#113f60;stroke:#000000;"/>
   </g>
   <g id="Poly3DCollection_2">
    <path clip-path="url(#pfcc2be66cf)" d="M 193.572224 176.229537 
L 193.302513 161.710518 
L 217.804953 168.820023 
L 217.933499 183.422361 
z
" style="fill:#0d324b;stroke:#000000;"/>
    <path clip-path="url(#pfcc2be66cf)" d="M 182.512365 170.524346 
L 193.302513 161.710518 
L 193.572224 176.229537 
L 182.84827 185.14655 
z
" style="fill:#1b699f;stroke:#000000;"/>
   </g>
   <g id="Poly3DCollection_3">
    <path clip-path="url(#pfcc2be66cf)" d="M 193.302513 161.710518 
L 193.029633 147.020923 
L 217.674883 154.044636 
L 217.804953 168.820023 
z
" style="fill:#0d324b;stroke:#000000;"/>
    <path clip-path="url(#pfcc2be66cf)" d="M 182.172472 155.728499 
L 193.029633 147.020923 
L 193.302513 161.710518 
L 182.512365 170.524346 
z
" style="fill:#1b699f;stroke:#000000;"/>
   </g>
   <g id="Poly3DCollection_4">
    <path clip-path="url(#pfcc2be66cf)" d="M 171.893021 194.255887 
L 182.84827 185.14655 
L 183.180256 199.598149 
L 172.293161 208.808703 
z
" style="fill:#1b699f;stroke:#000000;"/>
    <path clip-path="url(#pfcc2be66cf)" d="M 183.180256 199.598149 
L 207.56895 207.027682 
L 196.850435 216.399091 
L 172.293161 208.808703 
z
" style="fill:#113f60;stroke:#000000;"/>
   </g>
   <g id="Poly3DCollection_5">
    <defs>
     <path d="M 171.488106 -166.070593 
L 182.512365 -175.075654 
L 182.84827 -160.45345 
L 171.893021 -151.344113 
z
" id="m862674a3f1" style="stroke:#000000;"/>
    </defs>
    <g clip-path="url(#pfcc2be66cf)">
     <use style="fill:#1b699f;stroke:#000000;" x="0" xlink:href="#m862674a3f1" y="345.6"/>
    </g>
   </g>
   <g id="Poly3DCollection_6">
    <path clip-path="url(#pfcc2be66cf)" d="M 218.060548 197.854671 
L 217.933499 183.422361 
L 242.717724 190.740063 
L 242.700333 205.253951 
z
" style="fill:#0d324b;stroke:#000000;"/>
    <path clip-path="url(#pfcc2be66cf)" d="M 218.060548 197.854671 
L 242.700333 205.253951 
L 232.383126 214.58683 
L 207.56895 207.027682 
z
" style="fill:#113f60;stroke:#000000;"/>
    <path clip-path="url(#pfcc2be66cf)" d="M 232.383126 214.58683 
L 242.700333 205.253951 
L 242.717724 190.740063 
L 232.339103 199.971101 
z
" style="fill:#0d324b;stroke:#000000;"/>
   </g>
   <g id="Poly3DCollection_7">
    <path clip-path="url(#pfcc2be66cf)" d="M 193.029633 147.020923 
L 192.753528 132.157727 
L 217.543263 139.093106 
L 217.674883 154.044636 
z
" style="fill:#0d324b;stroke:#000000;"/>
    <path clip-path="url(#pfcc2be66cf)" d="M 181.828517 140.755897 
L 192.753528 132.157727 
L 193.029633 147.020923 
L 182.172472 155.728499 
z
" style="fill:#1b699f;stroke:#000000;"/>
   </g>
   <g id="Poly3DCollection_8">
    <defs>
     <path d="M 171.078329 -180.973863 
L 182.172472 -189.871501 
L 182.512365 -175.075654 
L 171.488106 -166.070593 
z
" id="m48c904681f" style="stroke:#000000;"/>
    </defs>
    <g clip-path="url(#pfcc2be66cf)">
     <use style="fill:#1b699f;stroke:#000000;" x="0" xlink:href="#m48c904681f" y="345.6"/>
    </g>
   </g>
   <g id="Poly3DCollection_9">
    <path clip-path="url(#pfcc2be66cf)" d="M 217.933499 183.422361 
L 217.804953 168.820023 
L 242.735322 176.053694 
L 242.717724 190.740063 
z
" style="fill:#0d324b;stroke:#000000;"/>
    <path clip-path="url(#pfcc2be66cf)" d="M 232.339103 199.971101 
L 242.717724 190.740063 
L 242.735322 176.053694 
L 232.29455 185.179784 
z
" style="fill:#0d324b;stroke:#000000;"/>
   </g>
   <g id="Poly3DCollection_10">
    <path clip-path="url(#pfcc2be66cf)" d="M 192.753528 132.157727 
L 192.474141 117.117835 
L 217.410065 123.962263 
L 217.543263 139.093106 
z
" style="fill:#0d324b;stroke:#000000;"/>
    <path clip-path="url(#pfcc2be66cf)" d="M 181.480429 125.603354 
L 192.474141 117.117835 
L 192.753528 132.157727 
L 181.828517 140.755897 
z
" style="fill:#1b699f;stroke:#000000;"/>
   </g>
   <g id="Poly3DCollection_11">
    <path clip-path="url(#pfcc2be66cf)" d="M 160.69891 203.563838 
L 171.893021 194.255887 
L 172.293161 208.808703 
L 161.170105 218.218882 
z
" style="fill:#1b699f;stroke:#000000;"/>
    <path clip-path="url(#pfcc2be66cf)" d="M 172.293161 208.808703 
L 196.850435 216.399091 
L 185.897561 225.975405 
L 161.170105 218.218882 
z
" style="fill:#113f60;stroke:#000000;"/>
   </g>
   <g id="Poly3DCollection_12">
    <defs>
     <path d="M 160.22203 -156.868007 
L 171.488106 -166.070593 
L 171.893021 -151.344113 
L 160.69891 -142.036162 
z
" id="m1df05af091" style="stroke:#000000;"/>
    </defs>
    <g clip-path="url(#pfcc2be66cf)">
     <use style="fill:#1b699f;stroke:#000000;" x="0" xlink:href="#m1df05af091" y="345.6"/>
    </g>
   </g>
   <g id="Poly3DCollection_13">
    <path clip-path="url(#pfcc2be66cf)" d="M 207.56895 207.027682 
L 232.383126 214.58683 
L 221.840807 224.123344 
L 196.850435 216.399091 
z
" style="fill:#113f60;stroke:#000000;"/>
    <path clip-path="url(#pfcc2be66cf)" d="M 221.840807 224.123344 
L 232.383126 214.58683 
L 232.339103 199.971101 
L 221.732661 209.404768 
z
" style="fill:#0d324b;stroke:#000000;"/>
   </g>
   <g id="Poly3DCollection_14">
    <defs>
     <path d="M 170.663604 -196.057126 
L 181.828517 -204.844103 
L 182.172472 -189.871501 
L 171.078329 -180.973863 
z
" id="ma8036bc575" style="stroke:#000000;"/>
    </defs>
    <g clip-path="url(#pfcc2be66cf)">
     <use style="fill:#1b699f;stroke:#000000;" x="0" xlink:href="#ma8036bc575" y="345.6"/>
    </g>
   </g>
   <g id="Poly3DCollection_15">
    <path clip-path="url(#pfcc2be66cf)" d="M 217.804953 168.820023 
L 217.674883 154.044636 
L 242.75313 161.191751 
L 242.735322 176.053694 
z
" style="fill:#0d324b;stroke:#000000;"/>
    <path clip-path="url(#pfcc2be66cf)" d="M 232.29455 185.179784 
L 242.735322 176.053694 
L 242.75313 161.191751 
L 232.249459 170.209695 
z
" style="fill:#0d324b;stroke:#000000;"/>
   </g>
   <g id="Poly3DCollection_16">
    <path clip-path="url(#pfcc2be66cf)" d="M 192.474141 117.117835 
L 192.191413 101.898078 
L 217.275259 108.648862 
L 217.410065 123.962263 
z
" style="fill:#0d324b;stroke:#000000;"/>
    <path clip-path="url(#pfcc2be66cf)" d="M 181.128132 110.267606 
L 192.191413 101.898078 
L 192.474141 117.117835 
L 181.480429 125.603354 
z
" style="fill:#1b699f;stroke:#000000;"/>
   </g>
   <g id="Poly3DCollection_17">
    <defs>
     <path d="M 159.739362 -171.879872 
L 171.078329 -180.973863 
L 171.488106 -166.070593 
L 160.22203 -156.868007 
z
" id="m524f994de8" style="stroke:#000000;"/>
    </defs>
    <g clip-path="url(#pfcc2be66cf)">
     <use style="fill:#1b699f;stroke:#000000;" x="0" xlink:href="#m524f994de8" y="345.6"/>
    </g>
   </g>
   <g id="Poly3DCollection_18">
    <defs>
     <path d="M 221.732661 -136.195232 
L 232.339103 -145.628899 
L 232.29455 -160.420216 
L 221.623202 -151.092584 
z
" id="m50e2dbaea4" style="stroke:#000000;"/>
    </defs>
    <g clip-path="url(#pfcc2be66cf)">
     <use style="fill:#0d324b;stroke:#000000;" x="0" xlink:href="#m50e2dbaea4" y="345.6"/>
    </g>
   </g>
   <g id="Poly3DCollection_19">
    <defs>
     <path d="M 170.24384 -211.323662 
L 181.480429 -219.996646 
L 181.828517 -204.844103 
L 170.663604 -196.057126 
z
" id="m1437913a49" style="stroke:#000000;"/>
    </defs>
    <g clip-path="url(#pfcc2be66cf)">
     <use style="fill:#1b699f;stroke:#000000;" x="0" xlink:href="#m1437913a49" y="345.6"/>
    </g>
   </g>
   <g id="Poly3DCollection_20">
    <path clip-path="url(#pfcc2be66cf)" d="M 149.25804 213.07697 
L 160.69891 203.563838 
L 161.170105 218.218882 
L 149.803334 227.835245 
z
" style="fill:#1b699f;stroke:#000000;"/>
    <path clip-path="url(#pfcc2be66cf)" d="M 161.170105 218.218882 
L 185.897561 225.975405 
L 174.702556 235.763418 
L 149.803334 227.835245 
z
" style="fill:#113f60;stroke:#000000;"/>
   </g>
   <g id="Poly3DCollection_21">
    <path clip-path="url(#pfcc2be66cf)" d="M 217.674883 154.044636 
L 217.543263 139.093106 
L 242.771152 146.151066 
L 242.75313 161.191751 
z
" style="fill:#0d324b;stroke:#000000;"/>
    <path clip-path="url(#pfcc2be66cf)" d="M 232.249459 170.209695 
L 242.75313 161.191751 
L 242.771152 146.151066 
L 232.203819 155.057574 
z
" style="fill:#0d324b;stroke:#000000;"/>
   </g>
   <g id="Poly3DCollection_22">
    <defs>
     <path d="M 148.706094 -147.461326 
L 160.22203 -156.868007 
L 160.69891 -142.036162 
L 149.25804 -132.52303 
z
" id="mafbed4ff5f" style="stroke:#000000;"/>
    </defs>
    <g clip-path="url(#pfcc2be66cf)">
     <use style="fill:#1b699f;stroke:#000000;" x="0" xlink:href="#mafbed4ff5f" y="345.6"/>
    </g>
   </g>
   <g id="Poly3DCollection_23">
    <path clip-path="url(#pfcc2be66cf)" d="M 196.850435 216.399091 
L 221.840807 224.123344 
L 211.065925 233.870232 
L 185.897561 225.975405 
z
" style="fill:#113f60;stroke:#000000;"/>
    <path clip-path="url(#pfcc2be66cf)" d="M 211.065925 233.870232 
L 221.840807 224.123344 
L 221.732661 209.404768 
L 210.890815 219.047811 
z
" style="fill:#0d324b;stroke:#000000;"/>
   </g>
   <g id="Poly3DCollection_24">
    <defs>
     <path d="M 159.2508 -187.075054 
L 170.663604 -196.057126 
L 171.078329 -180.973863 
L 159.739362 -171.879872 
z
" id="mef3dc712cd" style="stroke:#000000;"/>
    </defs>
    <g clip-path="url(#pfcc2be66cf)">
     <use style="fill:#1b699f;stroke:#000000;" x="0" xlink:href="#mef3dc712cd" y="345.6"/>
    </g>
   </g>
   <g id="Poly3DCollection_25">
    <defs>
     <path d="M 221.623202 -151.092584 
L 232.29455 -160.420216 
L 232.249459 -175.390305 
L 221.512405 -166.17199 
z
" id="m29a9ce353c" style="stroke:#000000;"/>
    </defs>
    <g clip-path="url(#pfcc2be66cf)">
     <use style="fill:#0d324b;stroke:#000000;" x="0" xlink:href="#m29a9ce353c" y="345.6"/>
    </g>
   </g>
   <g id="Poly3DCollection_26">
    <defs>
     <path d="M 169.818944 -226.776833 
L 181.128132 -235.332394 
L 181.480429 -219.996646 
L 170.24384 -211.323662 
z
" id="md3fb9044f9" style="stroke:#000000;"/>
    </defs>
    <g clip-path="url(#pfcc2be66cf)">
     <use style="fill:#1b699f;stroke:#000000;" x="0" xlink:href="#md3fb9044f9" y="345.6"/>
    </g>
   </g>
   <g id="Poly3DCollection_27">
    <path clip-path="url(#pfcc2be66cf)" d="M 217.543263 139.093106 
L 217.410065 123.962263 
L 242.789393 130.928396 
L 242.771152 146.151066 
z
" style="fill:#0d324b;stroke:#000000;"/>
    <path clip-path="url(#pfcc2be66cf)" d="M 232.203819 155.057574 
L 242.771152 146.151066 
L 242.789393 130.928396 
L 232.157622 139.72008 
z
" style="fill:#0d324b;stroke:#000000;"/>
   </g>
   <g id="Poly3DCollection_28">
    <defs>
     <path d="M 148.147375 -162.582956 
L 159.739362 -171.879872 
L 160.22203 -156.868007 
L 148.706094 -147.461326 
z
" id="m6eb6c95845" style="stroke:#000000;"/>
    </defs>
    <g clip-path="url(#pfcc2be66cf)">
     <use style="fill:#1b699f;stroke:#000000;" x="0" xlink:href="#m6eb6c95845" y="345.6"/>
    </g>
   </g>
   <g id="Poly3DCollection_29">
    <path clip-path="url(#pfcc2be66cf)" d="M 192.191413 101.898078 
L 191.905283 86.495209 
L 217.138818 93.149579 
L 217.275259 108.648862 
z
" style="fill:#0d324b;stroke:#000000;"/>
    <path clip-path="url(#pfcc2be66cf)" d="M 180.77155 94.74531 
L 191.905283 86.495209 
L 192.191413 101.898078 
L 181.128132 110.267606 
z
" style="fill:#1b699f;stroke:#000000;"/>
    <path clip-path="url(#pfcc2be66cf)" d="M 180.77155 94.74531 
L 206.186229 101.548339 
L 217.138818 93.149579 
L 191.905283 86.495209 
z
" style="fill:#185b8a;stroke:#000000;"/>
   </g>
   <g id="Poly3DCollection_30">
    <defs>
     <path d="M 210.890815 -126.552189 
L 221.732661 -136.195232 
L 221.623202 -151.092584 
L 210.713555 -141.556659 
z
" id="m53998e68e1" style="stroke:#000000;"/>
    </defs>
    <g clip-path="url(#pfcc2be66cf)">
     <use style="fill:#0d324b;stroke:#000000;" x="0" xlink:href="#m53998e68e1" y="345.6"/>
    </g>
   </g>
   <g id="Poly3DCollection_31">
    <defs>
     <path d="M 158.756235 -202.456932 
L 170.24384 -211.323662 
L 170.663604 -196.057126 
L 159.2508 -187.075054 
z
" id="m22b5703fab" style="stroke:#000000;"/>
    </defs>
    <g clip-path="url(#pfcc2be66cf)">
     <use style="fill:#1b699f;stroke:#000000;" x="0" xlink:href="#m22b5703fab" y="345.6"/>
    </g>
   </g>
   <g id="Poly3DCollection_32">
    <defs>
     <path d="M 221.512405 -166.17199 
L 232.249459 -175.390305 
L 232.203819 -190.542426 
L 221.400246 -181.436807 
z
" id="m07531a4579" style="stroke:#000000;"/>
    </defs>
    <g clip-path="url(#pfcc2be66cf)">
     <use style="fill:#0d324b;stroke:#000000;" x="0" xlink:href="#m07531a4579" y="345.6"/>
    </g>
   </g>
   <g id="Poly3DCollection_33">
    <path clip-path="url(#pfcc2be66cf)" d="M 217.410065 123.962263 
L 217.275259 108.648862 
L 242.807855 115.520417 
L 242.789393 130.928396 
z
" style="fill:#0d324b;stroke:#000000;"/>
    <path clip-path="url(#pfcc2be66cf)" d="M 232.157622 139.72008 
L 242.789393 130.928396 
L 242.807855 115.520417 
L 232.110855 124.19379 
z
" style="fill:#0d324b;stroke:#000000;"/>
   </g>
   <g id="Poly3DCollection_34">
    <path clip-path="url(#pfcc2be66cf)" d="M 185.897561 225.975405 
L 211.065925 233.870232 
L 200.050701 243.834534 
L 174.702556 235.763418 
z
" style="fill:#113f60;stroke:#000000;"/>
    <path clip-path="url(#pfcc2be66cf)" d="M 200.050701 243.834534 
L 211.065925 233.870232 
L 210.890815 219.047811 
L 199.80564 228.907278 
z
" style="fill:#0d324b;stroke:#000000;"/>
   </g>
   <g id="Poly3DCollection_35">
    <defs>
     <path d="M 147.581756 -177.891317 
L 159.2508 -187.075054 
L 159.739362 -171.879872 
L 148.147375 -162.582956 
z
" id="m60ab1eaa81" style="stroke:#000000;"/>
    </defs>
    <g clip-path="url(#pfcc2be66cf)">
     <use style="fill:#1b699f;stroke:#000000;" x="0" xlink:href="#m60ab1eaa81" y="345.6"/>
    </g>
   </g>
   <g id="Poly3DCollection_36">
    <defs>
     <path d="M 210.713555 -141.556659 
L 221.623202 -151.092584 
L 221.512405 -166.17199 
L 210.534103 -156.746551 
z
" id="m62cbe2ca51" style="stroke:#000000;"/>
    </defs>
    <g clip-path="url(#pfcc2be66cf)">
     <use style="fill:#0d324b;stroke:#000000;" x="0" xlink:href="#m62cbe2ca51" y="345.6"/>
    </g>
   </g>
   <g id="Poly3DCollection_37">
    <defs>
     <path d="M 158.255556 -218.028967 
L 169.818944 -226.776833 
L 170.24384 -211.323662 
L 158.756235 -202.456932 
z
" id="m2a21903922" style="stroke:#000000;"/>
    </defs>
    <g clip-path="url(#pfcc2be66cf)">
     <use style="fill:#1b699f;stroke:#000000;" x="0" xlink:href="#m2a21903922" y="345.6"/>
    </g>
   </g>
   <g id="Poly3DCollection_38">
    <path clip-path="url(#pfcc2be66cf)" d="M 137.562161 222.802143 
L 149.25804 213.07697 
L 149.803334 227.835245 
L 138.184749 237.664644 
z
" style="fill:#1b699f;stroke:#000000;"/>
    <path clip-path="url(#pfcc2be66cf)" d="M 149.803334 227.835245 
L 174.702556 235.763418 
L 163.257301 245.77023 
L 138.184749 237.664644 
z
" style="fill:#113f60;stroke:#000000;"/>
    <path clip-path="url(#pfcc2be66cf)" d="M 163.257301 245.77023 
L 162.784134 230.822764 
L 137.562161 222.802143 
L 138.184749 237.664644 
z
" style="fill:#1b699f;stroke:#000000;"/>
   </g>
   <g id="Poly3DCollection_39">
    <defs>
     <path d="M 221.400246 -181.436807 
L 232.203819 -190.542426 
L 232.157622 -205.87992 
L 221.286699 -196.890476 
z
" id="m0bc469fdee" style="stroke:#000000;"/>
    </defs>
    <g clip-path="url(#pfcc2be66cf)">
     <use style="fill:#0d324b;stroke:#000000;" x="0" xlink:href="#m0bc469fdee" y="345.6"/>
    </g>
   </g>
   <g id="Poly3DCollection_40">
    <path clip-path="url(#pfcc2be66cf)" d="M 217.275259 108.648862 
L 217.138818 93.149579 
L 242.826544 99.923725 
L 242.807855 115.520417 
z
" style="fill:#0d324b;stroke:#000000;"/>
    <path clip-path="url(#pfcc2be66cf)" d="M 206.186229 101.548339 
L 232.063509 108.475197 
L 242.826544 99.923725 
L 217.138818 93.149579 
z
" style="fill:#185b8a;stroke:#000000;"/>
    <path clip-path="url(#pfcc2be66cf)" d="M 232.110855 124.19379 
L 242.807855 115.520417 
L 242.826544 99.923725 
L 232.063509 108.475197 
z
" style="fill:#0d324b;stroke:#000000;"/>
   </g>
   <g id="Poly3DCollection_41">
    <path clip-path="url(#pfcc2be66cf)" d="M 169.388821 103.179918 
L 180.77155 94.74531 
L 181.128132 110.267606 
L 169.818944 118.823167 
z
" style="fill:#1b699f;stroke:#000000;"/>
    <path clip-path="url(#pfcc2be66cf)" d="M 169.388821 103.179918 
L 194.986461 110.136642 
L 206.186229 101.548339 
L 180.77155 94.74531 
z
" style="fill:#185b8a;stroke:#000000;"/>
   </g>
   <g id="Poly3DCollection_42">
    <defs>
     <path d="M 199.80564 -116.692722 
L 210.890815 -126.552189 
L 210.713555 -141.556659 
L 199.557535 -131.805384 
z
" id="m9ba427b5ef" style="stroke:#000000;"/>
    </defs>
    <g clip-path="url(#pfcc2be66cf)">
     <use style="fill:#0d324b;stroke:#000000;" x="0" xlink:href="#m9ba427b5ef" y="345.6"/>
    </g>
   </g>
   <g id="Poly3DCollection_43">
    <defs>
     <path d="M 147.009109 -193.389889 
L 158.756235 -202.456932 
L 159.2508 -187.075054 
L 147.581756 -177.891317 
z
" id="m5042ed08da" style="stroke:#000000;"/>
    </defs>
    <g clip-path="url(#pfcc2be66cf)">
     <use style="fill:#1b699f;stroke:#000000;" x="0" xlink:href="#m5042ed08da" y="345.6"/>
    </g>
   </g>
   <g id="Poly3DCollection_44">
    <defs>
     <path d="M 210.534103 -156.746551 
L 221.512405 -166.17199 
L 221.400246 -181.436807 
L 210.352421 -172.125324 
z
" id="mca7a0ad31f" style="stroke:#000000;"/>
    </defs>
    <g clip-path="url(#pfcc2be66cf)">
     <use style="fill:#0d324b;stroke:#000000;" x="0" xlink:href="#mca7a0ad31f" y="345.6"/>
    </g>
   </g>
   <g id="Poly3DCollection_45">
    <path clip-path="url(#pfcc2be66cf)" d="M 136.931893 207.756318 
L 148.706094 198.138674 
L 149.25804 213.07697 
L 137.562161 222.802143 
z
" style="fill:#1b699f;stroke:#000000;"/>
    <path clip-path="url(#pfcc2be66cf)" d="M 162.784134 230.822764 
L 162.305078 215.689239 
L 136.931893 207.756318 
L 137.562161 222.802143 
z
" style="fill:#1b699f;stroke:#000000;"/>
   </g>
   <g id="Poly3DCollection_46">
    <defs>
     <path d="M 221.286699 -196.890476 
L 232.157622 -205.87992 
L 232.110855 -221.40621 
L 221.171739 -212.536524 
z
" id="mc8748462c6" style="stroke:#000000;"/>
    </defs>
    <g clip-path="url(#pfcc2be66cf)">
     <use style="fill:#0d324b;stroke:#000000;" x="0" xlink:href="#mc8748462c6" y="345.6"/>
    </g>
   </g>
   <g id="Poly3DCollection_47">
    <path clip-path="url(#pfcc2be66cf)" d="M 174.702556 235.763418 
L 200.050701 243.834534 
L 188.787 254.023604 
L 163.257301 245.77023 
z
" style="fill:#113f60;stroke:#000000;"/>
    <path clip-path="url(#pfcc2be66cf)" d="M 188.787 254.023604 
L 200.050701 243.834534 
L 199.80564 228.907278 
L 188.46885 238.990537 
z
" style="fill:#0d324b;stroke:#000000;"/>
    <path clip-path="url(#pfcc2be66cf)" d="M 188.787 254.023604 
L 188.46885 238.990537 
L 162.784134 230.822764 
L 163.257301 245.77023 
z
" style="fill:#1b699f;stroke:#000000;"/>
   </g>
   <g id="Poly3DCollection_48">
    <defs>
     <path d="M 199.557535 -131.805384 
L 210.713555 -141.556659 
L 210.534103 -156.746551 
L 199.30633 -147.106927 
z
" id="m491ca05ee8" style="stroke:#000000;"/>
    </defs>
    <g clip-path="url(#pfcc2be66cf)">
     <use style="fill:#0d324b;stroke:#000000;" x="0" xlink:href="#m491ca05ee8" y="345.6"/>
    </g>
   </g>
   <g id="Poly3DCollection_49">
    <defs>
     <path d="M 146.429302 -209.082239 
L 158.255556 -218.028967 
L 158.756235 -202.456932 
L 147.009109 -193.389889 
z
" id="m79c08b149c" style="stroke:#000000;"/>
    </defs>
    <g clip-path="url(#pfcc2be66cf)">
     <use style="fill:#1b699f;stroke:#000000;" x="0" xlink:href="#m79c08b149c" y="345.6"/>
    </g>
   </g>
   <g id="Poly3DCollection_50">
    <defs>
     <path d="M 210.352421 -172.125324 
L 221.400246 -181.436807 
L 221.286699 -196.890476 
L 210.168465 -187.696523 
z
" id="m78f5091a51" style="stroke:#000000;"/>
    </defs>
    <g clip-path="url(#pfcc2be66cf)">
     <use style="fill:#0d324b;stroke:#000000;" x="0" xlink:href="#m78f5091a51" y="345.6"/>
    </g>
   </g>
   <g id="Poly3DCollection_51">
    <path clip-path="url(#pfcc2be66cf)" d="M 136.293803 192.523754 
L 148.147375 183.017044 
L 148.706094 198.138674 
L 136.931893 207.756318 
z
" style="fill:#1b699f;stroke:#000000;"/>
    <path clip-path="url(#pfcc2be66cf)" d="M 162.305078 215.689239 
L 161.820021 200.366159 
L 136.293803 192.523754 
L 136.931893 207.756318 
z
" style="fill:#1b699f;stroke:#000000;"/>
   </g>
   <g id="Poly3DCollection_52">
    <path clip-path="url(#pfcc2be66cf)" d="M 194.986461 110.136642 
L 221.055339 117.221436 
L 232.063509 108.475197 
L 206.186229 101.548339 
z
" style="fill:#185b8a;stroke:#000000;"/>
    <path clip-path="url(#pfcc2be66cf)" d="M 221.171739 133.063476 
L 232.110855 124.19379 
L 232.063509 108.475197 
L 221.055339 117.221436 
z
" style="fill:#0d324b;stroke:#000000;"/>
   </g>
   <g id="Poly3DCollection_53">
    <path clip-path="url(#pfcc2be66cf)" d="M 157.74865 111.805291 
L 169.388821 103.179918 
L 169.818944 118.823167 
L 158.255556 127.571033 
z
" style="fill:#1b699f;stroke:#000000;"/>
    <path clip-path="url(#pfcc2be66cf)" d="M 157.74865 111.805291 
L 183.531051 118.920979 
L 194.986461 110.136642 
L 169.388821 103.179918 
z
" style="fill:#185b8a;stroke:#000000;"/>
   </g>
   <g id="Poly3DCollection_54">
    <path clip-path="url(#pfcc2be66cf)" d="M 188.46885 238.990537 
L 199.80564 228.907278 
L 199.557535 213.794616 
L 188.146703 223.768618 
z
" style="fill:#0d324b;stroke:#000000;"/>
    <path clip-path="url(#pfcc2be66cf)" d="M 188.46885 238.990537 
L 188.146703 223.768618 
L 162.305078 215.689239 
L 162.784134 230.822764 
z
" style="fill:#1b699f;stroke:#000000;"/>
   </g>
   <g id="Poly3DCollection_55">
    <defs>
     <path d="M 199.30633 -147.106927 
L 210.534103 -156.746551 
L 210.352421 -172.125324 
L 199.051965 -162.600915 
z
" id="m7f721dd8bb" style="stroke:#000000;"/>
    </defs>
    <g clip-path="url(#pfcc2be66cf)">
     <use style="fill:#0d324b;stroke:#000000;" x="0" xlink:href="#m7f721dd8bb" y="345.6"/>
    </g>
   </g>
   <g id="Poly3DCollection_56">
    <defs>
     <path d="M 210.168465 -187.696523 
L 221.286699 -196.890476 
L 221.171739 -212.536524 
L 209.982192 -203.463782 
z
" id="m359f536cf6" style="stroke:#000000;"/>
    </defs>
    <g clip-path="url(#pfcc2be66cf)">
     <use style="fill:#0d324b;stroke:#000000;" x="0" xlink:href="#m359f536cf6" y="345.6"/>
    </g>
   </g>
   <g id="Poly3DCollection_57">
    <path clip-path="url(#pfcc2be66cf)" d="M 135.647744 177.100954 
L 147.581756 167.708683 
L 148.147375 183.017044 
L 136.293803 192.523754 
z
" style="fill:#1b699f;stroke:#000000;"/>
    <path clip-path="url(#pfcc2be66cf)" d="M 161.820021 200.366159 
L 161.32885 184.849939 
L 135.647744 177.100954 
L 136.293803 192.523754 
z
" style="fill:#1b699f;stroke:#000000;"/>
   </g>
   <g id="Poly3DCollection_58">
    <path clip-path="url(#pfcc2be66cf)" d="M 188.146703 223.768618 
L 199.557535 213.794616 
L 199.30633 198.493073 
L 187.820484 208.354265 
z
" style="fill:#0d324b;stroke:#000000;"/>
    <path clip-path="url(#pfcc2be66cf)" d="M 188.146703 223.768618 
L 187.820484 208.354265 
L 161.820021 200.366159 
L 162.305078 215.689239 
z
" style="fill:#1b699f;stroke:#000000;"/>
   </g>
   <g id="Poly3DCollection_59">
    <defs>
     <path d="M 199.051965 -162.600915 
L 210.352421 -172.125324 
L 210.168465 -187.696523 
L 198.794381 -178.291001 
z
" id="mb8ee09583e" style="stroke:#000000;"/>
    </defs>
    <g clip-path="url(#pfcc2be66cf)">
     <use style="fill:#0d324b;stroke:#000000;" x="0" xlink:href="#mb8ee09583e" y="345.6"/>
    </g>
   </g>
   <g id="Poly3DCollection_60">
    <path clip-path="url(#pfcc2be66cf)" d="M 183.531051 118.920979 
L 209.79356 126.169172 
L 221.055339 117.221436 
L 194.986461 110.136642 
z
" style="fill:#185b8a;stroke:#000000;"/>
    <path clip-path="url(#pfcc2be66cf)" d="M 209.982192 142.136218 
L 221.171739 133.063476 
L 221.055339 117.221436 
L 209.79356 126.169172 
z
" style="fill:#0d324b;stroke:#000000;"/>
   </g>
   <g id="Poly3DCollection_61">
    <path clip-path="url(#pfcc2be66cf)" d="M 134.993566 161.484332 
L 147.009109 152.210111 
L 147.581756 167.708683 
L 135.647744 177.100954 
z
" style="fill:#1b699f;stroke:#000000;"/>
    <path clip-path="url(#pfcc2be66cf)" d="M 161.32885 184.849939 
L 160.83145 169.136906 
L 134.993566 161.484332 
L 135.647744 177.100954 
z
" style="fill:#1b699f;stroke:#000000;"/>
   </g>
   <g id="Poly3DCollection_62">
    <path clip-path="url(#pfcc2be66cf)" d="M 145.842201 120.627975 
L 157.74865 111.805291 
L 158.255556 127.571033 
L 146.429302 136.517761 
z
" style="fill:#1b699f;stroke:#000000;"/>
    <path clip-path="url(#pfcc2be66cf)" d="M 145.842201 120.627975 
L 171.811145 127.908139 
L 183.531051 118.920979 
L 157.74865 111.805291 
z
" style="fill:#185b8a;stroke:#000000;"/>
   </g>
   <g id="Poly3DCollection_63">
    <path clip-path="url(#pfcc2be66cf)" d="M 187.820484 208.354265 
L 199.30633 198.493073 
L 199.051965 182.999085 
L 187.490114 192.743807 
z
" style="fill:#0d324b;stroke:#000000;"/>
    <path clip-path="url(#pfcc2be66cf)" d="M 187.820484 208.354265 
L 187.490114 192.743807 
L 161.32885 184.849939 
L 161.820021 200.366159 
z
" style="fill:#1b699f;stroke:#000000;"/>
   </g>
   <g id="Poly3DCollection_64">
    <defs>
     <path d="M 198.794381 -178.291001 
L 210.168465 -187.696523 
L 209.982192 -203.463782 
L 198.533516 -194.180932 
z
" id="m7bbbb9defd" style="stroke:#000000;"/>
    </defs>
    <g clip-path="url(#pfcc2be66cf)">
     <use style="fill:#0d324b;stroke:#000000;" x="0" xlink:href="#m7bbbb9defd" y="345.6"/>
    </g>
   </g>
   <g id="Poly3DCollection_65">
    <path clip-path="url(#pfcc2be66cf)" d="M 134.331115 145.67021 
L 146.429302 136.517761 
L 147.009109 152.210111 
L 134.993566 161.484332 
z
" style="fill:#1b699f;stroke:#000000;"/>
    <path clip-path="url(#pfcc2be66cf)" d="M 160.83145 169.136906 
L 160.327699 153.223291 
L 134.331115 145.67021 
L 134.993566 161.484332 
z
" style="fill:#1b699f;stroke:#000000;"/>
   </g>
   <g id="Poly3DCollection_66">
    <path clip-path="url(#pfcc2be66cf)" d="M 187.490114 192.743807 
L 199.051965 182.999085 
L 198.794381 167.308999 
L 187.155514 176.933476 
z
" style="fill:#0d324b;stroke:#000000;"/>
    <path clip-path="url(#pfcc2be66cf)" d="M 187.490114 192.743807 
L 187.155514 176.933476 
L 160.83145 169.136906 
L 161.32885 184.849939 
z
" style="fill:#1b699f;stroke:#000000;"/>
   </g>
   <g id="Poly3DCollection_67">
    <path clip-path="url(#pfcc2be66cf)" d="M 171.811145 127.908139 
L 198.269307 135.325449 
L 209.79356 126.169172 
L 183.531051 118.920979 
z
" style="fill:#185b8a;stroke:#000000;"/>
    <path clip-path="url(#pfcc2be66cf)" d="M 198.533516 151.419068 
L 209.982192 142.136218 
L 209.79356 126.169172 
L 198.269307 135.325449 
z
" style="fill:#0d324b;stroke:#000000;"/>
   </g>
   <g id="Poly3DCollection_68">
    <path clip-path="url(#pfcc2be66cf)" d="M 133.660232 129.65482 
L 145.842201 120.627975 
L 146.429302 136.517761 
L 134.331115 145.67021 
z
" style="fill:#1b699f;stroke:#000000;"/>
    <path clip-path="url(#pfcc2be66cf)" d="M 133.660232 129.65482 
L 159.817477 137.105228 
L 171.811145 127.908139 
L 145.842201 120.627975 
z
" style="fill:#185b8a;stroke:#000000;"/>
    <path clip-path="url(#pfcc2be66cf)" d="M 160.327699 153.223291 
L 159.817477 137.105228 
L 133.660232 129.65482 
L 134.331115 145.67021 
z
" style="fill:#1b699f;stroke:#000000;"/>
   </g>
   <g id="Poly3DCollection_69">
    <path clip-path="url(#pfcc2be66cf)" d="M 187.155514 176.933476 
L 198.794381 167.308999 
L 198.533516 151.419068 
L 186.816603 160.91941 
z
" style="fill:#0d324b;stroke:#000000;"/>
    <path clip-path="url(#pfcc2be66cf)" d="M 187.155514 176.933476 
L 186.816603 160.91941 
L 160.327699 153.223291 
L 160.83145 169.136906 
z
" style="fill:#1b699f;stroke:#000000;"/>
   </g>
   <g id="Poly3DCollection_70">
    <path clip-path="url(#pfcc2be66cf)" d="M 159.817477 137.105228 
L 186.473295 144.697645 
L 198.269307 135.325449 
L 171.811145 127.908139 
z
" style="fill:#185b8a;stroke:#000000;"/>
    <path clip-path="url(#pfcc2be66cf)" d="M 186.816603 160.91941 
L 198.533516 151.419068 
L 198.269307 135.325449 
L 186.473295 144.697645 
z
" style="fill:#0d324b;stroke:#000000;"/>
    <path clip-path="url(#pfcc2be66cf)" d="M 186.816603 160.91941 
L 186.473295 144.697645 
L 159.817477 137.105228 
L 160.327699 153.223291 
z
" style="fill:#1b699f;stroke:#000000;"/>
   </g>
  </g>
 </g>
 <defs>
  <clipPath id="pfcc2be66cf">
   <rect height="266.112" width="266.112" x="103.104" y="41.472"/>
  </clipPath>
 </defs>
</svg>
